Source-HROTn_VROTd_SLENx_SANGx.ufo
<glyph name="exclam" format="2">
  <advance width="205"/>
  <unicode hex="0021"/>
  <outline>
    <contour>
      <point x="86.59009742330267" y="185.0" type="curve" name="CJUVSMSB"/>
      <point x="119.11700935788386" y="193.0" name="AKXYQGFY"/>
      <point x="159.42209588551708" y="193.0" name="PFODSDYK"/>
      <point x="203.26271631908304" y="185.0" type="curve" name="XMVMYDQB"/>
      <point x="184.8779400082328" y="357.0" name="BZNDWZDM"/>
      <point x="216.69774516162744" y="460.0" name="YFECCLUR"/>
      <point x="300.13634534164004" y="488.0" type="curve" name="KAFVSLOL"/>
      <point x="252.05308422095482" y="498.0" name="QIQGJZEC"/>
      <point x="210.33378413094852" y="498.0" name="WXCDCRPW"/>
      <point x="176.39265863399422" y="488.0" type="curve" name="UPJSRWDH"/>
      <point x="95.7824855787278" y="460.0" name="LOUDNBRD"/>
      <point x="65.37689398770625" y="357.0" name="NTDHTRZU"/>
    </contour>
    <contour>
      <point x="232.961201128918" y="-200.0" type="curve" name="BBSTKKVC"/>
      <point x="273.26628765655124" y="-200.0" name="SJQTALLA"/>
      <point x="287.4084232802822" y="-125.0" name="XQFSFVQE"/>
      <point x="264.78100628231266" y="-36.0" type="curve" smooth="yes" name="PFIKYZGV"/>
      <point x="242.86069606552968" y="51.0" name="JTRXRFTN"/>
      <point x="191.24190103891172" y="123.0" name="PAPMZTUQ"/>
      <point x="150.9368145112785" y="123.0" type="curve" smooth="yes" name="XVHYZJHL"/>
      <point x="109.2175144212722" y="123.0" name="MIPEDJKU"/>
      <point x="92.95405845398162" y="52.0" name="KCRYXYXQ"/>
      <point x="115.58147545195112" y="-36.0" type="curve" smooth="yes" name="SCUTBSOQ"/>
      <point x="138.20889244992065" y="-125.0" name="SOHFPQIG"/>
      <point x="191.24190103891172" y="-200.0" name="SXVGFAQI"/>
      <point x="232.961201128918" y="-200.0" type="curve" name="AYCPPJHG"/>
      <point x="232.961201128918" y="-200.0" name="YADJHZJG"/>
      <point x="232.961201128918" y="-200.0" name="DJVMVVHB"/>
    </contour>
  </outline>
</glyph>
<glyph name="numbersign" format="2">
  <advance width="494"/>
  <unicode hex="0023"/>
  <outline>
    <contour>
      <point x="109.82128444980978" y="35.0" type="curve" name="WLCAJSKW"/>
      <point x="128.20606076066002" y="41.0" name="CGIMXGFU"/>
      <point x="148.00505063388334" y="47.0" name="JCPASQMQ"/>
      <point x="167.80404050710666" y="51.0" type="curve" name="WRXWDCEM"/>
      <point x="180.5319625684645" y="-19.0" name="EFWYVPSJ"/>
      <point x="200.33095244168788" y="-101.0" name="NNFADKOI"/>
      <point x="225.07968978321702" y="-188.0" type="curve" name="FALZDRPE"/>
      <point x="254.77817459305203" y="-182.0" name="QOUUEFAY"/>
      <point x="285.8908729652601" y="-177.0" name="OYTMYEGJ"/>
      <point x="317.71067811865476" y="-174.0" type="curve" name="IFRAQAVL"/>
      <point x="293.6690475583121" y="-88.0" name="BUFQPOXA"/>
      <point x="274.57716446627535" y="-7.0" name="PAABLOYR"/>
      <point x="261.14213562373095" y="64.0" type="curve" name="ZNKFKHXV"/>
      <point x="282.3553390593274" y="65.0" name="LSDSGIEK"/>
      <point x="304.27564927611036" y="66.0" name="DRFRMHVG"/>
      <point x="326.9030662740799" y="65.0" type="curve" name="XELIXJXZ"/>
      <point x="339.63098833543773" y="-5.0" name="FSFFXWMF"/>
      <point x="358.7228714274745" y="-86.0" name="ORRAVAKS"/>
      <point x="383.4716087690037" y="-173.0" type="curve" name="VSXAMVEH"/>
      <point x="417.41273426595797" y="-173.0" name="ZHULKECF"/>
      <point x="454.1822868876584" y="-176.0" name="VHETGCWB"/>
      <point x="492.36605307173204" y="-182.0" type="curve" name="XPFBGXKO"/>
      <point x="468.32442251138946" y="-96.0" name="IEUYQIKG"/>
      <point x="449.23253941935263" y="-15.0" name="FAJGZDQC"/>
      <point x="436.5046173579948" y="55.0" type="curve" name="UIEVDOEO"/>
      <point x="469.73863607376245" y="50.0" name="DHLLIDRS"/>
      <point x="505.80108191427644" y="43.0" name="SPFEVIDT"/>
      <point x="541.1564209736039" y="35.0" type="curve" name="DGDTKPVG"/>
      <point x="526.3071785686864" y="104.0" name="EXPEDSXB"/>
      <point x="515.7005768508881" y="168.0" name="STWQPASJ"/>
      <point x="512.1650429449553" y="221.0" type="curve" name="MMTJAJBY"/>
      <point x="479.6381310103741" y="228.0" name="RMRTCWNJ"/>
      <point x="447.111219075793" y="235.0" name="UMIBGLEA"/>
      <point x="415.99852070358486" y="240.0" type="curve" name="NTXPTRFO"/>
      <point x="415.99852070358486" y="275.0" name="YVCVWTBH"/>
      <point x="417.41273426595797" y="309.0" name="USWOGJFL"/>
      <point x="422.36248173426384" y="337.0" type="curve" name="ULMTKQXZ"/>
      <point x="451.3538597629122" y="332.0" name="YKDZYQOB"/>
      <point x="481.75945135393385" y="326.0" name="TJICZUYV"/>
      <point x="512.1650429449553" y="319.0" type="curve" name="FKLRHGHR"/>
      <point x="516.4076836320746" y="361.0" name="TQDRTYOT"/>
      <point x="526.3071785686864" y="396.0" name="BDWDUVNY"/>
      <point x="541.1564209736039" y="423.0" type="curve" name="TNFZWQOJ"/>
      <point x="514.286363288515" y="429.0" name="XHJMHBKC"/>
      <point x="486.00209204105306" y="435.0" name="WFRTLXZU"/>
      <point x="460.5462479183374" y="439.0" type="curve" name="ILXQELDY"/>
      <point x="478.93102422918764" y="465.0" name="GVODWECO"/>
      <point x="504.38686835190333" y="483.0" name="QOXYUTSO"/>
      <point x="534.7924599429248" y="492.0" type="curve" name="WCNNKUST"/>
      <point x="496.60869375885136" y="498.0" name="CMTXNADU"/>
      <point x="458.4249275747777" y="503.0" name="ABOLKTYH"/>
      <point x="422.36248173426384" y="506.0" type="curve" name="XWVGQYPM"/>
      <point x="392.66399692442883" y="496.0" name="AEDECHMV"/>
      <point x="367.91525958289964" y="477.0" name="MPWMATWO"/>
      <point x="348.82337649086287" y="452.0" type="curve" name="ITBUSSII"/>
      <point x="326.19595949289334" y="453.0" name="WZTZKBUF"/>
      <point x="302.86143571373725" y="454.0" name="EFAZFHTJ"/>
      <point x="281.6482322781408" y="453.0" type="curve" name="AOVESEIU"/>
      <point x="300.03300858899104" y="479.0" name="RCMIKPSW"/>
      <point x="324.78174593052023" y="498.0" name="ZQQXYHRK"/>
      <point x="355.1873375215418" y="507.0" type="curve" name="HDBEAIXR"/>
      <point x="321.2462120245875" y="507.0" name="ZWIIDOAO"/>
      <point x="288.7193000900063" y="504.0" name="BKTFVCTH"/>
      <point x="259.0208152801713" y="498.0" type="curve" name="FAHVKATE"/>
      <point x="229.32233047033628" y="488.0" name="IKELXBQT"/>
      <point x="204.57359312880715" y="469.0" name="MGJUKKCD"/>
      <point x="186.18881681795693" y="443.0" type="curve" name="WXNNFZMD"/>
      <point x="160.02586591405463" y="438.0" name="FVKIDLXL"/>
      <point x="133.8629150101524" y="431.0" name="VPBWBPGK"/>
      <point x="109.82128444980978" y="423.0" type="curve" name="ORWHUKHV"/>
      <point x="94.97204204489228" y="396.0" name="BYQNKLQW"/>
      <point x="84.36544032709406" y="362.0" name="RHMAUBDT"/>
      <point x="80.82990642116133" y="319.0" type="curve" name="IHBTWHIK"/>
      <point x="103.45732341913083" y="326.0" name="SYELDFJY"/>
      <point x="126.08474041710036" y="333.0" name="QMHUKJDK"/>
      <point x="150.126370977443" y="338.0" type="curve" name="FIULSQYH"/>
      <point x="145.88373029032368" y="309.0" name="FCUOITPM"/>
      <point x="144.4695167279506" y="275.0" name="NHSUWTER"/>
      <point x="145.17662350913713" y="239.0" type="curve" name="RPCWAMWU"/>
      <point x="123.25631329235418" y="234.0" name="ZNQSBWEW"/>
      <point x="101.3360030755712" y="228.0" name="CPGKOSAY"/>
      <point x="80.82990642116133" y="221.0" type="curve" name="PUBXJADW"/>
      <point x="85.07254710828062" y="167.0" name="GFRFAJDX"/>
      <point x="94.97204204489228" y="104.0" name="BIYWFHCK"/>
    </contour>
    <contour>
      <point x="239.92893218813452" y="250.0" type="curve" name="RAUPZEOD"/>
      <point x="239.22182540694797" y="286.0" name="VKGBLWBA"/>
      <point x="240.63603896932108" y="320.0" name="TFRVISVQ"/>
      <point x="245.5857864376269" y="348.0" type="curve" name="BRBZPIBD"/>
      <point x="266.7989898732233" y="349.0" name="LHWLNCUW"/>
      <point x="289.42640687119285" y="349.0" name="OJDSNMMP"/>
      <point x="312.0538238691624" y="348.0" type="curve" name="BUNDUIBA"/>
      <point x="307.10407640085657" y="320.0" name="CWVCUAOR"/>
      <point x="305.68986283848346" y="286.0" name="OVZJSFNT"/>
      <point x="306.39696961967" y="250.0" type="curve" name="GVYDDTEE"/>
      <point x="283.7695526217005" y="251.0" name="IMQSBGIH"/>
      <point x="261.14213562373095" y="251.0" name="TMZKKUZW"/>
    </contour>
  </outline>
</glyph>
<glyph name="dollar" format="2">
  <advance width="354"/>
  <unicode hex="0024"/>
  <outline>
    <contour>
      <point x="250.53910524340097" y="-301.0" type="curve" name="ZAGRTNSJ"/>
      <point x="282.3589103967956" y="-297.0" name="EICBBQUM"/>
      <point x="317.0071426749364" y="-295.0" name="SHTPMGHM"/>
      <point x="353.06958851545033" y="-297.0" type="curve" name="NMACNBYN"/>
      <point x="331.8563850798539" y="-222.0" name="EDCFAUDZ"/>
      <point x="312.76450198781714" y="-151.0" name="YOSINWZG"/>
      <point x="297.91525958289964" y="-85.0" type="curve" name="JZHKVZNH"/>
      <point x="363.6761902332486" y="-58.0" name="AVCWHYHG"/>
      <point x="399.0315292925759" y="22.0" name="CJYARFMH"/>
      <point x="381.35385976291224" y="152.0" type="curve" smooth="yes" name="PVUOMIME"/>
      <point x="346.7056274847714" y="413.0" name="LAWAMVYK"/>
      <point x="169.92893218813452" y="376.0" name="FXTQNYJJ"/>
      <point x="181.2426406871193" y="429.0" type="curve" smooth="yes" name="YGPIJCWU"/>
      <point x="189.72792206135784" y="465.0" name="OHXUUEIT"/>
      <point x="261.14570696119915" y="477.0" name="ZWSSOQPW"/>
      <point x="356.60512242138304" y="412.0" type="curve" name="CHCCOQBN"/>
      <point x="365.79751057680824" y="454.0" name="UUUCPAJH"/>
      <point x="381.35385976291224" y="489.0" name="EZKHXECD"/>
      <point x="402.56706319850866" y="514.0" type="curve" name="NXOWOOCB"/>
      <point x="379.23253941935263" y="524.0" name="VZABVVAZ"/>
      <point x="355.89801564019655" y="531.0" name="GQWTMJUK"/>
      <point x="333.270598642227" y="535.0" type="curve" name="ASJGWRTT"/>
      <point x="350.94826817189073" y="551.0" name="QQKODUTR"/>
      <point x="372.1614716074871" y="562.0" name="FAEKMUDV"/>
      <point x="396.20310216782974" y="569.0" type="curve" name="WRKHCJIV"/>
      <point x="358.01933598375615" y="574.0" name="BUXECKUN"/>
      <point x="321.2497833620557" y="575.0" name="BTAZDEZK"/>
      <point x="288.01576464628795" y="573.0" type="curve" name="FMXEZEIY"/>
      <point x="263.2670273047588" y="564.0" name="KGRLNUFP"/>
      <point x="242.0538238691624" y="551.0" name="EOEVSQMJ"/>
      <point x="222.96194077712562" y="534.0" type="curve" name="DTSCLCWU"/>
      <point x="148.7157287525381" y="519.0" name="TTIEXQBH"/>
      <point x="86.49033200812192" y="478.0" name="YZQXVBJP"/>
      <point x="70.93398282201787" y="405.0" type="curve" smooth="yes" name="DLGBQVLD"/>
      <point x="36.28575054387704" y="249.0" name="AJCTVMPR"/>
      <point x="230.7401153701776" y="260.0" name="AFSHLTVA"/>
      <point x="242.0538238691624" y="174.0" type="curve" smooth="yes" name="SJMNGZXC"/>
      <point x="250.53910524340097" y="108.0" name="BBESPOKR"/>
      <point x="160.73654403270942" y="113.0" name="BIXABFTD"/>
      <point x="75.88373029032368" y="152.0" type="curve" name="GZNXAGAH"/>
      <point x="85.07611844574882" y="84.0" name="JLAYKLAH"/>
      <point x="99.92536085066632" y="6.0" name="YBTVREMU"/>
      <point x="121.13856428626275" y="-79.0" type="curve" name="YOOUGNKJ"/>
      <point x="146.59440840897847" y="-88.0" name="LTQHPCXR"/>
      <point x="172.7573593128807" y="-95.0" name="GQOTVRUW"/>
      <point x="196.79898987322332" y="-96.0" type="curve" name="VLRGUPRO"/>
      <point x="211.64823227814082" y="-160.0" name="RECLDHMV"/>
      <point x="230.03300858899104" y="-229.0" name="QWFPHYMV"/>
    </contour>
  </outline>
</glyph>
<glyph name="ampersand" format="2">
  <advance width="448"/>
  <unicode hex="0026"/>
  <outline>
    <contour>
      <point x="443.91020894901635" y="127.0" type="curve" name="OLYDLOLB"/>
      <point x="438.9604614807105" y="158.0" name="SEYTAIHH"/>
      <point x="434.71782079359116" y="188.0" name="HNPQLUMG"/>
      <point x="432.5965004500315" y="215.0" type="curve" name="LEVLHWLP"/>
      <point x="448.8599564173221" y="212.0" name="KLDPMPTF"/>
      <point x="467.2447327281724" y="208.0" name="UPXLESTW"/>
      <point x="484.21529547664954" y="204.0" type="curve" name="AGYZSCIP"/>
      <point x="479.26554800834367" y="260.0" name="LOOXQODW"/>
      <point x="479.26554800834367" y="310.0" name="FPVSLFOF"/>
      <point x="486.3366158202091" y="349.0" type="curve" name="OYVVUQSQ"/>
      <point x="469.36605307173204" y="353.0" name="KONDEUBP"/>
      <point x="450.98127676088177" y="357.0" name="TLBQPLIP"/>
      <point x="434.71782079359116" y="360.0" type="curve" name="ZFPSEZAV"/>
      <point x="438.2533546995239" y="379.0" name="NHDVZNJQ"/>
      <point x="442.49599538664324" y="398.0" name="IAGYZLPS"/>
      <point x="448.15284963613556" y="414.0" type="curve" name="WVTVBYSI"/>
      <point x="404.3122292025696" y="422.0" name="XWMXUONK"/>
      <point x="359.76450198781714" y="428.0" name="AXNWGHAB"/>
      <point x="320.16652224137044" y="430.0" type="curve" name="CRURPDLJ"/>
      <point x="313.8025612106915" y="415.0" name="KXUYYEOA"/>
      <point x="308.8528137423857" y="397.0" name="HNDRMFTL"/>
      <point x="306.0243866176395" y="377.0" type="curve" name="DSZGJMZO"/>
      <point x="233.19238815542514" y="381.0" name="UYHJWJRZ"/>
      <point x="196.42283553372465" y="387.0" name="PTSHXIEK"/>
      <point x="205.6152236891498" y="415.0" type="curve" smooth="yes" name="UNRQCLLR"/>
      <point x="219.05025253169418" y="459.0" name="FRAXTEEA"/>
      <point x="308.8528137423857" y="466.0" name="ZHJQPKOV"/>
      <point x="386.63455967290594" y="435.0" type="curve" name="VVGGBXZK"/>
      <point x="401.48380207782344" y="468.0" name="JQECYSPJ"/>
      <point x="424.111219075793" y="491.0" name="RCKYHZQE"/>
      <point x="453.10259710444143" y="504.0" type="curve" name="OVKOGSBR"/>
      <point x="325.1162697096763" y="535.0" name="NZPRKJZR"/>
      <point x="146.92536085066632" y="520.0" name="XKGXKBHJ"/>
      <point x="103.79184719828692" y="404.0" type="curve" smooth="yes" name="FXSJDSWO"/>
      <point x="88.94260479336941" y="365.0" name="KNPKYCNG"/>
      <point x="96.72077938642144" y="325.0" name="PRAHBBIJ"/>
      <point x="127.126370977443" y="295.0" type="curve" name="TBMZZMNJ"/>
      <point x="88.94260479336941" y="248.0" name="GGQDVSGK"/>
      <point x="76.21468273201157" y="179.0" name="MXDEEEHM"/>
      <point x="93.1852454804887" y="88.0" type="curve" smooth="yes" name="FWIOUPGG"/>
      <point x="124.29794385269679" y="-79.0" name="XVQZLTHM"/>
      <point x="230.36396103067892" y="-198.0" name="VNGLSEZM"/>
      <point x="330.7731239591687" y="-194.0" type="curve" smooth="yes" name="ZPJKZYBQ"/>
      <point x="438.2533546995239" y="-190.0" name="LUOLIFWV"/>
      <point x="472.9015869776647" y="-49.0" name="SJHKVWCM"/>
      <point x="443.91020894901635" y="127.0" type="curve" name="RLVSUPRB"/>
      <point x="443.91020894901635" y="127.0" name="GWMXPELA"/>
      <point x="443.91020894901635" y="127.0" name="OHYEVCZZ"/>
    </contour>
    <contour>
      <point x="194.301515190165" y="145.0" type="curve" name="AEBEWIII"/>
      <point x="181.57359312880715" y="221.0" name="FJRLNJFZ"/>
      <point x="223.29289321881345" y="236.0" name="ESAHYGHQ"/>
      <point x="303.9030662740799" y="232.0" type="curve" name="SQWEQRYF"/>
      <point x="306.0243866176395" y="210.0" name="JLOWKAPI"/>
      <point x="308.8528137423857" y="186.0" name="KSCWBVGJ"/>
      <point x="312.3883476483185" y="162.0" type="curve" smooth="yes" name="BYVQCCKI"/>
      <point x="322.2878425849301" y="98.0" name="SRZOHAIX"/>
      <point x="305.31727983645294" y="58.0" name="KFXMBSOO"/>
      <point x="266.42640687119285" y="57.0" type="curve" smooth="yes" name="VKNTVOTK"/>
      <point x="231.07106781186548" y="55.0" name="SMYMZZXZ"/>
      <point x="202.07968978321702" y="95.0" name="EKVLGSTN"/>
      <point x="194.301515190165" y="145.0" type="curve" name="FIIVXLHC"/>
      <point x="194.301515190165" y="145.0" name="LGZUXSCN"/>
      <point x="194.301515190165" y="145.0" name="XYAENUJU"/>
    </contour>
  </outline>
</glyph>
<glyph name="quotesingle" format="2">
  <advance width="211"/>
  <unicode hex="0027"/>
  <outline>
    <contour>
      <point x="161.71498910433053" y="248.0" type="curve" name="JGTRZAPL"/>
      <point x="189.29215357060588" y="256.0" name="HONEDBDD"/>
      <point x="222.5261722863736" y="256.0" name="AZTCUOZT"/>
      <point x="261.41704525163374" y="248.0" type="curve" name="QPBVZXCK"/>
      <point x="212.62667734976196" y="415.0" name="IQWPWNJX"/>
      <point x="216.16221125569473" y="510.0" name="SKIUGXAW"/>
      <point x="272.73075375061853" y="528.0" type="curve" name="UKBAWALT"/>
      <point x="225.3545994111198" y="539.0" name="PCPBNEXQ"/>
      <point x="185.0495128834866" y="539.0" name="CNPISUNK"/>
      <point x="153.22970773009195" y="528.0" type="curve" name="GZUKBZVK"/>
      <point x="103.73223304703362" y="510.0" name="SBGHDKGK"/>
      <point x="105.85355339059328" y="415.0" name="RXNEVKJO"/>
    </contour>
  </outline>
</glyph>
<glyph name="parenleft" format="2">
  <advance width="326"/>
  <unicode hex="0028"/>
  <outline>
    <contour>
      <point x="43" y="274" type="curve" name="RSMPYDZB"/>
      <point x="43" y="-35" name="BTKVQRFF"/>
      <point x="275" y="-333" name="HTNSLNRR"/>
      <point x="466" y="-420" type="curve" name="DPHTZKAV"/>
      <point x="439" y="-332" name="SIUDKENB"/>
      <point x="414" y="-245" name="SCHHESKV"/>
      <point x="395" y="-169" type="curve" name="PDXUWWRV"/>
      <point x="263" y="-88" name="NLXCFGCY"/>
      <point x="147" y="77" name="PZDRSFCT"/>
      <point x="147" y="294" type="curve" smooth="yes" name="KEZVIHSS"/>
      <point x="147" y="511" name="INWVQWRK"/>
      <point x="263" y="536" name="WLZEAFML"/>
      <point x="395" y="523" type="curve" name="MWKIPRTY"/>
      <point x="414" y="545" name="GMANSJJU"/>
      <point x="439" y="562" name="BOQKWZGT"/>
      <point x="466" y="572" type="curve" name="MVPRRIMG"/>
      <point x="275" y="609" name="MRXXNJYT"/>
      <point x="43" y="583" name="WPCWGXNN"/>
      <point x="43" y="274" type="curve" name="KZZEFDLR"/>
      <point x="43" y="274" name="RCIOCJMT"/>
      <point x="43" y="274" name="FDKPBVNI"/>
    </contour>
  </outline>
</glyph>
<glyph name="parenright" format="2">
  <advance width="326"/>
  <unicode hex="0029"/>
  <outline>
    <contour>
      <point x="326" y="275" type="curve" name="XGBHGHRA"/>
      <point x="326" y="584" name="FKWHARGP"/>
      <point x="287" y="610" name="SBBAMCWR"/>
      <point x="183" y="573" type="curve" name="PNUWLXYH"/>
      <point x="155" y="563" name="MMWQNHNC"/>
      <point x="131" y="546" name="KMXNECFG"/>
      <point x="111" y="524" type="curve" name="QRJBJARE"/>
      <point x="176" y="537" name="BEPLNOWT"/>
      <point x="193" y="512" name="UFJLWYKL"/>
      <point x="193" y="295" type="curve" smooth="yes" name="JKEQPEMW"/>
      <point x="193" y="78" name="WHPUHNIX"/>
      <point x="176" y="-87" name="KLBSQHPH"/>
      <point x="111" y="-168" type="curve" name="DDJSHQXZ"/>
      <point x="131" y="-246" name="IZPYNESK"/>
      <point x="155" y="-329" name="RFIMKJKD"/>
      <point x="183" y="-419" type="curve" name="HZRNNSOF"/>
      <point x="287" y="-332" name="JVZATBAF"/>
      <point x="326" y="-34" name="KSKPBKAF"/>
      <point x="326" y="275" type="curve" name="QIZHBXAU"/>
      <point x="326" y="275" name="LQGVBOEM"/>
      <point x="326" y="275" name="PFOXVISJ"/>
    </contour>
  </outline>
</glyph>
<glyph name="asterisk" format="2">
  <advance width="434"/>
  <unicode hex="002A"/>
  <outline>
    <contour>
      <point x="364.78531726798843" y="46.0" type="curve" name="FFHRGOMM"/>
      <point x="381.04877323527904" y="86.0" name="UZFLNKYJ"/>
      <point x="402.26197667087547" y="123.0" name="ZTPRJZXJ"/>
      <point x="424.88939366884495" y="154.0" type="curve" name="ACGAPFRG"/>
      <point x="394.48380207782344" y="212.0" name="BZJAICWJ"/>
      <point x="366.9066376115481" y="266.0" name="FBNRWLZB"/>
      <point x="345.69343417595167" y="311.0" type="curve" name="GMKOMGEH"/>
      <point x="377.51323932934633" y="307.0" name="KBAYRHIU"/>
      <point x="411.45436482630055" y="301.0" name="QPYQDXSR"/>
      <point x="446.809703885628" y="292.0" type="curve" name="UUDLEPMR"/>
      <point x="439.0315292925759" y="350.0" name="SEKFHIVD"/>
      <point x="438.32442251138946" y="399.0" name="GZZMISKQ"/>
      <point x="446.809703885628" y="434.0" type="curve" name="DWHNQTPB"/>
      <point x="411.45436482630055" y="443.0" name="IXNYPMRU"/>
      <point x="377.51323932934633" y="449.0" name="GWNFGDAQ"/>
      <point x="345.69343417595167" y="453.0" type="curve" name="QUANJNCE"/>
      <point x="366.9066376115481" y="478.0" name="OISNPGWN"/>
      <point x="394.48380207782344" y="498.0" name="GCIYGNGW"/>
      <point x="424.88939366884495" y="510.0" type="curve" name="AOCYRNRK"/>
      <point x="401.5548698896889" y="526.0" name="KGJRFJTK"/>
      <point x="381.04877323527904" y="538.0" name="AEXIOPHT"/>
      <point x="364.78531726798843" y="544.0" type="curve" name="VPYELFBS"/>
      <point x="329.42997820866105" y="538.0" name="IEXVTJFF"/>
      <point x="297.61017305526644" y="525.0" name="ESNZHAXF"/>
      <point x="271.44722215136414" y="506.0" type="curve" name="DOIWJUZF"/>
      <point x="268.618795026618" y="526.0" name="JOOJUJEQ"/>
      <point x="270.03300858899104" y="538.0" name="BXUHIUAW"/>
      <point x="277.10407640085657" y="544.0" type="curve" name="MANUSTZA"/>
      <point x="236.79898987322332" y="538.0" name="LFSAKWWH"/>
      <point x="198.6152236891498" y="525.0" name="GSJRRURS"/>
      <point x="164.6740981921955" y="510.0" type="curve" name="YEQYGALT"/>
      <point x="162.55277784863583" y="498.0" name="ELTGQAEK"/>
      <point x="166.08831175456856" y="478.0" name="YEHBKXXW"/>
      <point x="173.15937956643404" y="453.0" type="curve" name="POYOMHXQ"/>
      <point x="146.9964286625318" y="449.0" name="VEHGOATT"/>
      <point x="121.54058453981608" y="443.0" name="IATJOIQL"/>
      <point x="98.91316754184658" y="434.0" type="curve" name="RGYQQERG"/>
      <point x="91.13499294879455" y="398.0" name="NXFNHKMD"/>
      <point x="90.427886167608" y="351.0" name="OEMWVWIE"/>
      <point x="98.91316754184658" y="292.0" type="curve" name="UEYTXBIY"/>
      <point x="121.54058453981608" y="301.0" name="RCHUHMWX"/>
      <point x="146.9964286625318" y="307.0" name="QMTFPXCH"/>
      <point x="173.15937956643404" y="311.0" type="curve" name="AKWRMYTX"/>
      <point x="166.08831175456856" y="266.0" name="LKVWNYWU"/>
      <point x="162.55277784863583" y="212.0" name="BLQVWOHL"/>
      <point x="164.6740981921955" y="154.0" type="curve" name="NOIOMVNO"/>
      <point x="197.90811690796323" y="124.0" name="SMWTJMHZ"/>
      <point x="236.79898987322332" y="86.0" name="DJINZNAE"/>
      <point x="277.10407640085657" y="46.0" type="curve" name="DLFRCZSO"/>
      <point x="270.03300858899104" y="112.0" name="SYUWTSKT"/>
      <point x="269.32590180780454" y="171.0" name="AEGJICLQ"/>
      <point x="271.44722215136414" y="224.0" type="curve" name="BVTGSCNI"/>
      <point x="296.9030662740799" y="172.0" name="XVGNKWQZ"/>
      <point x="329.42997820866105" y="112.0" name="NSGQMRSS"/>
    </contour>
  </outline>
</glyph>
<glyph name="comma" format="2">
  <advance width="211"/>
  <unicode hex="002C"/>
  <outline>
    <contour>
      <point x="128.4809703885628" y="-254.0" type="curve" name="WPMNRETJ"/>
      <point x="156.05813485483816" y="-245.0" name="UQRMTLXV"/>
      <point x="187.8779400082328" y="-242.0" name="BOKIADEX"/>
      <point x="223.9403858487467" y="-245.0" type="curve" name="ZQXWHILQ"/>
      <point x="189.29215357060588" y="-79.0" name="ELWHENXY"/>
      <point x="209.79825022501575" y="14.0" name="AFAXNOMY"/>
      <point x="282.63024868723016" y="28.0" type="curve" name="YCCNRZOT"/>
      <point x="235.25409434773144" y="39.0" name="WRWQIPVE"/>
      <point x="193.53479425772517" y="41.0" name="QMDWFXWP"/>
      <point x="158.1794551983978" y="35.0" type="curve" name="AZAETUBN"/>
      <point x="95.24695167279506" y="15.0" name="QJQTHNYJ"/>
      <point x="85.3474567361834" y="-84.0" name="GBCTBGII"/>
    </contour>
  </outline>
</glyph>
<glyph name="hyphen" format="2">
  <advance width="240"/>
  <unicode hex="002D"/>
  <outline>
    <contour>
      <point x="125" y="89" type="curve" name="RJKLKBOU"/>
      <point x="175" y="107" name="GEJSGJFC"/>
      <point x="240" y="107" name="CNZQCZFB"/>
      <point x="316" y="89" type="curve" name="KMBXQUUN"/>
      <point x="287" y="181" name="ZFINUYXN"/>
      <point x="287" y="234" name="BHINOBMH"/>
      <point x="316" y="244" type="curve" name="ZGEUODWB"/>
      <point x="240" y="262" name="ZZRWRQKW"/>
      <point x="175" y="262" name="LBIIDTUI"/>
      <point x="125" y="244" type="curve" name="OOMSGMPF"/>
      <point x="96" y="234" name="KRCXXAGZ"/>
      <point x="96" y="181" name="YVRQAGHL"/>
    </contour>
  </outline>
</glyph>
<glyph name="period" format="2">
  <advance width="205"/>
  <unicode hex="002E"/>
  <outline>
    <contour>
      <point x="198.3129688507772" y="-151.0" type="curve" name="EXTGIXRE"/>
      <point x="238.61805537841042" y="-151.0" name="EPKYJVOB"/>
      <point x="250.6388706585817" y="-73.0" name="UHSXEWGT"/>
      <point x="250.6388706585817" y="-16.0" type="curve" smooth="yes" name="ZIFBOYHD"/>
      <point x="250.6388706585817" y="40.0" name="RKMOFLAE"/>
      <point x="239.32516215959697" y="55.0" name="PUUQDLGA"/>
      <point x="198.3129688507772" y="56.0" type="curve" smooth="yes" name="XGSOSNKB"/>
      <point x="156.5936687607709" y="56.0" name="TVELTSDU"/>
      <point x="102.14644660940672" y="39.0" name="ONTYKQXU"/>
      <point x="101.43933982822017" y="-16.0" type="curve" smooth="yes" name="JTCPOVAJ"/>
      <point x="101.43933982822017" y="-73.0" name="QXXIUCOU"/>
      <point x="156.5936687607709" y="-151.0" name="QGLKMUEM"/>
      <point x="198.3129688507772" y="-151.0" type="curve" name="ZUBEQAZK"/>
      <point x="198.3129688507772" y="-151.0" name="HGUQBZJT"/>
      <point x="198.3129688507772" y="-151.0" name="KBRTQKEZ"/>
    </contour>
  </outline>
</glyph>
<glyph name="two" format="2">
  <advance width="380"/>
  <unicode hex="0032"/>
  <outline>
    <contour>
      <point x="175.1507575950825" y="-200.0" type="curve" name="AYLIFNWK"/>
      <point x="258.5893577750951" y="-170.0" name="VFTMKSWB"/>
      <point x="365.36248173426384" y="-170.0" name="JHHIDNEU"/>
      <point x="490.52038200428274" y="-199.0" type="curve" name="WKNMUIMP"/>
      <point x="460.82189719444773" y="-105.0" name="BFIKHYGP"/>
      <point x="437.4873734152916" y="-17.0" name="RAMMLTIO"/>
      <point x="421.2239174480011" y="58.0" type="curve" name="PKRGOGOC"/>
      <point x="360.41273426595797" y="72.0" name="ECKEVCWD"/>
      <point x="303.84419177103416" y="79.0" name="JLWGZAHO"/>
      <point x="252.93250352560273" y="79.0" type="curve" name="GNTOTGDR"/>
      <point x="264.9533188057741" y="119.0" name="MPVEEUFO"/>
      <point x="279.8025612106915" y="158.0" name="CLFFMPQO"/>
      <point x="297.48023074035524" y="190.0" type="curve" smooth="yes" name="YDDKDFLL"/>
      <point x="351.2203461105329" y="292.0" name="CMYBOOSL"/>
      <point x="394.35385976291224" y="341.0" name="ZEIBAUQL"/>
      <point x="412.0315292925759" y="399.0" type="curve" smooth="yes" name="DMFSSHPV"/>
      <point x="448.80108191427644" y="511.0" name="XDSCYARJ"/>
      <point x="359.7056274847714" y="560.0" name="EUWTYEAK"/>
      <point x="162.42283553372465" y="485.0" type="curve" name="DFXQSYDJ"/>
      <point x="134.13856428626275" y="470.0" name="MISVOMMN"/>
      <point x="112.92536085066632" y="443.0" name="XFTYIJWQ"/>
      <point x="100.19743878930848" y="406.0" type="curve" name="GILVJMWW"/>
      <point x="190.0" y="468.0" name="QCRVVPMV"/>
      <point x="281.2167747730646" y="457.0" name="AIXCRONU"/>
      <point x="267.78174593052023" y="410.0" type="curve" smooth="yes" name="OCRFJLYM"/>
      <point x="260.71067811865476" y="387.0" name="XNTSXQWF"/>
      <point x="233.1335136523794" y="372.0" name="SCXRPQVC"/>
      <point x="177.27207793864216" y="271.0" type="curve" smooth="yes" name="NKNJWGIC"/>
      <point x="144.74516600406096" y="213.0" name="RIBDUUVN"/>
      <point x="119.9964286625318" y="141.0" name="RGSUZDRN"/>
      <point x="105.85429303880085" y="57.0" type="curve" name="VVPYJTQE"/>
      <point x="122.11774900609143" y="-18.0" name="IQEDDVWP"/>
      <point x="145.4522727852475" y="-106.0" name="KNAOQMSP"/>
    </contour>
  </outline>
</glyph>
<glyph name="six" format="2">
  <advance width="399"/>
  <unicode hex="0036"/>
  <outline>
    <contour>
      <point x="407.0358402782517" y="411.0" type="curve" name="VHGZTSVD"/>
      <point x="421.1779759019827" y="448.0" name="CTQLOTQR"/>
      <point x="445.21960646232526" y="473.0" name="QLOCYIZJ"/>
      <point x="474.91809127216027" y="488.0" type="curve" name="BAUSJAAO"/>
      <point x="286.82768747653864" y="550.0" name="FBFBIZJE"/>
      <point x="54.189556466164476" y="559.0" name="QCTCWOPB"/>
      <point x="62.67483784040306" y="255.0" type="curve" smooth="yes" name="DJEYSBMJ"/>
      <point x="69.03879887108198" y="28.0" name="UGXTHIMQ"/>
      <point x="220.35965004500315" y="-189.0" name="ZJXOXMYB"/>
      <point x="330.66830791010455" y="-190.0" type="curve" smooth="yes" name="BZFKAFSY"/>
      <point x="439.56275221283295" y="-190.0" name="KERHMUBF"/>
      <point x="462.1901692108024" y="-15.0" name="AZJRATWR"/>
      <point x="438.8556454316464" y="157.0" type="curve" smooth="yes" name="AAXPLHXW"/>
      <point x="402.08609280994585" y="426.0" name="ZXLBETSU"/>
      <point x="263.49316369738256" y="448.0" name="CKZJPTLL"/>
      <point x="173.690602486691" y="363.0" type="curve" name="RFKAYIUN"/>
      <point x="194.1966991411009" y="462.0" name="PWLJUNRL"/>
      <point x="308.7479976933216" y="474.0" name="KKYPNSVA"/>
      <point x="407.0358402782517" y="411.0" type="curve" name="HJKZUOLT"/>
      <point x="407.0358402782517" y="411.0" name="USABNJRZ"/>
      <point x="407.0358402782517" y="411.0" name="OZOLBQTH"/>
    </contour>
    <contour>
      <point x="260.66473657263634" y="65.0" type="curve" name="XAEWDQPP"/>
      <point x="226.72361107568207" y="65.0" name="AYAWEERZ"/>
      <point x="192.7824855787278" y="116.0" name="DTVJRMWR"/>
      <point x="184.29720420448922" y="180.0" type="curve" smooth="yes" name="FXJJYOZH"/>
      <point x="175.81192283025064" y="241.0" name="GXVXUJRH"/>
      <point x="197.02512626584706" y="277.0" name="XLLNRHZC"/>
      <point x="230.9662517628014" y="277.0" type="curve" smooth="yes" name="LGPCOKXW"/>
      <point x="266.32159082212877" y="276.0" name="HCJXTHRO"/>
      <point x="291.77743494484446" y="240.0" name="GSUWATDW"/>
      <point x="300.9698231002696" y="176.0" type="curve" smooth="yes" name="BMHADFTS"/>
      <point x="309.4551044745082" y="114.0" name="NDXTFIDZ"/>
      <point x="295.3129688507772" y="65.0" name="SBPZOSID"/>
      <point x="260.66473657263634" y="65.0" type="curve" name="DSVTVPHR"/>
      <point x="260.66473657263634" y="65.0" name="JTOPGHQW"/>
      <point x="260.66473657263634" y="65.0" name="WXMWCDYB"/>
    </contour>
  </outline>
</glyph>
<glyph name="seven" format="2">
  <advance width="368"/>
  <unicode hex="0037"/>
  <outline>
    <contour>
      <point x="485.2274887854693" y="481.0" type="curve" name="KMQGZMGG"/>
      <point x="357.94826817189073" y="511.0" name="SIQPHWRJ"/>
      <point x="249.0538238691624" y="511.0" name="GLPLJOOU"/>
      <point x="164.20101012677668" y="481.0" type="curve" name="JLQVUETO"/>
      <point x="135.20963209812822" y="470.0" name="IDLBPJSD"/>
      <point x="111.16800153778559" y="449.0" name="WTNOOJGA"/>
      <point x="95.61165235168156" y="419.0" type="curve" name="DOPKQKLJ"/>
      <point x="146.52334059711296" y="437.0" name="ETPMSRKF"/>
      <point x="207.3345237791561" y="445.0" name="CGLYGEDK"/>
      <point x="273.8025612106915" y="441.0" type="curve" name="ZMGPJTLO"/>
      <point x="165.61522368914976" y="346.0" name="NIZNICTW"/>
      <point x="138.74516600406096" y="130.0" name="VAAASUNA"/>
      <point x="190.36396103067892" y="-191.0" type="curve" name="ZYUMHCEX"/>
      <point x="225.7193000900063" y="-182.0" name="EHBDJDVQ"/>
      <point x="266.0243866176395" y="-177.0" name="JDMSSOMK"/>
      <point x="307.7436867076458" y="-177.0" type="curve" name="ENQLVAGF"/>
      <point x="263.9030662740799" y="133.0" name="OLOSUCDY"/>
      <point x="300.6726188957804" y="335.0" name="TFFHGPQG"/>
      <point x="416.63813101037414" y="419.0" type="curve" name="UTQTYLRJ"/>
      <point x="432.1944801964782" y="449.0" name="QFMGRSTW"/>
      <point x="456.23611075682084" y="470.0" name="JULLWORY"/>
    </contour>
  </outline>
</glyph>
<glyph name="eight" format="2">
  <advance width="396"/>
  <unicode hex="0038"/>
  <outline>
    <contour>
      <point x="325.27922061357856" y="-194.0" type="curve" name="KBUBFHPG"/>
      <point x="427.809703885628" y="-194.0" name="QPNMRYIC"/>
      <point x="467.4076836320746" y="-56.0" name="KYSCOTXF"/>
      <point x="438.41630560342617" y="113.0" type="curve" smooth="yes" name="YDJGHXSV"/>
      <point x="422.15284963613556" y="207.0" name="IFYEPQXR"/>
      <point x="394.5756851698602" y="266.0" name="ZHDJNVHI"/>
      <point x="354.270598642227" y="304.0" type="curve" name="AQKNZXGT"/>
      <point x="388.91883092036784" y="328.0" name="SZQDMXWS"/>
      <point x="413.66756826189703" y="365.0" name="TZERAWVT"/>
      <point x="427.809703885628" y="406.0" type="curve" smooth="yes" name="VAMDZKMS"/>
      <point x="456.80108191427644" y="485.0" name="FQSMXGKG"/>
      <point x="422.8599564173221" y="516.0" name="VMNFNHJM"/>
      <point x="325.27922061357856" y="516.0" type="curve" smooth="yes" name="XUXXQFPF"/>
      <point x="226.2842712474619" y="517.0" name="MCJGMCWF"/>
      <point x="115.97561338236048" y="485.0" name="LTBFQOUK"/>
      <point x="86.98423535371205" y="406.0" type="curve" smooth="yes" name="ULQTYSNN"/>
      <point x="72.8420997299811" y="365.0" name="NIPIRNPN"/>
      <point x="84.86291501015239" y="328.0" name="YGWRDDWS"/>
      <point x="111.02586591405463" y="305.0" type="curve" name="APHUHYPL"/>
      <point x="79.20606076066002" y="266.0" name="XDRCQYRV"/>
      <point x="61.528391230996306" y="207.0" name="NISLKRYO"/>
      <point x="77.79184719828692" y="113.0" type="curve" smooth="yes" name="LLRUSTBZ"/>
      <point x="106.78322522693537" y="-56.0" name="EHQHSZYO"/>
      <point x="220.62741699796953" y="-193.0" name="XSDSVURN"/>
      <point x="325.27922061357856" y="-194.0" type="curve" name="WJBLHDJX"/>
      <point x="325.27922061357856" y="-194.0" name="EBEJCLPG"/>
      <point x="325.27922061357856" y="-194.0" name="PVWVBKKA"/>
    </contour>
    <contour>
      <point x="229.11269837220811" y="374.0" type="curve" name="ZAQAIGHJ"/>
      <point x="199.4142135623731" y="374.0" name="CIVGMWAF"/>
      <point x="182.44365081389594" y="395.0" name="XZVZHCXL"/>
      <point x="190.92893218813452" y="420.0" type="curve" smooth="yes" name="DSECROYX"/>
      <point x="198.70710678118655" y="445.0" name="XBGXYRAY"/>
      <point x="226.2842712474619" y="460.0" name="EWUOWYKQ"/>
      <point x="257.39696961967" y="459.0" type="curve" smooth="yes" name="FPVWOYYC"/>
      <point x="287.095454429505" y="459.0" name="DHGBJANF"/>
      <point x="299.1162697096763" y="445.0" name="IBEERCKA"/>
      <point x="291.3380951166243" y="420.0" type="curve" smooth="yes" name="PPVWEHNL"/>
      <point x="282.8528137423857" y="395.0" name="ZKKPULDI"/>
      <point x="258.81118318204307" y="374.0" name="IPRJNQGN"/>
      <point x="229.11269837220811" y="374.0" type="curve" name="HPPEOEWS"/>
      <point x="229.11269837220811" y="374.0" name="SKHXWLGH"/>
      <point x="229.11269837220811" y="374.0" name="DNWUTNAT"/>
    </contour>
    <contour>
      <point x="257.39696961967" y="55.0" type="curve" name="XNNDENAB"/>
      <point x="224.16295090390224" y="55.0" name="UBHENAIQ"/>
      <point x="189.51471862576142" y="99.0" name="HJXVERFE"/>
      <point x="181.02943725152284" y="154.0" type="curve" smooth="yes" name="OKJKBMXU"/>
      <point x="171.83704909609773" y="212.0" name="PYGNKWCF"/>
      <point x="193.05025253169418" y="248.0" name="HHHYTWDR"/>
      <point x="226.2842712474619" y="248.0" type="curve" smooth="yes" name="OWRLQZDY"/>
      <point x="258.81118318204307" y="248.0" name="MHUUSMOJ"/>
      <point x="287.095454429505" y="213.0" name="BDSGIIUR"/>
      <point x="296.99494936611666" y="154.0" type="curve" smooth="yes" name="KUPEAOES"/>
      <point x="306.1873375215418" y="98.0" name="DQHVGEYQ"/>
      <point x="289.9238815542512" y="55.0" name="ZXWWVHQJ"/>
      <point x="257.39696961967" y="55.0" type="curve" name="GMZKOZIW"/>
      <point x="257.39696961967" y="55.0" name="LGYNEEUJ"/>
      <point x="257.39696961967" y="55.0" name="MAZLRAPB"/>
    </contour>
  </outline>
</glyph>
<glyph name="colon" format="2">
  <advance width="205"/>
  <unicode hex="003A"/>
  <outline>
    <contour>
      <point x="150.22970773009195" y="259.0" type="curve" name="SBAASMEN"/>
      <point x="190.53479425772517" y="259.0" name="DJAWFMLD"/>
      <point x="237.2038418160373" y="288.0" name="KVQPCXWZ"/>
      <point x="257.00283168926063" y="317.0" type="curve" smooth="yes" name="ZHEZIDEE"/>
      <point x="276.80182156248395" y="345.0" name="BTYVHCYN"/>
      <point x="263.36679271993955" y="363.0" name="REAZRCCX"/>
      <point x="223.06170619230636" y="363.0" type="curve" smooth="yes" name="WIYGVHAM"/>
      <point x="181.34240610230006" y="363.0" name="BXFLJUSM"/>
      <point x="127.60229073212244" y="345.0" name="GZEOYDKC"/>
      <point x="107.80330085889909" y="317.0" type="curve" smooth="yes" name="NPDNCPLQ"/>
      <point x="87.29720420448922" y="289.0" name="GDQDLABA"/>
      <point x="108.51040764008565" y="259.0" name="UTFSNXYN"/>
      <point x="150.22970773009195" y="259.0" type="curve" name="TARETALK"/>
      <point x="150.22970773009195" y="259.0" name="GGOGZAIC"/>
      <point x="150.22970773009195" y="259.0" name="KCPRQPID"/>
    </contour>
    <contour>
      <point x="223.06170619230636" y="-186.0" type="curve" name="SFYLWLUS"/>
      <point x="263.36679271993955" y="-186.0" name="GXYPLBVN"/>
      <point x="276.80182156248395" y="-110.0" name="VKSCWFDF"/>
      <point x="257.00283168926063" y="-25.0" type="curve" smooth="yes" name="NOLMLALY"/>
      <point x="237.2038418160373" y="59.0" name="OUXIWZTN"/>
      <point x="190.53479425772517" y="124.0" name="XVILRCAJ"/>
      <point x="150.22970773009195" y="124.0" type="curve" smooth="yes" name="NWEZOLTF"/>
      <point x="108.51040764008565" y="124.0" name="BHLKOCBE"/>
      <point x="88.00431098567577" y="59.0" name="OXCPAXIT"/>
      <point x="107.80330085889909" y="-25.0" type="curve" smooth="yes" name="WTWHHSTG"/>
      <point x="127.60229073212244" y="-110.0" name="IRQDPPTR"/>
      <point x="181.34240610230006" y="-186.0" name="UUGSEHAW"/>
      <point x="223.06170619230636" y="-186.0" type="curve" name="IIOTDBLU"/>
      <point x="223.06170619230636" y="-186.0" name="ZOMWOMKD"/>
      <point x="223.06170619230636" y="-186.0" name="JITYHYFS"/>
    </contour>
  </outline>
</glyph>
<glyph name="semicolon" format="2">
  <advance width="205"/>
  <unicode hex="003B"/>
  <outline>
    <contour>
      <point x="150" y="260" type="curve" name="FRKLBKHJ"/>
      <point x="192" y="258" name="RMGKACAL"/>
      <point x="241" y="284" name="BNRWBBQR"/>
      <point x="263" y="310" type="curve" smooth="yes" name="NIJOPOVN"/>
      <point x="285" y="335" name="BQXTTLLD"/>
      <point x="270" y="354" name="AERUGHZX"/>
      <point x="229" y="355" type="curve" smooth="yes" name="BIWQEWSN"/>
      <point x="186" y="357" name="QGECEREN"/>
      <point x="132" y="340" name="TQQIZVJR"/>
      <point x="111" y="314" type="curve" smooth="yes" name="SRPPKMOS"/>
      <point x="89" y="288" name="NAUALLYY"/>
      <point x="108" y="261" name="AJDUCMSA"/>
      <point x="150" y="260" type="curve" name="QVFZSWKA"/>
      <point x="150" y="260" name="BAURKGLZ"/>
      <point x="150" y="260" name="ORDOFYUL"/>
    </contour>
    <contour>
      <point x="144" y="-290" type="curve" name="KDQHNOWX"/>
      <point x="171" y="-281" name="RDTBRVCK"/>
      <point x="203" y="-277" name="PRENRMWK"/>
      <point x="238" y="-279" type="curve" name="PPKCVYUP"/>
      <point x="203" y="-112" name="WMCOQZTP"/>
      <point x="193" y="23" name="QLDDGAFG"/>
      <point x="207" y="121" type="curve" name="GSPJZTXL"/>
      <point x="161" y="130" name="QPUSWZFV"/>
      <point x="119" y="132" name="MYBCBRHV"/>
      <point x="84" y="125" type="curve" name="FXXGOSCD"/>
      <point x="80" y="22" name="GWKYXTZF"/>
      <point x="101" y="-120" name="JHICTTAH"/>
    </contour>
  </outline>
</glyph>
<glyph name="less" format="2">
  <advance width="317"/>
  <unicode hex="003C"/>
  <outline>
    <contour>
      <point x="92.38551595905778" y="132.0" type="curve" name="NWFTIVSG"/>
      <point x="169.4601551083915" y="85.0" name="ROVYBGWD"/>
      <point x="276.9403858487467" y="-3.0" name="SJGXVYIM"/>
      <point x="408.4622471494446" y="-127.0" type="curve" name="SVFKFLPR"/>
      <point x="375.93533521486336" y="-23.0" name="IUGYYPUJ"/>
      <point x="354.01502499808043" y="68.0" name="VAMQCOAG"/>
      <point x="343.4084232802822" y="141.0" type="curve" name="PCRZPHAV"/>
      <point x="288.25409434773144" y="186.0" name="XUBOERXU"/>
      <point x="238.0495128834866" y="223.0" name="FFRBDBFV"/>
      <point x="196.3302127934803" y="249.0" type="curve" name="KFINWHQE"/>
      <point x="238.75661966467317" y="275.0" name="UWASGLZW"/>
      <point x="288.25409434773144" y="294.0" name="MGIIENDN"/>
      <point x="344.11553006146875" y="301.0" type="curve" name="CMQSKOSO"/>
      <point x="354.01502499808043" y="344.0" name="KOFWOQVR"/>
      <point x="376.6424419960499" y="371.0" name="XCEVIJCO"/>
      <point x="408.4622471494446" y="383.0" type="curve" name="TFLDSJWG"/>
      <point x="276.9403858487467" y="395.0" name="FTSYYWLH"/>
      <point x="169.4601551083915" y="369.0" name="UAFLHCID"/>
      <point x="92.38551595905778" y="304.0" type="curve" name="IFQEFEHG"/>
      <point x="81.7789142412596" y="262.0" name="PFWVNIMO"/>
      <point x="81.7789142412596" y="204.0" name="CPLPHDBD"/>
    </contour>
  </outline>
</glyph>
<glyph name="greater" format="2">
  <advance width="317"/>
  <unicode hex="003E"/>
  <outline>
    <contour>
      <point x="351.8937046545208" y="132.0" type="curve" name="NKYQILMH"/>
      <point x="341.2871029367226" y="204.0" name="DKPVVPVJ"/>
      <point x="341.2871029367226" y="262.0" name="JJMXFFEL"/>
      <point x="351.8937046545208" y="304.0" type="curve" name="DIHFBKCZ"/>
      <point x="262.0911434438292" y="369.0" name="TIASLCNZ"/>
      <point x="198.45153313703992" y="395.0" name="MIEBPUAG"/>
      <point x="163.09619407771257" y="383.0" type="curve" name="QBRVDKNG"/>
      <point x="131.27638892431793" y="371.0" name="ENMFUGNX"/>
      <point x="108.6489719263484" y="344.0" name="YGGBEDQT"/>
      <point x="98.74947698973673" y="301.0" type="curve" name="EVCHBXLQ"/>
      <point x="128.44796179957171" y="293.0" name="SUHCGVLB"/>
      <point x="164.51040764008565" y="275.0" name="VRYHSTCM"/>
      <point x="206.9368145112785" y="249.0" type="curve" name="VTEYVWWS"/>
      <point x="164.51040764008565" y="222.0" name="PNEOUZBZ"/>
      <point x="127.03374823719864" y="187.0" name="BKWHDQWS"/>
      <point x="98.04237020855018" y="141.0" type="curve" name="FUNDNLKI"/>
      <point x="108.6489719263484" y="68.0" name="JTHZRTYY"/>
      <point x="130.56928214313137" y="-23.0" name="DJTVZDHP"/>
      <point x="163.09619407771257" y="-127.0" type="curve" name="PZHGFQBN"/>
      <point x="198.45153313703992" y="-3.0" name="ARIOOEHR"/>
      <point x="262.0911434438292" y="85.0" name="YHHJOCJD"/>
    </contour>
  </outline>
</glyph>
<glyph name="question" format="2">
  <advance width="361"/>
  <unicode hex="003F"/>
  <outline>
    <contour>
      <point x="247.32159082212877" y="258.0" type="curve" name="ZOSSIYHU"/>
      <point x="322.98201640908934" y="287.0" name="XIEBKAGT"/>
      <point x="381.67187924757275" y="336.0" name="SQAUEZGN"/>
      <point x="407.83483015147505" y="405.0" type="curve" smooth="yes" name="QYOSXOGN"/>
      <point x="450.26123702266796" y="515.0" name="HYBECJRC"/>
      <point x="340.659685938753" y="552.0" name="WQSUAUQP"/>
      <point x="153.27638892431793" y="481.0" type="curve" name="MLOUHCIR"/>
      <point x="123.57790411448292" y="467.0" name="TQALSWJC"/>
      <point x="101.65759389769994" y="441.0" name="CMYTOWTF"/>
      <point x="87.51545827396899" y="405.0" type="curve" name="TUUEDXDJ"/>
      <point x="178.0251262658471" y="467.0" name="YVNEFVVV"/>
      <point x="283.38403666264264" y="455.0" name="YEOEYROI"/>
      <point x="269.2419010389117" y="413.0" type="curve" smooth="yes" name="GLHMBCHJ"/>
      <point x="261.4637264458597" y="388.0" name="CCHURJEM"/>
      <point x="216.20889244992065" y="382.0" name="ZOUBLWIN"/>
      <point x="134.18450583228113" y="359.0" type="curve" name="ZVCYRXLB"/>
      <point x="128.52765158278876" y="314.0" name="ORSGBPLC"/>
      <point x="130.6489719263484" y="256.0" name="QKBZULHP"/>
      <point x="139.13425330058698" y="191.0" type="curve" name="LVEAVNCE"/>
      <point x="173.7824855787278" y="196.0" name="FEFIQFEF"/>
      <point x="212.6733585439879" y="198.0" name="BUFNTQND"/>
      <point x="252.27133829043458" y="196.0" type="curve" name="JZTYJRJH"/>
      <point x="249.44291116568837" y="218.0" name="RFJTEDBA"/>
      <point x="248.02869760331532" y="239.0" name="OXNXHMWS"/>
    </contour>
    <contour>
      <point x="286.9195705685754" y="-196.0" type="curve" name="ASGKXENX"/>
      <point x="325.8104435338355" y="-194.0" name="BVGJFHWG"/>
      <point x="335.00283168926063" y="-112.0" name="MLCEEQCW"/>
      <point x="311.66830791010455" y="-22.0" type="curve" smooth="yes" name="VKVVGPNM"/>
      <point x="289.7479976933216" y="65.0" name="EJXNBWRB"/>
      <point x="243.07895013500945" y="130.0" name="DOVWZBLW"/>
      <point x="204.18807716974936" y="128.0" type="curve" smooth="yes" name="VAVFKBHP"/>
      <point x="163.88299064211614" y="126.0" name="RGVKFIUV"/>
      <point x="145.4982143312659" y="58.0" name="AKOPIYNG"/>
      <point x="167.41852454804888" y="-29.0" type="curve" smooth="yes" name="XVQCISFI"/>
      <point x="190.0459415460184" y="-118.0" name="HAOTOOUG"/>
      <point x="246.61448404094222" y="-198.0" name="ZQSAXJUZ"/>
      <point x="286.9195705685754" y="-196.0" type="curve" name="OGASZDWI"/>
      <point x="286.9195705685754" y="-196.0" name="SXFTMRHQ"/>
      <point x="286.9195705685754" y="-196.0" name="IGESHFZU"/>
    </contour>
  </outline>
</glyph>
<glyph name="A" format="2">
  <advance width="465"/>
  <unicode hex="0041"/>
  <outline>
    <contour>
      <point x="144" y="-204" type="curve" name="VSHALMGC"/>
      <point x="178" y="-193" name="WSVKSJHD"/>
      <point x="214" y="-184" name="PRFCIODM"/>
      <point x="251" y="-179" type="curve" name="JYCGCYYN"/>
      <point x="235" y="-100" name="KXFJSKKY"/>
      <point x="223" y="-28" name="KLUQNRFV"/>
      <point x="217" y="37" type="curve" name="UMRJARCX"/>
      <point x="266" y="43" name="NJOBXEGL"/>
      <point x="321" y="43" name="LHQYFAME"/>
      <point x="379" y="37" type="curve" name="XUPZKIVD"/>
      <point x="403" y="-28" name="ASHYXYAB"/>
      <point x="432" y="-100" name="WRRUGEOT"/>
      <point x="467" y="-179" type="curve" name="OXYNFWVH"/>
      <point x="511" y="-184" name="GIFICFXT"/>
      <point x="560" y="-193" name="NNGAJFQK"/>
      <point x="609" y="-204" type="curve" name="JHBKOGTE"/>
      <point x="424" y="213" name="VGBXJRGV"/>
      <point x="367" y="454" name="HGSPTSWA"/>
      <point x="441" y="504" type="curve" name="JSDVVQLS"/>
      <point x="381" y="510" name="ZKROCOOS"/>
      <point x="324" y="510" name="BFJNYVVN"/>
      <point x="272" y="504" type="curve" name="DSLSPMIN"/>
      <point x="101" y="454" name="FEBOBFIY"/>
      <point x="57" y="213" name="YYKGVVQI"/>
    </contour>
    <contour>
      <point x="212" y="236" type="curve" name="DKNCFITY"/>
      <point x="220" y="327" name="WIIRQLBW"/>
      <point x="245" y="397" name="LBPCAXFS"/>
      <point x="284" y="444" type="curve" name="OHLZNRVZ"/>
      <point x="277" y="397" name="HEMNQQMC"/>
      <point x="287" y="328" name="FJGHROUE"/>
      <point x="312" y="236" type="curve" name="LUQYXVRA"/>
      <point x="277" y="238" name="WQNSCEAO"/>
      <point x="244" y="238" name="DUARTBAJ"/>
    </contour>
  </outline>
</glyph>
<glyph name="B" format="2">
  <advance width="422"/>
  <unicode hex="0042"/>
  <outline>
    <contour>
      <point x="188.37258300203047" y="-201.0" type="curve" name="PREMTKUC"/>
      <point x="236.4558441227157" y="-184.0" name="XZNIORGI"/>
      <point x="292.31727983645294" y="-175.0" name="CUSCTVGN"/>
      <point x="353.12846301849606" y="-176.0" type="curve" smooth="yes" name="BTAHLMPY"/>
      <point x="455.6589462905455" y="-176.0" name="PBRFAZYE"/>
      <point x="491.0142853498728" y="-49.0" name="BWTZHLCV"/>
      <point x="462.7300141024109" y="112.0" type="curve" smooth="yes" name="SGQRICLU"/>
      <point x="447.8807716974934" y="197.0" name="NBTLGZKT"/>
      <point x="419.5965004500315" y="261.0" name="AIFMWILV"/>
      <point x="375.04877323527904" y="302.0" type="curve" name="OHEFDYKF"/>
      <point x="409.69700551341987" y="326.0" name="QBPRUQNF"/>
      <point x="431.6173157302028" y="363.0" name="NHAQRQIJ"/>
      <point x="445.0523445727472" y="400.0" type="curve" smooth="yes" name="OATSSHPE"/>
      <point x="473.3366158202091" y="477.0" name="ZCASFRHF"/>
      <point x="442.93102422918764" y="505.0" name="OYASMSDS"/>
      <point x="346.0573952066306" y="504.0" type="curve" smooth="yes" name="XGISEHQQ"/>
      <point x="288.0746391493337" y="504.0" name="NESGJMYO"/>
      <point x="234.3345237791561" y="496.0" name="WHIYKDZW"/>
      <point x="188.37258300203047" y="479.0" type="curve" name="UIMXVPEG"/>
      <point x="61.09336238845191" y="435.0" name="OZHUUXTZ"/>
      <point x="61.09336238845191" y="203.0" name="DWCAGFJB"/>
    </contour>
    <contour>
      <point x="303.63098833543773" y="408.0" type="curve" name="QPHEVQQR"/>
      <point x="295.8528137423857" y="384.0" name="KNVYTYKM"/>
      <point x="276.76093065034894" y="366.0" name="JVJCFOJH"/>
      <point x="252.01219330881975" y="366.0" type="curve" smooth="yes" name="SZHWSJGW"/>
      <point x="235.04163056034264" y="366.0" name="VXTPARAU"/>
      <point x="218.07106781186548" y="365.0" name="DFMLIIBS"/>
      <point x="202.51471862576142" y="363.0" type="curve" name="VFVJDIDX"/>
      <point x="206.75735931288074" y="395.0" name="YOZLENNR"/>
      <point x="215.94974746830582" y="422.0" name="RYLCZBPH"/>
      <point x="227.2634559672906" y="444.0" type="curve" name="IEHUEXGZ"/>
      <point x="242.81980515339467" y="446.0" name="NIVZEDOV"/>
      <point x="259.7903679018718" y="447.0" name="CIEBYNNI"/>
      <point x="276.76093065034894" y="447.0" type="curve" smooth="yes" name="DVXLYXWL"/>
      <point x="301.5096679918781" y="447.0" name="MJAKXLTZ"/>
      <point x="310.7020561473032" y="433.0" name="XJDFYFBQ"/>
      <point x="303.63098833543773" y="408.0" type="curve" name="JRYUFHKG"/>
      <point x="303.63098833543773" y="408.0" name="ZQSWQTBT"/>
      <point x="303.63098833543773" y="408.0" name="INDATFPV"/>
    </contour>
    <contour>
      <point x="319.1873375215418" y="156.0" type="curve" name="ZMFBBKLX"/>
      <point x="326.9655121145938" y="106.0" name="MAIXYOSO"/>
      <point x="314.9446968344225" y="72.0" name="RHSWSRDE"/>
      <point x="284.53910524340097" y="73.0" type="curve" smooth="yes" name="AWMCBFRS"/>
      <point x="264.7401153701776" y="73.0" name="JWMLKQYI"/>
      <point x="245.64823227814082" y="72.0" name="HUJNWGGY"/>
      <point x="227.2634559672906" y="70.0" type="curve" name="JBGXUZVI"/>
      <point x="213.8284271247462" y="130.0" name="VPAUGDIX"/>
      <point x="205.34314575050763" y="184.0" name="VWIWBDRM"/>
      <point x="201.80761184457486" y="230.0" type="curve" name="YWZDRJZR"/>
      <point x="220.19238815542514" y="232.0" name="UPNIBIYO"/>
      <point x="239.2842712474619" y="233.0" name="MEJZRNOP"/>
      <point x="259.0832611206852" y="233.0" type="curve" smooth="yes" name="KFMSSIKD"/>
      <point x="289.4888527117068" y="232.0" name="WXQJTFBS"/>
      <point x="311.40916292848976" y="204.0" name="OKEDACTI"/>
      <point x="319.1873375215418" y="156.0" type="curve" name="GJWWKSNY"/>
      <point x="319.1873375215418" y="156.0" name="VOUFOJGK"/>
      <point x="319.1873375215418" y="156.0" name="IODTYRLI"/>
    </contour>
  </outline>
</glyph>
<glyph name="C" format="2">
  <advance width="414"/>
  <unicode hex="0043"/>
  <anchor x="257.0" y="517" name="center"/>
  <outline>
    <contour>
      <point x="66" y="278" type="curve" name="IVHAQPIE"/>
      <point x="66" y="22" name="ZXBMTVRH"/>
      <point x="309" y="-266" name="XWMQTRVA"/>
      <point x="510" y="-173" type="curve" name="FTCQKYXD"/>
      <point x="480" y="-75" name="HEWERGDG"/>
      <point x="457" y="14" name="XPFFQJFR"/>
      <point x="443" y="90" type="curve" name="JRKPBQWS"/>
      <point x="328" y="21" name="XHOODBZS"/>
      <point x="177" y="120" name="OSQCDQLO"/>
      <point x="177" y="301" type="curve" smooth="yes" name="RDQGGYDD"/>
      <point x="177" y="482" name="RTSNBEIU"/>
      <point x="328" y="487" name="NQPZGFTB"/>
      <point x="443" y="408" type="curve" name="VNVGUPGI"/>
      <point x="457" y="444" name="HERYZNUV"/>
      <point x="480" y="469" name="WKEVDROD"/>
      <point x="510" y="483" type="curve" name="LKUTTBMC"/>
      <point x="309" y="564" name="RQUKTEGG"/>
      <point x="66" y="534" name="FIXMFTEL"/>
      <point x="66" y="278" type="curve" name="CEHJKYUD"/>
      <point x="66" y="278" name="HARSATJI"/>
      <point x="66" y="278" name="AHRGHNMB"/>
    </contour>
  </outline>
</glyph>
<glyph name="D" format="2">
  <advance width="481"/>
  <unicode hex="0044"/>
  <outline>
    <contour>
      <point x="190" y="-203" type="curve" name="BKEYABKG"/>
      <point x="235" y="-187" name="QXTIYHOI"/>
      <point x="286" y="-177" name="KDRCVAGJ"/>
      <point x="341" y="-174" type="curve" smooth="yes" name="DLFNBILG"/>
      <point x="475" y="-168" name="VVYWQTWY"/>
      <point x="505" y="80" name="YGTCLKZA"/>
      <point x="506" y="274" type="curve" smooth="yes" name="ZQKFKCDO"/>
      <point x="506" y="468" name="SIJURBSY"/>
      <point x="475" y="512" name="AMDXFJTM"/>
      <point x="341" y="506" type="curve" smooth="yes" name="XMTGABFQ"/>
      <point x="286" y="503" name="YBRMIBXB"/>
      <point x="235" y="493" name="WZRQUGGX"/>
      <point x="190" y="477" type="curve" name="LVMRCACJ"/>
      <point x="63" y="433" name="KLVWJOFO"/>
      <point x="63" y="201" name="GTSMKTAM"/>
    </contour>
    <contour>
      <point x="272" y="445" type="curve" smooth="yes" name="AIXFDBQE"/>
      <point x="341" y="448" name="JWZSGGZS"/>
      <point x="363" y="403" name="KMBWWKRG"/>
      <point x="363" y="299" type="curve" smooth="yes" name="EXXSUGAG"/>
      <point x="363" y="194" name="TGYOAAEC"/>
      <point x="341" y="84" name="CDWCBPJA"/>
      <point x="272" y="81" type="curve" smooth="yes" name="XOGKZYJW"/>
      <point x="257" y="80" name="VSWPPHLM"/>
      <point x="242" y="78" name="XKAYWOZX"/>
      <point x="227" y="77" type="curve" name="NRTNRGFZ"/>
      <point x="191" y="248" name="CLCKRPEC"/>
      <point x="191" y="373" name="DPQEQFFP"/>
      <point x="227" y="441" type="curve" name="PSZMMABK"/>
      <point x="242" y="442" name="RYASSLLL"/>
      <point x="257" y="444" name="LIMYWSOJ"/>
    </contour>
  </outline>
</glyph>
<glyph name="E" format="2">
  <advance width="374"/>
  <unicode hex="0045"/>
  <outline>
    <contour>
      <point x="186.29289321881345" y="-198.0" type="curve" name="PDAFLQNB"/>
      <point x="262.66042558696057" y="-171.0" name="GDFUUZSP"/>
      <point x="360.2411613907042" y="-171.0" name="NEDVNIXW"/>
      <point x="474.7924599429248" y="-198.0" type="curve" name="DRPRIVMJ"/>
      <point x="445.80108191427644" y="-106.0" name="UKIQNIAA"/>
      <point x="422.46655813512035" y="-19.0" name="RDEAGHKJ"/>
      <point x="406.9102089490163" y="54.0" type="curve" name="UGKGNSSN"/>
      <point x="341.8563850798539" y="69.0" name="MDAOMBWA"/>
      <point x="281.04520189781084" y="76.0" name="JJBCYYOD"/>
      <point x="228.01219330881975" y="74.0" type="curve" name="WMYRFSYA"/>
      <point x="215.99137802864846" y="130.0" name="TDFAZVQY"/>
      <point x="207.50609665440987" y="182.0" name="LLXOIFZN"/>
      <point x="203.2634559672906" y="227.0" type="curve" name="XLWXDQHJ"/>
      <point x="251.34671708797583" y="229.0" name="SIOTYXSP"/>
      <point x="307.2081528017131" y="223.0" name="ADTLCMJL"/>
      <point x="365.19090885901" y="211.0" type="curve" name="QPOARFJV"/>
      <point x="359.5340546095176" y="269.0" name="FQCKGINH"/>
      <point x="360.94826817189073" y="318.0" name="AWWTSRNW"/>
      <point x="368.01933598375615" y="358.0" type="curve" name="INXNUUSP"/>
      <point x="310.0365799264593" y="370.0" name="JKOCUCQG"/>
      <point x="254.175144212722" y="376.0" name="XKMQQJBN"/>
      <point x="206.09188309203677" y="374.0" type="curve" name="PQTMBEPB"/>
      <point x="210.3345237791561" y="401.0" name="SFWDNOVI"/>
      <point x="218.11269837220811" y="423.0" name="SIJMOJNA"/>
      <point x="228.01219330881975" y="442.0" type="curve" name="LADEAHFF"/>
      <point x="281.04520189781084" y="444.0" name="BYOKPUZB"/>
      <point x="341.8563850798539" y="437.0" name="NTJADHOQ"/>
      <point x="406.9102089490163" y="422.0" type="curve" name="YXANJCYB"/>
      <point x="423.17366491630685" y="450.0" name="QTKOLTSK"/>
      <point x="445.80108191427644" y="472.0" name="JXHKQLDO"/>
      <point x="474.7924599429248" y="482.0" type="curve" name="BFADIJFL"/>
      <point x="360.2411613907042" y="509.0" name="FSSINZNX"/>
      <point x="262.66042558696057" y="509.0" name="OMBBQSLF"/>
      <point x="186.29289321881345" y="482.0" type="curve" name="HFYTEXJO"/>
      <point x="59.72077938642144" y="437.0" name="SCVUJSJG"/>
      <point x="59.72077938642144" y="205.0" name="YBTKRIWB"/>
    </contour>
  </outline>
</glyph>
<glyph name="F" format="2">
  <advance width="366"/>
  <unicode hex="0046"/>
  <outline>
    <contour>
      <point x="186" y="-198" type="curve" name="FXRIPEMK"/>
      <point x="219" y="-187" name="VLGQNGRP"/>
      <point x="256" y="-180" name="FCNDBTQS"/>
      <point x="295" y="-178" type="curve" name="JFBXQMZX"/>
      <point x="249" y="-29" name="GZQKMEJK"/>
      <point x="218" y="100" name="TCLSNDXY"/>
      <point x="206" y="201" type="curve" name="ZWDUHPXJ"/>
      <point x="254" y="203" name="CLBRSVSG"/>
      <point x="310" y="197" name="SJCHWJQK"/>
      <point x="368" y="185" type="curve" name="KLEYNLSW"/>
      <point x="360" y="245" name="UFCROLTU"/>
      <point x="360" y="297" name="ZXUEKVQB"/>
      <point x="365" y="340" type="curve" name="UWFEVBYG"/>
      <point x="307" y="352" name="DSEPKFLX"/>
      <point x="251" y="358" name="IXEFNRAI"/>
      <point x="203" y="356" type="curve" name="MGZGWUDH"/>
      <point x="207" y="389" name="OJRBUDBV"/>
      <point x="216" y="418" name="CXFKHKYW"/>
      <point x="227" y="441" type="curve" name="HISQWNJY"/>
      <point x="280" y="443" name="YYOCHLPH"/>
      <point x="341" y="436" name="LZZGOKOO"/>
      <point x="406" y="421" type="curve" name="SGMXMHKD"/>
      <point x="422" y="450" name="UYATJIKH"/>
      <point x="445" y="471" name="BVRJYRMH"/>
      <point x="474" y="482" type="curve" name="RZMEPEOB"/>
      <point x="360" y="509" name="AIVYAXFP"/>
      <point x="262" y="509" name="CDEWLYDO"/>
      <point x="186" y="482" type="curve" name="IRXVVCBV"/>
      <point x="59" y="437" name="RJMOEIKM"/>
      <point x="59" y="205" name="LHJLIALC"/>
    </contour>
  </outline>
</glyph>
<glyph name="G" format="2">
  <advance width="478"/>
  <unicode hex="0047"/>
  <outline>
    <contour>
      <point x="552.9554108468271" y="-132.0" type="curve" name="HREDDHVL"/>
      <point x="492.85133444597056" y="76.0" name="QXTAFFSJ"/>
      <point x="469.51681066681454" y="235.0" name="IENORUBX"/>
      <point x="483.6589462905455" y="338.0" type="curve" name="QOXCZIBD"/>
      <point x="405.17009357883865" y="357.0" name="FIJIUPGY"/>
      <point x="330.9238815542512" y="367.0" name="HHQJACXM"/>
      <point x="265.8700576850888" y="367.0" type="curve" name="LIVDMQLK"/>
      <point x="260.2132034355964" y="326.0" name="NCYPDDCR"/>
      <point x="260.920310216783" y="274.0" name="OHAFWLVY"/>
      <point x="266.57716446627535" y="217.0" type="curve" name="UXQQDNDF"/>
      <point x="293.44722215136414" y="216.0" name="JLIRAHDP"/>
      <point x="321.0243866176395" y="215.0" name="VGQASOXN"/>
      <point x="350.01576464628795" y="211.0" type="curve" name="IPMNEIXY"/>
      <point x="354.25840533340727" y="170.0" name="XYRWBXQC"/>
      <point x="361.32947314527274" y="124.0" name="OMFBNAWC"/>
      <point x="372.6431816442575" y="73.0" type="curve" name="XAZLVTJY"/>
      <point x="357.0868324581534" y="68.0" name="OCYMABID"/>
      <point x="339.40916292848976" y="67.0" name="DPMRIEJF"/>
      <point x="324.55992052357226" y="67.0" type="curve" smooth="yes" name="QZFNEZZJ"/>
      <point x="250.31370849898474" y="71.0" name="RRDYSZTW"/>
      <point x="175.36038969321072" y="188.0" name="WORFDSHE"/>
      <point x="175.36038969321072" y="302.0" type="curve" smooth="yes" name="KMZXZPEM"/>
      <point x="176.06749647439727" y="473.0" name="PKHOKEQK"/>
      <point x="318.9030662740799" y="503.0" name="MHCAUDNE"/>
      <point x="482.95183950935893" y="404.0" type="curve" name="BGXOXAES"/>
      <point x="497.0939751330899" y="440.0" name="OOJTVVII"/>
      <point x="518.3071785686864" y="467.0" name="DBNATENP"/>
      <point x="547.2985565973347" y="482.0" type="curve" name="VEHNJYTS"/>
      <point x="309.0035713374682" y="578.0" name="YTDBFZJD"/>
      <point x="65.0517318281093" y="529.0" name="KBKUAUIS"/>
      <point x="67.17305217166893" y="270.0" type="curve" smooth="yes" name="BNTSDMVF"/>
      <point x="69.29437251522859" y="6.0" name="FRMGVAWW"/>
      <point x="327.3883476483185" y="-301.0" name="QDASGGMT"/>
      <point x="552.9554108468271" y="-132.0" type="curve" name="HSJMEXAB"/>
      <point x="552.9554108468271" y="-132.0" name="RLRCQVYD"/>
      <point x="552.9554108468271" y="-132.0" name="KECUMIHF"/>
    </contour>
    <contour>
      <point x="439.111219075793" y="123.0" type="curve" name="INOZOWEA"/>
      <point x="437.69700551341987" y="123.0" name="JRPFZBLI"/>
      <point x="437.69700551341987" y="123.0" name="MINCCQOM"/>
      <point x="437.69700551341987" y="121.0" type="curve" name="CUMXKXEC"/>
      <point x="438.4041122946064" y="122.0" name="IVUMVMAS"/>
      <point x="437.69700551341987" y="123.0" name="UCDUEDLC"/>
    </contour>
  </outline>
</glyph>
<glyph name="H" format="2">
  <advance width="491"/>
  <unicode hex="0048"/>
  <outline>
    <contour>
      <point x="296.05813485483816" y="-178.0" type="curve" name="ODVUGDCL"/>
      <point x="245.14644660940672" y="-16.0" name="XYKDXSDL"/>
      <point x="213.3266414560121" y="123.0" name="HKDWFSAF"/>
      <point x="203.42714651940042" y="227.0" type="curve" name="JJHWQYEO"/>
      <point x="248.6819805153395" y="233.0" name="DIWHHGXT"/>
      <point x="300.3007755419574" y="233.0" name="OQKDLDGE"/>
      <point x="354.04089091213507" y="227.0" type="curve" name="WNONGHIJ"/>
      <point x="363.23327906756015" y="124.0" name="JWCSIQKU"/>
      <point x="395.76019100214137" y="-16.0" name="ASWHCXHX"/>
      <point x="446.67187924757275" y="-178.0" type="curve" name="UMEINCKW"/>
      <point x="490.5124996811387" y="-182.0" name="SLEZILHE"/>
      <point x="537.8886540206374" y="-190.0" name="SWZCYJAR"/>
      <point x="587.3861287036957" y="-202.0" type="curve" name="RDNRYSUW"/>
      <point x="460.8140148713037" y="201.0" name="EBPNOSHR"/>
      <point x="460.8140148713037" y="433.0" name="ZGHCGCWD"/>
      <point x="587.3861287036957" y="478.0" type="curve" name="UIMNTUSH"/>
      <point x="537.8886540206374" y="490.0" name="MMXVZIOS"/>
      <point x="490.5124996811387" y="498.0" name="IKXPEPGP"/>
      <point x="446.67187924757275" y="502.0" type="curve" name="CJEXRZRQ"/>
      <point x="400.7099384704472" y="486.0" name="QFKMAJVV"/>
      <point x="371.0114536606122" y="445.0" name="QVUPEVEZ"/>
      <point x="357.5764248180678" y="383.0" type="curve" name="QFFZOINW"/>
      <point x="304.54341622907674" y="388.0" name="OAYHKRSO"/>
      <point x="252.92462120245875" y="388.0" name="LKGLAQKQ"/>
      <point x="206.96268042533313" y="383.0" type="curve" name="PPPNJOSC"/>
      <point x="220.3977092678776" y="445.0" name="EYMCDXEV"/>
      <point x="250.09619407771254" y="486.0" name="VSNDMPUF"/>
      <point x="296.05813485483816" y="502.0" type="curve" name="UORGFGCU"/>
      <point x="257.87436867076457" y="498.0" name="OXOTERVF"/>
      <point x="221.81192283025064" y="490.0" name="YDMZCWTH"/>
      <point x="189.28501089566947" y="478.0" type="curve" name="YWEKHODN"/>
      <point x="62.71289706327744" y="433.0" name="EDJRDDAN"/>
      <point x="62.71289706327744" y="201.0" name="YULVFMBK"/>
      <point x="189.28501089566947" y="-202.0" type="curve" name="NBZJVERI"/>
      <point x="221.81192283025064" y="-190.0" name="NUXSLWAA"/>
      <point x="257.87436867076457" y="-182.0" name="RMDOEMYQ"/>
    </contour>
  </outline>
</glyph>
<glyph name="I" format="2">
  <advance width="229"/>
  <unicode hex="0049"/>
  <outline>
    <contour>
      <point x="188" y="-192" type="curve" name="SPPIOHRP"/>
      <point x="222" y="-181" name="NQSMQIHM"/>
      <point x="263" y="-181" name="QPBCQXBX"/>
      <point x="312" y="-192" type="curve" name="CINAQAHS"/>
      <point x="186" y="211" name="QDISZRUT"/>
      <point x="186" y="443" name="RMDFWLLA"/>
      <point x="312" y="488" type="curve" name="TKJXGBPB"/>
      <point x="263" y="499" name="APUHNJCV"/>
      <point x="222" y="499" name="LJOIDXAM"/>
      <point x="188" y="488" type="curve" name="LQQZJUDV"/>
      <point x="62" y="443" name="ASQZTTGE"/>
      <point x="62" y="211" name="HUHTXCRN"/>
    </contour>
  </outline>
</glyph>
<glyph name="K" format="2">
  <advance width="457"/>
  <unicode hex="004B"/>
  <outline>
    <contour>
      <point x="189.96268042533313" y="-203.0" type="curve" name="ETWCFZXM"/>
      <point x="222.48959235991435" y="-191.0" name="YYCWMXHL"/>
      <point x="258.5520382004283" y="-183.0" name="KHZTMROF"/>
      <point x="296.0286976033153" y="-178.0" type="curve" name="IUTXTCMK"/>
      <point x="242.99568901432423" y="-9.0" name="OYRJHHHE"/>
      <point x="211.17588386092956" y="132.0" name="BRWCQGQM"/>
      <point x="202.69060248669103" y="238.0" type="curve" name="JSXPWELR"/>
      <point x="255.72361107568207" y="137.0" name="OCVKKDMC"/>
      <point x="336.3337841309485" y="-3.0" name="RPOPRAQB"/>
      <point x="440.27848096537105" y="-176.0" type="curve" name="AUJVCJBA"/>
      <point x="491.897275991989" y="-180.0" name="QXNFZFFJ"/>
      <point x="548.4658184869128" y="-189.0" name="ZDCKHLQO"/>
      <point x="607.1556813253962" y="-203.0" type="curve" name="YYYDYPZV"/>
      <point x="465.73432508808673" y="27.0" name="RQDWSUZW"/>
      <point x="361.7896282536642" y="204.0" name="GRARKFGN"/>
      <point x="301.6855518528077" y="319.0" type="curve" name="YJNSCAAS"/>
      <point x="364.6180553784104" y="421.0" name="JZORATWH"/>
      <point x="465.73432508808673" y="474.0" name="YJEHPXHJ"/>
      <point x="596.5490796075981" y="480.0" type="curve" name="PVSXUMUK"/>
      <point x="542.1018574562338" y="492.0" name="QBALBOIN"/>
      <point x="487.65463530486966" y="501.0" name="KCRBJMDP"/>
      <point x="439.5713741841845" y="504.0" type="curve" name="VNZWTNME"/>
      <point x="339.16221125569473" y="491.0" name="AGIKXXQD"/>
      <point x="259.9662517628014" y="445.0" name="DNMZOCJY"/>
      <point x="204.81192283025064" y="368.0" type="curve" name="QZAXHVGY"/>
      <point x="216.12563132923543" y="439.0" name="DRPODOJY"/>
      <point x="247.2383297014435" y="484.0" name="SROXAQUK"/>
      <point x="296.0286976033153" y="502.0" type="curve" name="BJZSNNVE"/>
      <point x="258.5520382004283" y="497.0" name="RQGGPKJC"/>
      <point x="222.48959235991435" y="489.0" name="YUWDNGBX"/>
      <point x="189.96268042533313" y="477.0" type="curve" name="RAWPDBNE"/>
      <point x="63.390566592941155" y="432.0" name="HFXLCHGZ"/>
      <point x="63.390566592941155" y="200.0" name="TIYTSOKI"/>
    </contour>
  </outline>
</glyph>
<glyph name="L" format="2">
  <advance width="341"/>
  <unicode hex="004C"/>
  <outline>
    <contour>
      <point x="185.70279579551078" y="-198.0" type="curve" name="PCNWDEEQ"/>
      <point x="257.82768747653864" y="-172.0" name="IJAILIIM"/>
      <point x="351.16578259316293" y="-172.0" name="HBENTWWI"/>
      <point x="460.0602268958912" y="-198.0" type="curve" name="TEANIPRH"/>
      <point x="430.3617420860562" y="-104.0" name="UJAGJAGS"/>
      <point x="406.3201115257136" y="-15.0" name="JOKBPKGQ"/>
      <point x="390.76376233960957" y="59.0" type="curve" name="MXVRENFY"/>
      <point x="331.36679271993955" y="73.0" name="YJEPRHXW"/>
      <point x="274.79825022501575" y="80.0" name="WFMNZBKH"/>
      <point x="226.71498910433053" y="78.0" type="curve" name="EWVPKJFP"/>
      <point x="174.38908729652601" y="324.0" name="AQFSKTDG"/>
      <point x="198.43071785686863" y="467.0" name="FFMDJPGK"/>
      <point x="295.3043468794257" y="502.0" type="curve" name="NNOMSYHT"/>
      <point x="255.70636713297898" y="500.0" name="BAZXIZPD"/>
      <point x="218.22970773009195" y="494.0" name="LOPZYMQB"/>
      <point x="185.70279579551078" y="482.0" type="curve" name="AITIXISD"/>
      <point x="58.42357518193222" y="438.0" name="YKKVUBWF"/>
      <point x="58.42357518193222" y="206.0" name="LKMDMFVC"/>
    </contour>
  </outline>
</glyph>
<glyph name="N" format="2">
  <advance width="491"/>
  <unicode hex="004E"/>
  <outline>
    <contour>
      <point x="189.28501089566947" y="-202.0" type="curve" name="RLLCNOST"/>
      <point x="221.81192283025064" y="-191.0" name="HVBBQOAY"/>
      <point x="257.167261889578" y="-183.0" name="ZYFDBTQY"/>
      <point x="293.9368145112785" y="-178.0" type="curve" name="EZTIVFMZ"/>
      <point x="222.5190296114372" y="50.0" name="VHHGGEXX"/>
      <point x="189.99211767685603" y="226.0" name="OGRCNWPL"/>
      <point x="199.89161261346766" y="339.0" type="curve" name="QMYTXQQW"/>
      <point x="236.66116523516814" y="231.0" name="CMRAPXQR"/>
      <point x="320.09976541518074" y="56.0" name="JPVYRZGH"/>
      <point x="445.9647724663862" y="-178.0" type="curve" name="PWDWITQH"/>
      <point x="489.80539289995215" y="-182.0" name="QIDGYCAO"/>
      <point x="537.8886540206374" y="-190.0" name="BXEVZOHJ"/>
      <point x="587.3861287036957" y="-202.0" type="curve" name="MAAUGGWE"/>
      <point x="460.8140148713037" y="201.0" name="ZTTRJIPU"/>
      <point x="460.8140148713037" y="433.0" name="VZXXVNCV"/>
      <point x="587.3861287036957" y="478.0" type="curve" name="ASTEBFSF"/>
      <point x="539.3028675830105" y="489.0" name="HYCBVFIR"/>
      <point x="492.63382002469837" y="497.0" name="HFALRZCH"/>
      <point x="448.7931995911324" y="502.0" type="curve" name="KQMEHVOS"/>
      <point x="377.3754146912911" y="476.0" name="QQZCSPJD"/>
      <point x="344.84850275670993" y="392.0" name="KPZKVJPU"/>
      <point x="354.7479976933216" y="251.0" type="curve" name="YVTATRER"/>
      <point x="291.10838738653234" y="397.0" name="NRODXJSR"/>
      <point x="271.30939751330897" y="482.0" name="XWCAHCKC"/>
      <point x="296.7652416360247" y="502.0" type="curve" name="VNDUAKHM"/>
      <point x="258.5814754519511" y="498.0" name="RCVPLJEX"/>
      <point x="221.81192283025064" y="490.0" name="ALKHOMSS"/>
      <point x="189.28501089566947" y="478.0" type="curve" name="HURICYUZ"/>
      <point x="62.71289706327744" y="433.0" name="PGZXWUFP"/>
      <point x="62.71289706327744" y="201.0" name="XPDIADUM"/>
    </contour>
  </outline>
</glyph>
<glyph name="O" format="2">
  <advance width="520"/>
  <unicode hex="004F"/>
  <anchor x="-108.0" y="688" name="top"/>
  <outline>
    <contour>
      <point x="383" y="-190" type="curve" name="LBYSZARE"/>
      <point x="521" y="-190" name="BYGRSVVY"/>
      <point x="544" y="70" name="IGDVUEZN"/>
      <point x="545" y="275" type="curve" smooth="yes" name="XYIVLTVO"/>
      <point x="545" y="480" name="YVNRHGFL"/>
      <point x="521" y="522" name="EFPJOLBJ"/>
      <point x="383" y="522" type="curve" smooth="yes" name="HASQGMHS"/>
      <point x="244" y="522" name="SELKSSUB"/>
      <point x="68" y="480" name="AUXVAUZB"/>
      <point x="68" y="275" type="curve" smooth="yes" name="PTMIRFZQ"/>
      <point x="68" y="70" name="IYQGPCDT"/>
      <point x="244" y="-190" name="LSTPEQDS"/>
      <point x="383" y="-190" type="curve" name="VNSQYBMN"/>
      <point x="383" y="-190" name="IWIKSRKD"/>
      <point x="383" y="-190" name="LCGLVEUP"/>
    </contour>
    <contour>
      <point x="312" y="72" type="curve" name="CHIEXHSI"/>
      <point x="244" y="72" name="YRAIQSDM"/>
      <point x="176" y="186" name="SSXRQSJX"/>
      <point x="176" y="302" type="curve" smooth="yes" name="BTJQDOGS"/>
      <point x="176" y="418" name="YMGISTUX"/>
      <point x="244" y="460" name="VQBJPUWV"/>
      <point x="312" y="460" type="curve" smooth="yes" name="RNFFKTVL"/>
      <point x="381" y="460" name="TBUOOQOI"/>
      <point x="399" y="417" name="VBITHKKP"/>
      <point x="399" y="302" type="curve" smooth="yes" name="LJFILMKA"/>
      <point x="399" y="186" name="OLEDMEQW"/>
      <point x="381" y="72" name="PEXMKTAJ"/>
      <point x="312" y="72" type="curve" name="JUPDUJLL"/>
      <point x="312" y="72" name="MSEBZVBM"/>
      <point x="312" y="72" name="TNLQESJW"/>
    </contour>
  </outline>
</glyph>
<glyph name="P" format="2">
  <advance width="419"/>
  <unicode hex="0050"/>
  <outline>
    <contour>
      <point x="187.9332431738103" y="-201.0" type="curve" name="CKHXTKVI"/>
      <point x="220.46015510839146" y="-189.0" name="JFOIXRGH"/>
      <point x="256.5226009489054" y="-181.0" name="ORMNWKZL"/>
      <point x="295.41347391416554" y="-178.0" type="curve" name="EMNPKNSF"/>
      <point x="256.5226009489054" y="-54.0" name="CNBPJEOY"/>
      <point x="228.2383297014435" y="58.0" name="TNYIDTPM"/>
      <point x="213.389087296526" y="148.0" type="curve" name="MKGKILSP"/>
      <point x="232.4809703885628" y="150.0" name="NGTCYAFQ"/>
      <point x="252.27996026178613" y="151.0" name="IABRAKPW"/>
      <point x="272.786056916196" y="151.0" type="curve" smooth="yes" name="DMRMPFXR"/>
      <point x="371.78100628231266" y="149.0" name="JSSVMEIP"/>
      <point x="431.88508268316923" y="260.0" name="YKHSVLUZ"/>
      <point x="455.9267132435118" y="367.0" type="curve" smooth="yes" name="LWAMPVRH"/>
      <point x="480.67545058504106" y="473.0" name="EUSVDSLF"/>
      <point x="453.0982861187656" y="505.0" name="SOLBFLKT"/>
      <point x="344.91094859722386" y="505.0" type="curve" smooth="yes" name="PQYCFSBJ"/>
      <point x="287.6352993211135" y="504.0" name="JGNQFCXC"/>
      <point x="233.89518395093592" y="496.0" name="KUIODYXG"/>
      <point x="187.9332431738103" y="479.0" type="curve" name="OVTKPJFH"/>
      <point x="60.65402256023174" y="435.0" name="VATDMQIT"/>
      <point x="60.65402256023174" y="203.0" name="XYALLSTI"/>
    </contour>
    <contour>
      <point x="277.0286976033153" y="444.0" type="curve" smooth="yes" name="LHZSFZOP"/>
      <point x="311.6769298814561" y="445.0" name="LLZJRYSP"/>
      <point x="323.69774516162744" y="423.0" name="PBCDUNEZ"/>
      <point x="315.9195705685754" y="388.0" type="curve" smooth="yes" name="ADPKYGWY"/>
      <point x="308.1413959755234" y="353.0" name="RHFSDDMS"/>
      <point x="285.51397897755385" y="322.0" name="RDIFEBME"/>
      <point x="256.5226009489054" y="322.0" type="curve" smooth="yes" name="IHBRQNJP"/>
      <point x="237.43071785686863" y="322.0" name="AKBGBEAL"/>
      <point x="217.6317279836453" y="321.0" name="ZLBDVDPG"/>
      <point x="199.9540584539816" y="319.0" type="curve" name="GPLNDVBQ"/>
      <point x="201.3682720163547" y="370.0" name="XOFCAHXD"/>
      <point x="211.26776695296638" y="411.0" name="LDFGUKVS"/>
      <point x="226.82411613907044" y="442.0" type="curve" name="FZDPUHEI"/>
      <point x="243.087572106361" y="443.0" name="EKXAMZRG"/>
      <point x="260.05813485483816" y="444.0" name="AJKNYWLD"/>
    </contour>
  </outline>
</glyph>
<glyph name="Q" format="2">
  <advance width="520"/>
  <unicode hex="0051"/>
  <outline>
    <contour>
      <point x="344" y="-135" type="curve" name="WHUFLSLG"/>
      <point x="366" y="-135" name="RIFDZTSY"/>
      <point x="386" y="-130" name="VUVDZVKF"/>
      <point x="404" y="-120" type="curve" name="ZSCQMIZE"/>
      <point x="433" y="-174" name="BRMNZCVG"/>
      <point x="466" y="-235" name="LNFPLYMP"/>
      <point x="500" y="-296" type="curve" name="BHMGTLSN"/>
      <point x="519" y="-251" name="GWHPNSAQ"/>
      <point x="542" y="-209" name="JIIIOWGQ"/>
      <point x="567" y="-172" type="curve" name="NOUTOGDY"/>
      <point x="537" y="-118" name="LTSIJREZ"/>
      <point x="508" y="-64" name="ZDTAYGZZ"/>
      <point x="483" y="-17" type="curve" name="EYHUMEPX"/>
      <point x="518" y="66" name="YVLFVNLV"/>
      <point x="532" y="182" name="GSETSLAQ"/>
      <point x="539" y="283" type="curve" smooth="yes" name="QGQGHLHC"/>
      <point x="553" y="468" name="QSLUYEWA"/>
      <point x="527" y="513" name="NSYMEEDF"/>
      <point x="389" y="513" type="curve" smooth="yes" name="JRKSECLX"/>
      <point x="251" y="513" name="AOSKWSFY"/>
      <point x="77" y="468" name="ERUGRGUC"/>
      <point x="63" y="283" type="curve" smooth="yes" name="ZZJZMBAS"/>
      <point x="49" y="96" name="AJBDWUNW"/>
      <point x="206" y="-135" name="ZTUSKKCS"/>
      <point x="344" y="-135" type="curve" name="GDSAIPAM"/>
      <point x="344" y="-135" name="QJRBRIQD"/>
      <point x="344" y="-135" name="RJLGUYXI"/>
    </contour>
    <contour>
      <point x="171" y="309" type="curve" name="FHOGRARQ"/>
      <point x="179" y="414" name="NLBNIUWU"/>
      <point x="248" y="454" name="PCZIDHXG"/>
      <point x="317" y="454" type="curve" smooth="yes" name="YTTCLHHJ"/>
      <point x="385" y="454" name="HMZEXCNK"/>
      <point x="402" y="413" name="QHRBCTVA"/>
      <point x="394" y="309" type="curve" smooth="yes" name="YTBICXCH"/>
      <point x="392" y="269" name="UZUJLHEO"/>
      <point x="387" y="228" name="UDNZAWGS"/>
      <point x="377" y="195" type="curve" name="CCBBUWZL"/>
      <point x="358" y="235" name="WRSZXOKD"/>
      <point x="341" y="272" name="NWQQLVKY"/>
      <point x="327" y="305" type="curve" name="WOOCPWXX"/>
      <point x="293" y="281" name="VLTZNYIH"/>
      <point x="260" y="253" name="MYWCEJTF"/>
      <point x="231" y="222" type="curve" name="AFBDITCH"/>
      <point x="247" y="186" name="HREOLVON"/>
      <point x="267" y="144" name="XKNKHLKR"/>
      <point x="290" y="99" type="curve" name="ICSOZZFE"/>
      <point x="222" y="102" name="LDCKWOHE"/>
      <point x="164" y="204" name="WCKIXFCV"/>
      <point x="171" y="309" type="curve" name="QMEIOZJE"/>
      <point x="171" y="309" name="YAORJTHO"/>
      <point x="171" y="309" name="ELILLWYM"/>
    </contour>
  </outline>
</glyph>
<glyph name="T" format="2">
  <advance width="384"/>
  <unicode hex="0054"/>
  <outline>
    <contour>
      <point x="257.0538238691624" y="-179.0" type="curve" name="LYOIHKTK"/>
      <point x="295.237590053236" y="-175.0" name="UCGLFWQA"/>
      <point x="336.9568901432423" y="-175.0" name="WRHDQCFU"/>
      <point x="380.79751057680824" y="-179.0" type="curve" name="KQSECJXS"/>
      <point x="283.9238815542512" y="130.0" name="OHCIUTDJ"/>
      <point x="260.5893577750951" y="340.0" name="PBSSZMRM"/>
      <point x="312.2081528017131" y="439.0" type="curve" name="KRHFXOHU"/>
      <point x="349.6848122046001" y="436.0" name="BXJCBYXP"/>
      <point x="392.111219075793" y="429.0" name="JRBBDQQT"/>
      <point x="434.5376259469858" y="419.0" type="curve" name="VSWWPVIG"/>
      <point x="450.80108191427644" y="448.0" name="AISOCPRW"/>
      <point x="474.13560569343247" y="470.0" name="MXTFGOGH"/>
      <point x="503.8340905032675" y="480.0" type="curve" name="PQAWKPWY"/>
      <point x="368.7766952966369" y="512.0" name="QUCUGGAJ"/>
      <point x="252.81118318204307" y="512.0" name="ZPTATXYA"/>
      <point x="163.00862197135154" y="480.0" type="curve" name="XCJINADH"/>
      <point x="133.31013716151654" y="470.0" name="QRDPHKMN"/>
      <point x="109.97561338236048" y="448.0" name="FOTQKNTT"/>
      <point x="93.7121574150699" y="419.0" type="curve" name="PDEHLLLG"/>
      <point x="122.70353544371835" y="429.0" name="DATJZRJZ"/>
      <point x="154.52334059711296" y="436.0" name="MCVBMDKO"/>
      <point x="187.75735931288074" y="440.0" type="curve" name="EUYEZEWV"/>
      <point x="136.13856428626275" y="341.0" name="TKBFRRGO"/>
      <point x="159.4730880654188" y="131.0" name="UZSPYASA"/>
    </contour>
  </outline>
</glyph>
<glyph name="U" format="2">
  <advance width="475"/>
  <unicode hex="0055"/>
  <outline>
    <contour>
      <point x="486.755140368258" y="187.0" type="curve" name="QZQLPJCH"/>
      <point x="469.78457761978086" y="350.0" name="EQSDCMYK"/>
      <point x="501.60438277317553" y="449.0" name="IHJEYKKK"/>
      <point x="580.8003422660688" y="476.0" type="curve" name="GQSNDXWE"/>
      <point x="531.3028675830105" y="488.0" name="VQLAWTBB"/>
      <point x="483.9267132435118" y="496.0" name="AVRMYZHD"/>
      <point x="439.3789860287593" y="501.0" type="curve" name="FRXDNLDG"/>
      <point x="362.3043468794257" y="473.0" name="DGACAZEQ"/>
      <point x="329.77743494484446" y="379.0" name="UMLEDCGT"/>
      <point x="344.62667734976196" y="221.0" type="curve" smooth="yes" name="UVBYEXVJ"/>
      <point x="352.404851942814" y="138.0" name="LEQLPIMC"/>
      <point x="335.4342891943368" y="70.0" name="LZWWASKO"/>
      <point x="291.59366876077087" y="70.0" type="curve" smooth="yes" name="LTKLWZCX"/>
      <point x="247.0459415460184" y="70.0" name="RINJDEXE"/>
      <point x="201.79110755007935" y="138.0" name="RMBDGLEF"/>
      <point x="194.01293295702732" y="221.0" type="curve" smooth="yes" name="FTNPCBMZ"/>
      <point x="179.1636905521098" y="379.0" name="UFADULAY"/>
      <point x="211.69060248669103" y="473.0" name="HEIYYYKN"/>
      <point x="288.7652416360247" y="501.0" type="curve" name="CBHPCMKS"/>
      <point x="251.28858223313767" y="496.0" name="ZFNQURZX"/>
      <point x="215.22613639262374" y="488.0" name="BEVRRSYS"/>
      <point x="182.69922445804258" y="476.0" type="curve" name="MMJBXWZR"/>
      <point x="103.50326496514924" y="448.0" name="ZEQCDBAA"/>
      <point x="71.6834598117546" y="349.0" name="JMYFKLQH"/>
      <point x="88.65402256023174" y="185.0" type="curve" smooth="yes" name="ULDCYSYT"/>
      <point x="109.16011921464161" y="-11.0" name="EDEQNYLM"/>
      <point x="246.33883476483186" y="-192.0" name="XYJRQAUS"/>
      <point x="360.183026535866" y="-191.0" type="curve" smooth="yes" name="SJIJPOAJ"/>
      <point x="473.3201115257136" y="-191.0" name="MCTTQGHD"/>
      <point x="506.5541302414813" y="-8.0" name="ZAGILCZO"/>
      <point x="486.755140368258" y="187.0" type="curve" name="FAYACEFX"/>
      <point x="486.755140368258" y="187.0" name="VQOKOBUQ"/>
      <point x="486.755140368258" y="187.0" name="AKNPIQCM"/>
    </contour>
  </outline>
</glyph>
<glyph name="V" format="2">
  <advance width="457"/>
  <unicode hex="0056"/>
  <outline>
    <contour>
      <point x="251" y="502" type="curve" name="ASDIVAFO"/>
      <point x="214" y="496" name="ELFXZZQE"/>
      <point x="177" y="488" name="RVDAXPAV"/>
      <point x="144" y="476" type="curve" name="PNGGMJJW"/>
      <point x="58" y="445" name="PLLASDJU"/>
      <point x="104" y="223" name="ADZQCZKZ"/>
      <point x="278" y="-175" type="curve" name="EWGXDXUZ"/>
      <point x="324" y="-171" name="YQYPJCHW"/>
      <point x="375" y="-171" name="ALEBWBAT"/>
      <point x="426" y="-175" type="curve" name="SQAMZPRE"/>
      <point x="354" y="223" name="GJDIVXFN"/>
      <point x="414" y="445" name="DFFGWULH"/>
      <point x="601" y="476" type="curve" name="SFSLLMNB"/>
      <point x="553" y="487" name="MCLWFWHF"/>
      <point x="505" y="496" name="MXVUMNEG"/>
      <point x="461" y="501" type="curve" name="NUIYTGYJ"/>
      <point x="337" y="475" name="UMRZBNAV"/>
      <point x="271" y="362" name="DRFIZXFO"/>
      <point x="267" y="167" type="curve" name="HMVECRNB"/>
      <point x="201" y="363" name="OJDBVQBE"/>
      <point x="197" y="476" name="PLVAZBCU"/>
    </contour>
  </outline>
</glyph>
<glyph name="X" format="2">
  <advance width="458"/>
  <unicode hex="0058"/>
  <outline>
    <contour>
      <point x="155" y="479" type="curve" name="UXTYUNSN"/>
      <point x="131" y="469" name="RKCNYTMH"/>
      <point x="138" y="411" name="YUPXXORQ"/>
      <point x="180" y="309" type="curve" name="OSXKEZIC"/>
      <point x="132" y="192" name="IAVNOVYA"/>
      <point x="122" y="17" name="JHYZEYKI"/>
      <point x="148" y="-204" type="curve" name="CGCSAGBD"/>
      <point x="184" y="-191" name="CIWJGUCM"/>
      <point x="224" y="-182" name="EFYOVNKV"/>
      <point x="266" y="-177" type="curve" name="YSKCLJQL"/>
      <point x="253" y="-48" name="LOYRGQUI"/>
      <point x="254" y="66" name="MRMZESQQ"/>
      <point x="268" y="157" type="curve" name="WWZSWSNA"/>
      <point x="311" y="66" name="EYXXONOL"/>
      <point x="370" y="-48" name="AHMUHDWG"/>
      <point x="440" y="-177" type="curve" name="VYFIYFMA"/>
      <point x="490" y="-182" name="TTWBENUX"/>
      <point x="544" y="-191" name="HXHDIHUV"/>
      <point x="599" y="-204" type="curve" name="BVMCKLOC"/>
      <point x="476" y="18" name="SWYDPUVC"/>
      <point x="386" y="194" name="ICUYOSOG"/>
      <point x="336" y="312" type="curve" name="GEHVVDAW"/>
      <point x="388" y="412" name="MTMAHDFK"/>
      <point x="474" y="469" name="EZPSQTIA"/>
      <point x="590" y="478" type="curve" name="BPIOECAV"/>
      <point x="537" y="490" name="DOHPPAKC"/>
      <point x="484" y="499" name="SUXTVVMA"/>
      <point x="435" y="504" type="curve" name="OOZMSNXC"/>
      <point x="371" y="494" name="RLGSMMUF"/>
      <point x="317" y="468" name="WBOKYIEB"/>
      <point x="276" y="426" type="curve" name="TVDBJYAR"/>
      <point x="265" y="467" name="ANSEOJUB"/>
      <point x="265" y="494" name="MWZQFRJJ"/>
      <point x="276" y="504" type="curve" name="JUBILFQV"/>
      <point x="233" y="500" name="KTJCVHDH"/>
      <point x="192" y="491" name="NHAQMIPB"/>
    </contour>
  </outline>
</glyph>
<glyph name="Y" format="2">
  <advance width="423"/>
  <unicode hex="0059"/>
  <outline>
    <contour>
      <point x="273.3718433538229" y="-175.0" type="curve" name="AGUNALKA"/>
      <point x="312.26271631908304" y="-172.0" name="BALCDIDL"/>
      <point x="353.98201640908934" y="-172.0" name="FUTNVAVY"/>
      <point x="397.11553006146875" y="-175.0" type="curve" name="VUQYSEWS"/>
      <point x="351.8606960655297" y="-30.0" name="RQSSHMXB"/>
      <point x="320.7479976933216" y="98.0" name="HRXSVSZU"/>
      <point x="308.7271824131503" y="196.0" type="curve" name="WRSWEWUY"/>
      <point x="339.13277400417184" y="367.0" name="ANJWTAIE"/>
      <point x="428.93533521486336" y="462.0" name="BJFMGYVF"/>
      <point x="569.6495846709863" y="477.0" type="curve" name="AUYJTDXQ"/>
      <point x="518.0307896443684" y="489.0" name="GAQPJYFH"/>
      <point x="467.82620818012356" y="498.0" name="LLNYXIQE"/>
      <point x="421.86426740299794" y="502.0" type="curve" name="UIIONMXR"/>
      <point x="346.2038418160373" y="489.0" name="LHXNQREU"/>
      <point x="286.8068721963673" y="450.0" name="NMAICYDE"/>
      <point x="245.79467888754755" y="388.0" type="curve" name="XZUDGWFB"/>
      <point x="231.6525432638166" y="450.0" name="QCDOSQVD"/>
      <point x="233.77386360737626" y="489.0" name="VORSPNHT"/>
      <point x="253.57285348059958" y="503.0" type="curve" name="TFKDIGND"/>
      <point x="213.97487373415294" y="498.0" name="INXBSKKN"/>
      <point x="175.0840007688928" y="489.0" name="FVOEQXPZ"/>
      <point x="140.43576849075197" y="477.0" type="curve" name="QPCEBNOF"/>
      <point x="100.13068196311878" y="462.0" name="BBDYDWRU"/>
      <point x="114.97992436803625" y="367.0" name="VMGYFVFB"/>
      <point x="184.98349570550448" y="196.0" type="curve" name="OTCFJWDX"/>
      <point x="197.00431098567577" y="98.0" name="WYWBOBCQ"/>
      <point x="228.1170093578839" y="-30.0" name="ASNMVXQK"/>
    </contour>
  </outline>
</glyph>
<glyph name="Z" format="2">
  <advance width="413"/>
  <unicode hex="005A"/>
  <outline>
    <contour>
      <point x="176.44796179957171" y="-200.0" type="curve" name="IBLUNLXY"/>
      <point x="266.9576297914498" y="-168.0" name="XTIBCFME"/>
      <point x="383.63024868723016" y="-168.0" name="CPCQHYUD"/>
      <point x="519.3947506750474" y="-200.0" type="curve" name="FEGCBKQN"/>
      <point x="490.4033726463988" y="-108.0" name="PPJYZTGO"/>
      <point x="467.7759556484293" y="-24.0" name="GWFUQRUI"/>
      <point x="452.21960646232526" y="49.0" type="curve" name="TZZDZRCB"/>
      <point x="374.4378605318051" y="67.0" name="IWKBKNHY"/>
      <point x="300.19164850721756" y="76.0" name="UMDBXBKX"/>
      <point x="237.25914498161484" y="73.0" type="curve" name="QRIAXWOU"/>
      <point x="262.7149891043305" y="252.0" name="JHCQSMKS"/>
      <point x="336.25409434773144" y="370.0" name="LEEBUWRH"/>
      <point x="452.21960646232526" y="421.0" type="curve" name="BTNDPLTC"/>
      <point x="467.7759556484293" y="450.0" name="SHEPHXXB"/>
      <point x="490.4033726463988" y="470.0" name="LWIHBLOP"/>
      <point x="519.3947506750474" y="480.0" type="curve" name="OZRPNNYT"/>
      <point x="383.63024868723016" y="512.0" name="GXTPWVXT"/>
      <point x="266.9576297914498" y="512.0" name="FPXABXJS"/>
      <point x="176.44796179957171" y="480.0" type="curve" name="RDRWPHPI"/>
      <point x="147.4565837709233" y="470.0" name="QWTMBOPC"/>
      <point x="124.82916677295376" y="450.0" name="AIDBIOIB"/>
      <point x="109.27281758684973" y="421.0" type="curve" name="ANYNCGZF"/>
      <point x="161.59871939465424" y="439.0" name="ZKAOSBDK"/>
      <point x="223.1170093578839" y="448.0" name="TMIVAZUH"/>
      <point x="290.2921535706059" y="445.0" type="curve" name="BTWMLJQS"/>
      <point x="185.64034995499685" y="378.0" name="LGAMIUTA"/>
      <point x="123.41495321058068" y="244.0" name="IUGCUOHZ"/>
      <point x="109.27281758684973" y="49.0" type="curve" name="YWXEFTQJ"/>
      <point x="124.82916677295376" y="-24.0" name="DBJVMXNG"/>
      <point x="147.4565837709233" y="-108.0" name="HIRWBAQJ"/>
    </contour>
  </outline>
</glyph>
<glyph name="bracketleft" format="2">
  <advance width="315"/>
  <unicode hex="005B"/>
  <outline>
    <contour>
      <point x="209" y="-381" type="curve" name="HEHCWJZH"/>
      <point x="271" y="-359" name="AUVEMZUR"/>
      <point x="350" y="-359" name="AKZWOXBK"/>
      <point x="443" y="-381" type="curve" name="GGZBOWBX"/>
      <point x="416" y="-295" name="ULGAVJHH"/>
      <point x="393" y="-213" name="RWGEHFFZ"/>
      <point x="374" y="-138" type="curve" name="ZZYTQRFH"/>
      <point x="328" y="-128" name="EEMPTALZ"/>
      <point x="284" y="-122" name="PRWQDEUO"/>
      <point x="246" y="-122" type="curve" name="RXAJCXZM"/>
      <point x="164" y="205" name="FSLWZQRP"/>
      <point x="163" y="424" name="TKELRGSS"/>
      <point x="246" y="518" type="curve" name="FMQYZHAU"/>
      <point x="284" y="518" name="XKFSGKQB"/>
      <point x="328" y="512" name="HZUWNJFK"/>
      <point x="374" y="502" type="curve" name="OSTCKUQS"/>
      <point x="393" y="523" name="YIHYGWMA"/>
      <point x="416" y="539" name="AMDYOCUV"/>
      <point x="443" y="549" type="curve" name="JFMCIEOL"/>
      <point x="350" y="571" name="NXEBBHCZ"/>
      <point x="271" y="571" name="MENLSWPU"/>
      <point x="209" y="549" type="curve" name="NXVHDFKM"/>
      <point x="36" y="488" name="IMAAIKBD"/>
      <point x="36" y="172" name="JTULOFKD"/>
    </contour>
  </outline>
</glyph>
<glyph name="bracketright" format="2">
  <advance width="315"/>
  <unicode hex="005D"/>
  <outline>
    <contour>
      <point x="418.06884886724276" y="-381.0" type="curve" name="NGZMDQLL"/>
      <point x="244.1205806953521" y="172.0" name="LZNKXPBW"/>
      <point x="244.1205806953521" y="488.0" name="AKPIUUBQ"/>
      <point x="418.06884886724276" y="549.0" type="curve" name="QYBUMJKE"/>
      <point x="325.4378605318051" y="571.0" name="GKOTWSUD"/>
      <point x="246.2419010389117" y="571.0" name="HKNNLIHQ"/>
      <point x="184.72361107568207" y="549.0" type="curve" name="VDQGKEOI"/>
      <point x="157.85355339059328" y="539.0" name="LEAEIZOG"/>
      <point x="134.5190296114372" y="523.0" name="KQEZJXVM"/>
      <point x="115.42714651940042" y="502.0" type="curve" name="NPSNMSMW"/>
      <point x="146.5398448916085" y="512.0" name="GSBKGQXR"/>
      <point x="182.60229073212244" y="518.0" name="FQOHMVAN"/>
      <point x="220.786056916196" y="518.0" type="curve" name="UIYZKGOM"/>
      <point x="138.76167029855648" y="423.0" name="AGYDYIOL"/>
      <point x="138.05456351736996" y="206.0" name="HOZAEOMC"/>
      <point x="220.786056916196" y="-122.0" type="curve" name="UAVGEZQS"/>
      <point x="182.60229073212244" y="-122.0" name="RUTRAGTQ"/>
      <point x="146.5398448916085" y="-128.0" name="CCGMHNKN"/>
      <point x="115.42714651940042" y="-138.0" type="curve" name="EVNTVMXV"/>
      <point x="134.5190296114372" y="-213.0" name="MUXADQGQ"/>
      <point x="157.85355339059328" y="-295.0" name="ZWCNADJJ"/>
      <point x="184.72361107568207" y="-381.0" type="curve" name="QPYIXRMR"/>
      <point x="246.2419010389117" y="-359.0" name="VXJDREFN"/>
      <point x="325.4378605318051" y="-359.0" name="NPVRDBJL"/>
    </contour>
  </outline>
</glyph>
<glyph name="asciicircum" format="2">
  <advance width="396"/>
  <unicode hex="005E"/>
  <outline>
    <contour>
      <point x="141" y="89" type="curve" name="COIGITPH"/>
      <point x="173" y="100" name="QOLPCXIE"/>
      <point x="209" y="108" name="LXXUXURR"/>
      <point x="247" y="111" type="curve" name="EZBTLHLM"/>
      <point x="225" y="239" name="ZWXEEBGL"/>
      <point x="224" y="339" name="LPVXBUGN"/>
      <point x="243" y="408" type="curve" name="DDZGLWTU"/>
      <point x="262" y="339" name="QSZKKSGK"/>
      <point x="301" y="239" name="QBCMPJXB"/>
      <point x="361" y="112" type="curve" name="DMOTVVCB"/>
      <point x="404" y="108" name="MQBFPMJB"/>
      <point x="453" y="100" name="XWVOAABZ"/>
      <point x="501" y="89" type="curve" name="CHZHXBAP"/>
      <point x="376" y="348" name="HXDZCKMA"/>
      <point x="330" y="497" name="QIHVKPHE"/>
      <point x="366" y="528" type="curve" name="KSTZPZXZ"/>
      <point x="323" y="532" name="YDLRNOHR"/>
      <point x="282" y="532" name="EWZVSIFJ"/>
      <point x="245" y="528" type="curve" name="ANVAPFOM"/>
      <point x="129" y="497" name="WOICCRCZ"/>
      <point x="95" y="348" name="BSRFWYXH"/>
    </contour>
  </outline>
</glyph>
<glyph name="underscore" format="2">
  <advance width="435"/>
  <unicode hex="005F"/>
  <outline>
    <contour>
      <point x="103" y="-306" type="curve" name="DQQFDAPL"/>
      <point x="220" y="-265" name="LYFAIGBU"/>
      <point x="371" y="-265" name="NHKFPRIC"/>
      <point x="545" y="-306" type="curve" name="ZVKYOTNZ"/>
      <point x="516" y="-214" name="GOILXJEA"/>
      <point x="516" y="-161" name="ACLLUJCH"/>
      <point x="545" y="-151" type="curve" name="UKKLHCFG"/>
      <point x="371" y="-110" name="PYNAJVLZ"/>
      <point x="220" y="-110" name="SHOOALFG"/>
      <point x="103" y="-151" type="curve" name="LFPMPNXC"/>
      <point x="74" y="-161" name="NIUNNBSG"/>
      <point x="74" y="-214" name="OUSEFUQR"/>
    </contour>
  </outline>
</glyph>
<glyph name="grave" format="2">
  <advance width="288"/>
  <unicode hex="0060"/>
  <anchor x="-60.0" y="517" name="top"/>
  <anchor x="194.0" y="517" name="center"/>
  <outline>
    <contour>
      <point x="343.4041122946064" y="436.0" type="curve" name="JOFIFMCR"/>
      <point x="274.1076477383248" y="566.0" name="EROMMVFF"/>
      <point x="245.11626970967632" y="640.0" name="TDYSUWCI"/>
      <point x="256.42997820866105" y="656.0" type="curve" name="MZMYTSRN"/>
      <point x="213.29646455628165" y="658.0" name="FRHTJWII"/>
      <point x="172.99137802864846" y="654.0" name="NEWSIITD"/>
      <point x="139.7573593128807" y="642.0" type="curve" name="TVVNKJII"/>
      <point x="126.32233047033631" y="637.0" name="YHPKHWXK"/>
      <point x="155.31370849898477" y="572.0" name="AZOJNTUL"/>
      <point x="224.61017305526644" y="450.0" type="curve" name="DHFJOATT"/>
      <point x="259.9655121145938" y="451.0" name="ASHESZUI"/>
      <point x="300.270598642227" y="446.0" name="TZPGSYJI"/>
    </contour>
  </outline>
</glyph>
<glyph name="b" format="2">
  <advance width="441"/>
  <unicode hex="0062"/>
  <outline>
    <contour>
      <point x="281.66473657263634" y="-174.0" type="curve" name="RMSXWKFZ"/>
      <point x="276.007882323144" y="-156.0" name="NJRQUANQ"/>
      <point x="271.05813485483816" y="-139.0" name="OAUCPVIB"/>
      <point x="266.10838738653234" y="-122.0" type="curve" name="AIFIYEGL"/>
      <point x="302.1708332270463" y="-168.0" name="SPFGRHKM"/>
      <point x="339.64749262993325" y="-194.0" name="ICLMYFEJ"/>
      <point x="374.29572490807413" y="-195.0" type="curve" smooth="yes" name="RZFCDRRW"/>
      <point x="471.16935393063113" y="-197.0" name="RNQHSJIA"/>
      <point x="495.91809127216027" y="-5.0" name="RWJKOPGT"/>
      <point x="471.16935393063113" y="190.0" type="curve" smooth="yes" name="UGEIPSQO"/>
      <point x="447.12772337028855" y="386.0" name="QXIVFZOE"/>
      <point x="388.4378605318051" y="465.0" name="LXNUEXTA"/>
      <point x="292.2713382904346" y="467.0" type="curve" smooth="yes" name="RZVACYTW"/>
      <point x="257.62310601229376" y="468.0" name="XNXNNJSJ"/>
      <point x="223.6819805153395" y="456.0" name="CQXSLJXZ"/>
      <point x="197.5190296114372" y="433.0" type="curve" name="DKGZOMXD"/>
      <point x="213.07537879754125" y="491.0" name="OGSFAZPR"/>
      <point x="244.18807716974936" y="529.0" name="CGHLZXBD"/>
      <point x="289.4429111656884" y="545.0" type="curve" name="VOHWGDSX"/>
      <point x="254.087572106361" y="541.0" name="KEGNWFST"/>
      <point x="219.43933982822017" y="533.0" name="DORSHVSU"/>
      <point x="189.0337482371986" y="522.0" type="curve" name="ZEEOQJYF"/>
      <point x="52.56213946819494" y="474.0" name="BNVGGBLR"/>
      <point x="49.73371234344876" y="230.0" name="MELXBBUR"/>
      <point x="181.25557364414658" y="-197.0" type="curve" name="XYMHFLCU"/>
      <point x="211.66116523516814" y="-186.0" name="OEDRAQIZ"/>
      <point x="246.30939751330897" y="-178.0" name="ZFRHLTDB"/>
    </contour>
    <contour>
      <point x="292.2713382904346" y="45.0" type="curve" name="ZIYKFHVD"/>
      <point x="247.01650429449552" y="45.0" name="HKCBHRLK"/>
      <point x="200.3474567361834" y="120.0" name="BLAMKWSI"/>
      <point x="189.0337482371986" y="212.0" type="curve" smooth="yes" name="WYKKTTTV"/>
      <point x="177.72003973821387" y="304.0" name="VFUJOICX"/>
      <point x="208.83273811042199" y="352.0" name="OCLTDFER"/>
      <point x="254.087572106361" y="352.0" type="curve" smooth="yes" name="HAAPKFWK"/>
      <point x="300.0495128834866" y="352.0" name="TRYEOQZW"/>
      <point x="327.62667734976196" y="305.0" name="FRJPTOVT"/>
      <point x="338.9403858487467" y="212.0" type="curve" smooth="yes" name="XDHLRYJV"/>
      <point x="350.25409434773144" y="119.0" name="DAGRSAGM"/>
      <point x="338.23327906756015" y="45.0" name="EUNTMMLH"/>
      <point x="292.2713382904346" y="45.0" type="curve" name="UYYWQZAS"/>
      <point x="292.2713382904346" y="45.0" name="MHODVERI"/>
      <point x="292.2713382904346" y="45.0" name="RENZDPAI"/>
    </contour>
  </outline>
</glyph>
<glyph name="d" format="2">
  <advance width="441"/>
  <unicode hex="0064"/>
  <outline>
    <contour>
      <point x="405.4084232802822" y="-174.0" type="curve" name="SIVNABFG"/>
      <point x="446.4206165891019" y="-178.0" name="ERZDETKL"/>
      <point x="492.3825573662275" y="-186.0" name="EVWPCBGO"/>
      <point x="538.3444981433531" y="-197.0" type="curve" name="PIRTSANQ"/>
      <point x="406.8226368426553" y="230.0" name="MJCJZFLV"/>
      <point x="409.65106396740146" y="474.0" name="SRYMUKBQ"/>
      <point x="546.1226727364051" y="522.0" type="curve" name="WLDKYCOI"/>
      <point x="500.1607319592796" y="533.0" name="NQRNNVKH"/>
      <point x="454.19879118215397" y="541.0" name="NVCKSBLY"/>
      <point x="413.1865978733342" y="545.0" type="curve" name="CKDJYKXM"/>
      <point x="367.93176387739516" y="529.0" name="VCANAYLG"/>
      <point x="336.81906550518704" y="491.0" name="IKBFHMAQ"/>
      <point x="321.26271631908304" y="433.0" type="curve" name="IUFOOYMF"/>
      <point x="300.75661966467317" y="456.0" name="HLVCLBHI"/>
      <point x="273.1794551983978" y="467.0" name="HBIKYAVA"/>
      <point x="239.2383297014435" y="467.0" type="curve" smooth="yes" name="YWHMAVCC"/>
      <point x="145.90023458481923" y="465.0" name="EEDZEPIV"/>
      <point x="43.369751312769836" y="386.0" name="FFNOQKJF"/>
      <point x="67.41138187311245" y="190.0" type="curve" smooth="yes" name="KXOVEQBV"/>
      <point x="92.16011921464161" y="-5.0" name="BHUQAXPI"/>
      <point x="228.6317279836453" y="-197.0" name="FNAMHFVM"/>
      <point x="322.6769298814561" y="-195.0" type="curve" smooth="yes" name="DZSVJXMI"/>
      <point x="355.91094859722386" y="-194.0" name="PKPAIPPG"/>
      <point x="378.53836559519334" y="-167.0" name="TLDOQGSB"/>
      <point x="389.85207409417814" y="-122.0" type="curve" name="PSXVODUS"/>
      <point x="394.80182156248395" y="-139.0" name="NIYOQIUI"/>
      <point x="400.4586758119764" y="-157.0" name="XYIGOMVH"/>
    </contour>
    <contour>
      <point x="271.7652416360247" y="45.0" type="curve" name="UHPXJAWW"/>
      <point x="225.8033008588991" y="45.0" name="DMAJYTEL"/>
      <point x="179.84136008177353" y="119.0" name="MYBIUPOO"/>
      <point x="168.52765158278874" y="212.0" type="curve" smooth="yes" name="WMGVLRJK"/>
      <point x="157.213943083804" y="305.0" name="BKMFBCQE"/>
      <point x="187.61953467482556" y="352.0" name="KWTOHTJH"/>
      <point x="233.58147545195112" y="352.0" type="curve" smooth="yes" name="BXVSYSGN"/>
      <point x="278.8363094478902" y="352.0" name="FLIHGAHU"/>
      <point x="307.1205806953521" y="304.0" name="LQUONJIN"/>
      <point x="318.4342891943368" y="212.0" type="curve" smooth="yes" name="SFGFWOTR"/>
      <point x="329.7479976933216" y="120.0" name="RSPKPAZG"/>
      <point x="317.0200756319638" y="45.0" name="UBMHFNAO"/>
      <point x="271.7652416360247" y="45.0" type="curve" name="GVTSSYWL"/>
      <point x="271.7652416360247" y="45.0" name="FPQYIOGU"/>
      <point x="271.7652416360247" y="45.0" name="UQYKXTPA"/>
    </contour>
  </outline>
</glyph>
<glyph name="e" format="2">
  <advance width="399"/>
  <unicode hex="0065"/>
  <anchor x="-82.0" y="527" name="top"/>
  <anchor x="210.0" y="517" name="center"/>
  <outline>
    <contour>
      <point x="461.48306242961587" y="-128.0" type="curve" name="UOEGUHSK"/>
      <point x="438.8556454316464" y="-49.0" name="NKONZQQP"/>
      <point x="422.5921894643558" y="22.0" name="QIIPKAVC"/>
      <point x="413.39980130893065" y="82.0" type="curve" name="ZYNGYJQH"/>
      <point x="306.62667734976196" y="39.0" name="BDRTUBCG"/>
      <point x="218.94543648263004" y="50.0" name="BKISQZLI"/>
      <point x="183.59009742330267" y="138.0" type="curve" name="OOIAEVBR"/>
      <point x="255.71498910433053" y="145.0" name="NGZEVMFE"/>
      <point x="340.56780284671623" y="137.0" name="NFFDHNQT"/>
      <point x="432.4916844009674" y="116.0" type="curve" name="FVRFFDMU"/>
      <point x="438.14853865045984" y="328.0" name="VZQTACJE"/>
      <point x="445.21960646232526" y="370.0" name="GCEPODJC"/>
      <point x="322.8901333170526" y="371.0" type="curve" smooth="yes" name="GYTREBOT"/>
      <point x="211.87436867076457" y="373.0" name="RBIQYTHV"/>
      <point x="74.69565312057435" y="337.0" name="YOASHDTU"/>
      <point x="74.69565312057435" y="181.0" type="curve" smooth="yes" name="OLTJCJGD"/>
      <point x="74.69565312057435" y="-57.0" name="KYGPYGZP"/>
      <point x="318.64749262993325" y="-254.0" name="PSGMGHPC"/>
      <point x="461.48306242961587" y="-128.0" type="curve" name="RJGDWYQK"/>
      <point x="461.48306242961587" y="-128.0" name="HRJZBMJY"/>
      <point x="461.48306242961587" y="-128.0" name="CKDKPBDZ"/>
    </contour>
    <contour>
      <point x="258.54341622907674" y="310.0" type="curve" name="FLLLHYZJ"/>
      <point x="288.2419010389117" y="309.0" name="KYGGMKKA"/>
      <point x="305.9195705685754" y="297.0" name="EVFKVNPY"/>
      <point x="312.9906383804409" y="258.0" type="curve" name="PXSOARRD"/>
      <point x="267.0286976033153" y="263.0" name="USSYXPPX"/>
      <point x="223.89518395093592" y="263.0" name="FYFNYNLX"/>
      <point x="183.59009742330267" y="260.0" type="curve" name="WDKBDZEX"/>
      <point x="200.56066017177983" y="297.0" name="JKOMBVFD"/>
      <point x="230.9662517628014" y="310.0" name="TPNLTDJN"/>
      <point x="258.54341622907674" y="310.0" type="curve" name="LGKYAENL"/>
      <point x="258.54341622907674" y="310.0" name="FPKVIRXD"/>
      <point x="258.54341622907674" y="310.0" name="UVIAFKFA"/>
    </contour>
  </outline>
</glyph>
<glyph name="g" format="2">
  <advance width="422"/>
  <unicode hex="0067"/>
  <outline>
    <contour>
      <point x="434" y="11" type="curve" name="JCJWTXKA"/>
      <point x="413" y="185" name="WTBAYTWZ"/>
      <point x="442" y="290" name="LVSROSWB"/>
      <point x="520" y="323" type="curve" name="TEJHVGNX"/>
      <point x="475" y="333" name="PTZUTFIY"/>
      <point x="429" y="341" name="LJNXWDAP"/>
      <point x="388" y="345" type="curve" name="XOSTNITI"/>
      <point x="383" y="343" name="XMBWLMDP"/>
      <point x="379" y="341" name="BDZLTXPP"/>
      <point x="374" y="338" type="curve" name="DUYLGXAE"/>
      <point x="362" y="347" name="OEBSFAKZ"/>
      <point x="339" y="351" name="RKYPAUGB"/>
      <point x="306" y="350" type="curve" smooth="yes" name="FMSBLGNA"/>
      <point x="222" y="347" name="USZBIYMC"/>
      <point x="97" y="318" name="TLEXCHOL"/>
      <point x="73" y="207" type="curve" smooth="yes" name="HAHNUOKG"/>
      <point x="49" y="101" name="VYSKYSFM"/>
      <point x="127" y="-11" name="FMQMCLPO"/>
      <point x="213" y="-7" type="curve" smooth="yes" name="EFIIVYSV"/>
      <point x="248" y="-6" name="EXJOMAKI"/>
      <point x="278" y="12" name="CFBNLZFS"/>
      <point x="299" y="41" type="curve" name="LYITXAQC"/>
      <point x="300" y="34" name="SKRVLVCE"/>
      <point x="302" y="26" name="VXJYQZXU"/>
      <point x="302" y="19" type="curve" smooth="yes" name="BUUCEHKU"/>
      <point x="318" y="-94" name="AUWWTQRZ"/>
      <point x="237" y="-140" name="GBVVQONF"/>
      <point x="125" y="-77" type="curve" name="HSQSBDRD"/>
      <point x="140" y="-149" name="UJALTLVT"/>
      <point x="160" y="-231" name="THFTHTRD"/>
      <point x="188" y="-322" type="curve" name="TNINRONX"/>
      <point x="366" y="-404" name="HTVZLMSI"/>
      <point x="469" y="-266" name="BXBXRZIB"/>
      <point x="434" y="11" type="curve" name="SAJDCUYX"/>
      <point x="434" y="11" name="KZIQOVRZ"/>
      <point x="434" y="11" name="PIPWXBIV"/>
    </contour>
    <contour>
      <point x="229" y="154" type="curve" name="ISZKLDNI"/>
      <point x="188" y="154" name="JZLIOLDY"/>
      <point x="163" y="190" name="UCYILSFR"/>
      <point x="174" y="232" type="curve" smooth="yes" name="BCCXEBOJ"/>
      <point x="183" y="276" name="LOZTQWXE"/>
      <point x="222" y="298" name="KPHTOCZT"/>
      <point x="263" y="298" type="curve" smooth="yes" name="YDKQWNZG"/>
      <point x="303" y="298" name="ZBXZVKOD"/>
      <point x="317" y="275" name="JDSOSIKO"/>
      <point x="307" y="232" type="curve" smooth="yes" name="BIIWMWJN"/>
      <point x="297" y="190" name="QCQRCMNS"/>
      <point x="269" y="154" name="HLLJBVHS"/>
      <point x="229" y="154" type="curve" name="XQABREUB"/>
      <point x="229" y="154" name="FXFILKWP"/>
      <point x="229" y="154" name="FRGSTNBC"/>
    </contour>
  </outline>
</glyph>
<glyph name="h" format="2">
  <advance width="423"/>
  <unicode hex="0068"/>
  <outline>
    <contour>
      <point x="187" y="-205" type="curve" name="VJVGUABL"/>
      <point x="218" y="-194" name="WISIJVGT"/>
      <point x="253" y="-187" name="PZKSQYPE"/>
      <point x="288" y="-183" type="curve" name="BXCOUNDA"/>
      <point x="234" y="-10" name="DAHVMRHM"/>
      <point x="200" y="138" name="RFRXLHXK"/>
      <point x="189" y="249" type="curve" smooth="yes" name="CDBRRKON"/>
      <point x="183" y="315" name="HOSSGJJJ"/>
      <point x="205" y="346" name="BAXBLMLF"/>
      <point x="243" y="346" type="curve" smooth="yes" name="AOMSVUCX"/>
      <point x="280" y="346" name="OFMZPNIA"/>
      <point x="297" y="311" name="LHHRKWIS"/>
      <point x="303" y="249" type="curve" smooth="yes" name="DJXPURJL"/>
      <point x="314" y="138" name="RKAVHWCT"/>
      <point x="348" y="-10" name="QIFZTCKO"/>
      <point x="402" y="-183" type="curve" name="BUDQUWBM"/>
      <point x="443" y="-187" name="EFKZJSDV"/>
      <point x="488" y="-194" name="COEOBVRX"/>
      <point x="534" y="-205" type="curve" name="FFNIXWLN"/>
      <point x="476" y="-18" name="HQOZSDHD"/>
      <point x="442" y="136" name="OPJAPLRO"/>
      <point x="433" y="252" type="curve" smooth="yes" name="JPPMZSOY"/>
      <point x="423" y="402" name="TONILPPR"/>
      <point x="383" y="461" name="XLETOTRF"/>
      <point x="300" y="465" type="curve" smooth="yes" name="UASEECNB"/>
      <point x="261" y="468" name="JNLKRMUO"/>
      <point x="226" y="457" name="TJITMFPT"/>
      <point x="197" y="437" type="curve" name="BLWWGRPZ"/>
      <point x="213" y="494" name="UBWNMHET"/>
      <point x="244" y="531" name="RGPYJKAP"/>
      <point x="288" y="547" type="curve" name="MWXVQTSN"/>
      <point x="253" y="543" name="VHAARPCT"/>
      <point x="218" y="536" name="SNGNMQNI"/>
      <point x="187" y="525" type="curve" name="CXTXFDSL"/>
      <point x="51" y="477" name="KXOQVIEH"/>
      <point x="51" y="229" name="DHOTYTBB"/>
    </contour>
  </outline>
</glyph>
<glyph name="i" format="2">
  <advance width="201"/>
  <unicode hex="0069"/>
  <outline>
    <contour>
      <point x="152" y="504" type="curve" name="EORTHLMT"/>
      <point x="191" y="504" name="EVWNVOMG"/>
      <point x="244" y="522" name="MEVSEGWQ"/>
      <point x="267" y="546" type="curve" smooth="yes" name="CPEHEUPM"/>
      <point x="290" y="568" name="EDIZPBUH"/>
      <point x="277" y="586" name="XAYCUERG"/>
      <point x="237" y="587" type="curve" smooth="yes" name="YXOIDRHZ"/>
      <point x="196" y="587" name="ZZXTBODZ"/>
      <point x="144" y="568" name="TGCQBOPY"/>
      <point x="121" y="546" type="curve" smooth="yes" name="KFIZCLYG"/>
      <point x="98" y="522" name="KBRCEJDG"/>
      <point x="111" y="504" name="WRPWNNGS"/>
      <point x="152" y="504" type="curve" name="WINLDFYY"/>
      <point x="152" y="504" name="FIWYGBKH"/>
      <point x="152" y="504" name="GIZVWOQL"/>
    </contour>
    <contour>
      <point x="183" y="-199" type="curve" name="SDTEZHUF"/>
      <point x="215" y="-190" name="YFTCVRCK"/>
      <point x="255" y="-190" name="NIQDWMOU"/>
      <point x="300" y="-199" type="curve" name="NANFPBJG"/>
      <point x="203" y="109" name="AMUCLZXQ"/>
      <point x="169" y="331" name="CKAABMEO"/>
      <point x="201" y="457" type="curve" name="BOLSPHDY"/>
      <point x="157" y="466" name="YIPXIPTF"/>
      <point x="116" y="466" name="TTREWCBW"/>
      <point x="85" y="457" type="curve" name="GRFAHYSX"/>
      <point x="53" y="331" name="EIRDFQMH"/>
      <point x="86" y="109" name="LYJHVYCU"/>
    </contour>
  </outline>
</glyph>
<glyph name="j" format="2">
  <advance width="215"/>
  <unicode hex="006A"/>
  <outline>
    <contour>
      <point x="172.90737725975566" y="495.0" type="curve" name="WZBGSAGU"/>
      <point x="214.62667734976196" y="492.0" name="LMHZXALM"/>
      <point x="269.78100628231266" y="507.0" name="NDBDBNFT"/>
      <point x="294.5297436238418" y="528.0" type="curve" smooth="yes" name="CVFCTQVA"/>
      <point x="318.5713741841845" y="549.0" name="LQWNUIER"/>
      <point x="305.13634534164004" y="567.0" name="JCHSDIDT"/>
      <point x="263.41704525163374" y="570.0" type="curve" smooth="yes" name="BBGXHFGW"/>
      <point x="220.28353159925433" y="573.0" name="WCLRVEFO"/>
      <point x="165.12920266670363" y="559.0" name="AXSYLHZI"/>
      <point x="141.087572106361" y="538.0" type="curve" smooth="yes" name="WKGWCMZK"/>
      <point x="116.33883476483186" y="517.0" name="XOPFRXJI"/>
      <point x="129.77386360737626" y="498.0" name="GYDLXZWD"/>
      <point x="172.90737725975566" y="495.0" type="curve" name="HANPLPHM"/>
      <point x="172.90737725975566" y="495.0" name="MSDSKXWL"/>
      <point x="172.90737725975566" y="495.0" name="NYSHXUQN"/>
    </contour>
    <contour>
      <point x="113.51040764008565" y="-49.0" type="curve" smooth="yes" name="OORJDSIB"/>
      <point x="131.18807716974933" y="-129.0" name="SSVGJARQ"/>
      <point x="121.99568901432423" y="-153.0" name="RGEDSHWB"/>
      <point x="80.27638892431791" y="-144.0" type="curve" name="YEMLXGMO"/>
      <point x="98.66116523516814" y="-217.0" name="YNWQAIMW"/>
      <point x="121.99568901432423" y="-299.0" name="POJPFUBP"/>
      <point x="147.45153313703995" y="-382.0" type="curve" name="BNTSWGOD"/>
      <point x="248.56780284671623" y="-397.0" name="PBGQNZZU"/>
      <point x="298.06527752977456" y="-325.0" name="CUMAVGVP"/>
      <point x="241.49673503485076" y="-77.0" type="curve" smooth="yes" name="ROBTXTBF"/>
      <point x="185.6352993211135" y="166.0" name="JWCPMSXS"/>
      <point x="178.56423150924803" y="346.0" name="DVELBPRE"/>
      <point x="220.28353159925433" y="451.0" type="curve" name="ETKMPFWX"/>
      <point x="175.73580438450185" y="460.0" name="NLHUSTHJ"/>
      <point x="133.309397513309" y="463.0" name="ATOIPURN"/>
      <point x="97.95405845398162" y="459.0" type="curve" name="OCVAHJQM"/>
      <point x="56.94186514516184" y="357.0" name="BZHCHJBP"/>
      <point x="62.59871939465424" y="183.0" name="GUHTNUYP"/>
    </contour>
  </outline>
</glyph>
<glyph name="o" format="2">
  <advance width="424"/>
  <unicode hex="006F"/>
  <anchor x="-88.0" y="527" name="top"/>
  <outline>
    <contour>
      <point x="326.5512985522207" y="-178.0" type="curve" name="BHHNJKGN"/>
      <point x="436.8599564173221" y="-178.0" name="GGPZBMAE"/>
      <point x="460.19448019647825" y="24.0" name="MXYAJHYC"/>
      <point x="460.9015869776647" y="180.0" type="curve" smooth="yes" name="TIPKPBFG"/>
      <point x="460.9015869776647" y="338.0" name="CYBWWAJC"/>
      <point x="436.8599564173221" y="371.0" name="PJQTMGRR"/>
      <point x="326.5512985522207" y="371.0" type="curve" smooth="yes" name="CWDGRITY"/>
      <point x="216.24264068711926" y="371.0" name="TFAXDPDT"/>
      <point x="74.82128444980978" y="338.0" name="IFGXFASU"/>
      <point x="74.82128444980978" y="180.0" type="curve" smooth="yes" name="LKLMYJFT"/>
      <point x="74.82128444980978" y="23.0" name="MCTQPHGV"/>
      <point x="216.24264068711926" y="-178.0" name="KGCEYFCC"/>
      <point x="326.5512985522207" y="-178.0" type="curve" name="QARXVYCX"/>
      <point x="326.5512985522207" y="-178.0" name="YKJQOXTN"/>
      <point x="326.5512985522207" y="-178.0" name="YUGGLTWH"/>
    </contour>
    <contour>
      <point x="264.32590180780454" y="59.0" type="curve" name="BFNOCEOG"/>
      <point x="218.36396103067892" y="59.0" name="ZJHBUMCR"/>
      <point x="175.23044737829952" y="129.0" name="VAFLJIUN"/>
      <point x="175.23044737829952" y="203.0" type="curve" smooth="yes" name="JIZHHCPF"/>
      <point x="175.23044737829952" y="277.0" name="CKCCFZPZ"/>
      <point x="218.36396103067892" y="310.0" name="PQVDROQW"/>
      <point x="264.32590180780454" y="310.0" type="curve" smooth="yes" name="UREKXODW"/>
      <point x="310.2878425849301" y="310.0" name="GBNRUFIP"/>
      <point x="327.9655121145938" y="277.0" name="GTOZJHSX"/>
      <point x="327.9655121145938" y="203.0" type="curve" smooth="yes" name="YPWMWSGT"/>
      <point x="327.9655121145938" y="129.0" name="VORXEHSH"/>
      <point x="310.2878425849301" y="59.0" name="HFUUKCFK"/>
      <point x="264.32590180780454" y="59.0" type="curve" name="EVYSAIXP"/>
      <point x="264.32590180780454" y="59.0" name="VOTQUBNK"/>
      <point x="264.32590180780454" y="59.0" name="XLMJEXUY"/>
    </contour>
  </outline>
</glyph>
<glyph name="p" format="2">
  <advance width="438"/>
  <unicode hex="0070"/>
  <outline>
    <contour>
      <point x="282" y="-339" type="curve" name="KOFBMFRE"/>
      <point x="247" y="-226" name="PPTNJZTW"/>
      <point x="220" y="-125" name="KWQMRVHT"/>
      <point x="204" y="-39" type="curve" name="LRQKMWVG"/>
      <point x="233" y="-75" name="TYUAEALL"/>
      <point x="268" y="-97" name="PFHDKEQV"/>
      <point x="302" y="-97" type="curve" smooth="yes" name="KXYXWLML"/>
      <point x="399" y="-99" name="SSMAFGNX"/>
      <point x="450" y="56" name="YZYPJWBZ"/>
      <point x="469" y="189" type="curve" smooth="yes" name="KKYVKZUT"/>
      <point x="488" y="324" name="FWLAAWBX"/>
      <point x="464" y="353" name="HTYQATRU"/>
      <point x="367" y="356" type="curve" smooth="yes" name="YXPQPGPJ"/>
      <point x="334" y="356" name="UGBHNUXY"/>
      <point x="294" y="352" name="ZJWHZXNE"/>
      <point x="259" y="341" type="curve" name="SNLSHAFU"/>
      <point x="265" y="343" name="ASPYYMXQ"/>
      <point x="269" y="346" name="ZNENBISP"/>
      <point x="274" y="349" type="curve" name="MILTSUYL"/>
      <point x="239" y="345" name="STEJWZOF"/>
      <point x="204" y="337" name="ZNSDDEQV"/>
      <point x="174" y="326" type="curve" name="WGGHADAN"/>
      <point x="53" y="274" name="ECNNYBNY"/>
      <point x="56" y="39" name="COAMFECF"/>
      <point x="182" y="-362" type="curve" name="QIYINVQG"/>
      <point x="212" y="-351" name="BPASOAKB"/>
      <point x="247" y="-343" name="TSYAPEUO"/>
    </contour>
    <contour>
      <point x="256" y="92" type="curve" name="ITHOTRLS"/>
      <point x="211" y="92" name="TJEFMKIX"/>
      <point x="177" y="148" name="ZELGJFIK"/>
      <point x="186" y="211" type="curve" smooth="yes" name="HRGSLLPU"/>
      <point x="195" y="275" name="UYDDBKUV"/>
      <point x="241" y="302" name="SMKCDKYR"/>
      <point x="286" y="302" type="curve" smooth="yes" name="FAKTFYLX"/>
      <point x="332" y="302" name="WKRAGDPH"/>
      <point x="345" y="276" name="IWWJOMWH"/>
      <point x="336" y="212" type="curve" smooth="yes" name="OTUHZDET"/>
      <point x="327" y="147" name="LIIDGXXV"/>
      <point x="302" y="92" name="MNMQQVCK"/>
      <point x="256" y="92" type="curve" name="QCNMAZWL"/>
      <point x="256" y="92" name="YVFSKCEV"/>
      <point x="256" y="92" name="ORXCOEWQ"/>
    </contour>
  </outline>
</glyph>
<glyph name="q" format="2">
  <advance width="438"/>
  <unicode hex="0071"/>
  <outline>
    <contour>
      <point x="409" y="-339" type="curve" name="JZEQIUPB"/>
      <point x="451" y="-344" name="VQEFDCHK"/>
      <point x="496" y="-351" name="AIWHILTC"/>
      <point x="542" y="-362" type="curve" name="OBZGCREF"/>
      <point x="416" y="39" name="KMXUALGX"/>
      <point x="413" y="274" name="YFSQBHGK"/>
      <point x="534" y="326" type="curve" name="BWPHGHHC"/>
      <point x="488" y="337" name="QZDEQISI"/>
      <point x="442" y="345" name="DBIANBVR"/>
      <point x="401" y="349" type="curve" name="ICWOWRQC"/>
      <point x="396" y="347" name="LWWUTCLF"/>
      <point x="392" y="344" name="BRLOZBJV"/>
      <point x="387" y="341" type="curve" name="SSXBPBTI"/>
      <point x="375" y="351" name="KOOXIHUT"/>
      <point x="352" y="356" name="DOSPJELQ"/>
      <point x="318" y="356" type="curve" smooth="yes" name="YKLDYSRX"/>
      <point x="225" y="354" name="XNBJHNTN"/>
      <point x="88" y="323" name="STPLEOQY"/>
      <point x="68" y="189" type="curve" smooth="yes" name="MZFXAZTL"/>
      <point x="49" y="56" name="SZMNRRLQ"/>
      <point x="160" y="-99" name="SCTJEUEJ"/>
      <point x="254" y="-97" type="curve" smooth="yes" name="HQSNZCSO"/>
      <point x="288" y="-97" name="MQPXIMES"/>
      <point x="314" y="-75" name="NWEEENUT"/>
      <point x="331" y="-39" type="curve" name="NXZSZERU"/>
      <point x="347" y="-124" name="PMUBJKQH"/>
      <point x="374" y="-226" name="IXJLCHDA"/>
    </contour>
    <contour>
      <point x="239" y="92" type="curve" name="AEJBAKCS"/>
      <point x="193" y="92" name="IOHZIGNR"/>
      <point x="160" y="147" name="TKDWKZNL"/>
      <point x="169" y="212" type="curve" smooth="yes" name="OBYQCXGA"/>
      <point x="178" y="276" name="UGJVGCZF"/>
      <point x="223" y="302" name="HYCIMANU"/>
      <point x="269" y="302" type="curve" smooth="yes" name="NYQFDWUB"/>
      <point x="314" y="302" name="MMOEYOVB"/>
      <point x="328" y="275" name="VTACPUFO"/>
      <point x="319" y="211" type="curve" smooth="yes" name="VFIURVLK"/>
      <point x="310" y="148" name="DFJSWXQM"/>
      <point x="284" y="92" name="YAGAMMRH"/>
      <point x="239" y="92" type="curve" name="CPISHRSV"/>
      <point x="239" y="92" name="JIMPXSEK"/>
      <point x="239" y="92" name="DFQDHCBP"/>
    </contour>
  </outline>
</glyph>
<glyph name="w" format="2">
  <advance width="548"/>
  <unicode hex="0077"/>
  <outline>
    <contour>
      <point x="231" y="-166" type="curve" name="TYADESJX"/>
      <point x="264" y="-160" name="PLWMYIKM"/>
      <point x="301" y="-156" name="XPRVLDLZ"/>
      <point x="337" y="-154" type="curve" name="AKQFWWHN"/>
      <point x="305" y="-6" name="LSXUVIKR"/>
      <point x="296" y="115" name="CSKWDKIK"/>
      <point x="309" y="199" type="curve" name="QPMSIVSV"/>
      <point x="326" y="115" name="WYBDCZJW"/>
      <point x="367" y="-6" name="CDUQXLDH"/>
      <point x="429" y="-154" type="curve" name="VQMOQUZK"/>
      <point x="468" y="-156" name="IJPTLRRN"/>
      <point x="510" y="-160" name="NZGTOKHI"/>
      <point x="552" y="-166" type="curve" name="FDSWUESH"/>
      <point x="497" y="135" name="WXXXCXXB"/>
      <point x="540" y="302" name="FPWPOWTX"/>
      <point x="681" y="326" type="curve" name="HPBEFSOG"/>
      <point x="635" y="337" name="PPEEMWQZ"/>
      <point x="589" y="345" name="MRFQVFLY"/>
      <point x="546" y="352" type="curve" name="GSWYCEUZ"/>
      <point x="473" y="336" name="LWBVZNKP"/>
      <point x="426" y="276" name="PYPIDUSI"/>
      <point x="413" y="175" type="curve" name="YSNHQWQV"/>
      <point x="390" y="279" name="CCBEOJRY"/>
      <point x="397" y="343" name="AGAQKAFE"/>
      <point x="434" y="363" type="curve" name="NOIYVNSJ"/>
      <point x="399" y="365" name="PQBZMNTS"/>
      <point x="366" y="365" name="WFQONGVT"/>
      <point x="334" y="363" type="curve" name="IVYKHCCN"/>
      <point x="266" y="344" name="DESCLUKH"/>
      <point x="226" y="280" name="YAQKDKKY"/>
      <point x="216" y="179" type="curve" name="WHIXWSZD"/>
      <point x="194" y="277" name="XOWANWZL"/>
      <point x="201" y="336" name="XNAPJWDF"/>
      <point x="237" y="352" type="curve" name="TRQBXZNO"/>
      <point x="203" y="346" name="ZDSSPGWN"/>
      <point x="169" y="337" name="LGHKMMZA"/>
      <point x="138" y="326" type="curve" name="MQSXSAOY"/>
      <point x="70" y="302" name="WWCFXYQX"/>
      <point x="102" y="135" name="EDUKVOXF"/>
    </contour>
  </outline>
</glyph>
<glyph name="z" format="2">
  <advance width="346"/>
  <unicode hex="007A"/>
  <outline>
    <contour>
      <point x="156.73654403270942" y="-182.0" type="curve" name="COXPWRWY"/>
      <point x="233.10407640085657" y="-155.0" name="CAEFGXOY"/>
      <point x="332.0990257669732" y="-155.0" name="VBQRVFWA"/>
      <point x="446.65032431919394" y="-182.0" type="curve" name="BUZECFNI"/>
      <point x="420.48737341529164" y="-98.0" name="LCIYATZD"/>
      <point x="400.6883835420683" y="-22.0" name="MSQNFNNR"/>
      <point x="388.66756826189703" y="42.0" type="curve" name="GJPFHXJJ"/>
      <point x="329.97770542341357" y="56.0" name="ZVOYHCVI"/>
      <point x="275.5304832720494" y="63.0" name="CMANNMZX"/>
      <point x="226.7401153701776" y="63.0" type="curve" name="ZIOBZYLH"/>
      <point x="255.73149339882605" y="168.0" name="NZRDEVRN"/>
      <point x="310.1787155501902" y="239.0" name="MYAAQUXK"/>
      <point x="388.66756826189703" y="274.0" type="curve" name="UKAIQXBG"/>
      <point x="400.6883835420683" y="304.0" name="QBPKYLRP"/>
      <point x="420.48737341529164" y="325.0" name="TGXFKDMD"/>
      <point x="446.65032431919394" y="335.0" type="curve" name="SESISVZO"/>
      <point x="332.0990257669732" y="362.0" name="HUIDBJTQ"/>
      <point x="233.10407640085657" y="362.0" name="SEARJPBS"/>
      <point x="156.73654403270942" y="335.0" type="curve" name="LEOYWQJN"/>
      <point x="130.57359312880715" y="325.0" name="PBSIBUSI"/>
      <point x="110.77460325558383" y="304.0" name="DKPVCXQX"/>
      <point x="98.75378797541251" y="274.0" type="curve" name="AHXYWQIH"/>
      <point x="137.64466094067262" y="288.0" name="WQBCGPFJ"/>
      <point x="182.1923881554251" y="295.0" name="RLNVRVKW"/>
      <point x="230.9827560572969" y="295.0" type="curve" name="FESGEUFF"/>
      <point x="163.10050506338834" y="245.0" name="UTBZBTLX"/>
      <point x="117.8456710674493" y="161.0" name="IXIVVDBR"/>
      <point x="98.75378797541251" y="42.0" type="curve" name="MFXAWVJR"/>
      <point x="110.77460325558383" y="-22.0" name="ZJAIMHEO"/>
      <point x="130.57359312880715" y="-98.0" name="TGWUHHXL"/>
    </contour>
  </outline>
</glyph>
<glyph name="braceleft" format="2">
  <advance width="325"/>
  <unicode hex="007B"/>
  <outline>
    <contour>
      <point x="55" y="199" type="curve" name="AOMNFJJR"/>
      <point x="65" y="203" name="AUADDTLP"/>
      <point x="76" y="206" name="TXAGUFYC"/>
      <point x="86" y="209" type="curve" smooth="yes" name="UPJXFQMK"/>
      <point x="99" y="212" name="XOCGZRAZ"/>
      <point x="107" y="203" name="JATHJIQI"/>
      <point x="109" y="181" type="curve" smooth="yes" name="XZZSQKEA"/>
      <point x="114" y="128" name="AJHGSREL"/>
      <point x="101" y="43" name="LUGFUUBQ"/>
      <point x="136" y="-103" type="curve" smooth="yes" name="MYLILQGU"/>
      <point x="187" y="-318" name="PKJUWVJY"/>
      <point x="306" y="-413" name="GPEMEBBS"/>
      <point x="449" y="-376" type="curve" name="IGPQIPOZ"/>
      <point x="423" y="-291" name="ARUYXTYC"/>
      <point x="400" y="-208" name="IBLZVQKP"/>
      <point x="381" y="-134" type="curve" name="BFMSBQXW"/>
      <point x="292" y="-165" name="CZXRNZAG"/>
      <point x="252" y="-133" name="YTPFLAQP"/>
      <point x="236" y="-63" type="curve" smooth="yes" name="NZIKNHVV"/>
      <point x="220" y="8" name="XMMEZKIY"/>
      <point x="231" y="97" name="ITXJKKTY"/>
      <point x="222" y="185" type="curve" smooth="yes" name="ZKIWRRSF"/>
      <point x="218" y="231" name="ATLOWZXT"/>
      <point x="204" y="270" name="SDELKZFT"/>
      <point x="173" y="289" type="curve" name="YYCMMTVV"/>
      <point x="204" y="309" name="KDQHHJOM"/>
      <point x="218" y="342" name="CAOZVVSW"/>
      <point x="222" y="376" type="curve" smooth="yes" name="QBWYWEDJ"/>
      <point x="231" y="440" name="JQLNHTHF"/>
      <point x="220" y="481" name="LLSGUEII"/>
      <point x="236" y="506" type="curve" smooth="yes" name="FSLHQPUH"/>
      <point x="253" y="531" name="JRVHMJMM"/>
      <point x="292" y="546" name="ZNSHSWDB"/>
      <point x="381" y="505" type="curve" name="UNHMIVMZ"/>
      <point x="400" y="527" name="WSRALYPR"/>
      <point x="423" y="544" name="NRQANGHK"/>
      <point x="449" y="555" type="curve" name="QDLXSZWA"/>
      <point x="306" y="604" name="KYRIFSHA"/>
      <point x="187" y="577" name="AHRUJYRH"/>
      <point x="136" y="506" type="curve" smooth="yes" name="SHZLXGYC"/>
      <point x="101" y="459" name="WRYIYGXC"/>
      <point x="114" y="411" name="QKVDRBRV"/>
      <point x="109" y="372" type="curve" smooth="yes" name="HHNFZMDT"/>
      <point x="107" y="356" name="YCJDTZNY"/>
      <point x="99" y="347" name="FPMYIPEP"/>
      <point x="86" y="344" type="curve" smooth="yes" name="PIYIOZUG"/>
      <point x="76" y="341" name="LQCWIRXV"/>
      <point x="65" y="338" name="LDQHSTQX"/>
      <point x="55" y="334" type="curve" name="MKUUQBUM"/>
      <point x="51" y="294" name="UGLVJCHO"/>
      <point x="51" y="249" name="OJWARDYE"/>
    </contour>
  </outline>
</glyph>
<glyph name="bar" format="2">
  <advance width="223"/>
  <unicode hex="007C"/>
  <outline>
    <contour>
      <point x="323" y="-377" type="curve" name="LEMXWTKM"/>
      <point x="149" y="176" name="DTHQKRQA"/>
      <point x="149" y="492" name="USNGXYIF"/>
      <point x="323" y="553" type="curve" name="MNFQZIBI"/>
      <point x="277" y="564" name="SAPLXLPF"/>
      <point x="237" y="564" name="OBXGAOTJ"/>
      <point x="207" y="553" type="curve" name="QWPJRQMR"/>
      <point x="33" y="492" name="FTCOXHYK"/>
      <point x="33" y="176" name="PWOXHWDJ"/>
      <point x="207" y="-377" type="curve" name="MAQKAMJL"/>
      <point x="237" y="-366" name="GCPUWTWL"/>
      <point x="277" y="-366" name="VWKXULNM"/>
    </contour>
  </outline>
</glyph>
<glyph name="sterling" format="2">
  <advance width="397"/>
  <unicode hex="00A3"/>
  <outline>
    <contour>
      <point x="85.71646840074567" y="192.0" type="curve" name="NYGMNFPL"/>
      <point x="99.85860402447662" y="197.0" name="RLQQZMMK"/>
      <point x="114.70784642939412" y="202.0" name="ULNWXUTM"/>
      <point x="130.26419561549815" y="205.0" type="curve" name="FADACTBV"/>
      <point x="138.04237020855018" y="173.0" name="CIYBWGRV"/>
      <point x="145.11343802041566" y="143.0" name="VQKJNCQM"/>
      <point x="149.35607870753495" y="119.0" type="curve" smooth="yes" name="QRXNNWYX"/>
      <point x="157.13425330058698" y="78.0" name="GAJCBIIY"/>
      <point x="151.47739905109458" y="60.0" name="URRQXIIO"/>
      <point x="131.67840917787126" y="54.0" type="curve" smooth="yes" name="QZMDWBJS"/>
      <point x="124.60734136600578" y="52.0" name="GIMTNBFG"/>
      <point x="117.53627355414031" y="49.0" name="UDYPQZMT"/>
      <point x="110.46520574227483" y="47.0" type="curve" name="HYXKSDPE"/>
      <point x="126.02155492837886" y="-25.0" name="YDAZWCKZ"/>
      <point x="149.35607870753495" y="-111.0" name="CGYDDJFA"/>
      <point x="177.64034995499685" y="-201.0" type="curve" name="VJHQPPJL"/>
      <point x="264.6144840409422" y="-170.0" name="UFRXNFAM"/>
      <point x="376.3373554684167" y="-170.0" name="HCJCKCRL"/>
      <point x="507.15210998792804" y="-201.0" type="curve" name="HICVUHRG"/>
      <point x="478.86783874046614" y="-111.0" name="MGYANYMM"/>
      <point x="455.53331496131" y="-25.0" name="IXLHGDDX"/>
      <point x="439.97696577520605" y="47.0" type="curve" name="OZQNRDQV"/>
      <point x="379.8728893743495" y="61.0" name="TUIVEKCN"/>
      <point x="321.8901333170526" y="69.0" name="JXEGNXMN"/>
      <point x="270.97844507162114" y="70.0" type="curve" name="TRWNJJHN"/>
      <point x="268.8571247280615" y="91.0" name="DFEODRQM"/>
      <point x="266.0286976033153" y="112.0" name="PKZXVKDQ"/>
      <point x="262.49316369738256" y="134.0" type="curve" smooth="yes" name="DWFPUTCX"/>
      <point x="256.8363094478902" y="163.0" name="VIPRKSQW"/>
      <point x="251.88656197958437" y="190.0" name="FIOFOKIG"/>
      <point x="246.9368145112785" y="215.0" type="curve" name="OHSAQAVW"/>
      <point x="287.94900782009825" y="215.0" name="KWBGHCDK"/>
      <point x="333.91094859722386" y="209.0" name="SGPXQMYP"/>
      <point x="381.2871029367226" y="200.0" type="curve" name="IJTBAHRM"/>
      <point x="375.63024868723016" y="253.0" name="UGWTAJME"/>
      <point x="374.21603512485706" y="300.0" name="OJSMDSCN"/>
      <point x="378.4586758119764" y="339.0" type="curve" name="ORTWPZEY"/>
      <point x="323.3043468794257" y="350.0" name="PUKZTYRJ"/>
      <point x="270.2713382904346" y="356.0" name="EEQOYDSJ"/>
      <point x="223.6022907321224" y="355.0" type="curve" name="RDKELEZS"/>
      <point x="221.4809703885628" y="376.0" name="DPSZKJGI"/>
      <point x="222.18807716974936" y="392.0" name="ALGLMIBQ"/>
      <point x="225.72361107568207" y="405.0" type="curve" smooth="yes" name="GWVHOKQK"/>
      <point x="241.27996026178613" y="466.0" name="NKOPIDET"/>
      <point x="321.8901333170526" y="475.0" name="XCRJDSUE"/>
      <point x="415.93533521486336" y="413.0" type="curve" name="DNVZUVRB"/>
      <point x="429.37036405740776" y="449.0" name="ITQIEDEG"/>
      <point x="451.2906742741908" y="474.0" name="PUVIAIRK"/>
      <point x="479.5749455216526" y="489.0" type="curve" name="UBEWOYUA"/>
      <point x="353.7099384704472" y="541.0" name="YUVQYVDD"/>
      <point x="164.912427893639" y="539.0" name="KHSNZXZE"/>
      <point x="119.65759389769994" y="412.0" type="curve" smooth="yes" name="LKGQADCA"/>
      <point x="113.29363286702102" y="391.0" name="PUDHCSEO"/>
      <point x="109.75809896108828" y="368.0" name="XFICXBVY"/>
      <point x="110.46520574227483" y="341.0" type="curve" name="CJUIHMMT"/>
      <point x="101.27281758684973" y="338.0" name="OGZWPUJE"/>
      <point x="91.37332265023804" y="335.0" name="QRZRRNUH"/>
      <point x="82.18093449481293" y="332.0" type="curve" name="VXUPJXLD"/>
      <point x="77.93829380769364" y="293.0" name="GLAHXTGT"/>
      <point x="79.35250737006675" y="246.0" name="JCTHCEPC"/>
    </contour>
  </outline>
</glyph>
<glyph name="currency" format="2">
  <advance width="456"/>
  <unicode hex="00A4"/>
  <outline>
    <contour>
      <point x="214.5649711574556" y="-144.0" type="curve" name="QWWDXDWB"/>
      <point x="216.68629150101526" y="-88.0" name="MHWHDRZR"/>
      <point x="220.22182540694797" y="-32.0" name="KAXRNOOL"/>
      <point x="228.70710678118655" y="15.0" type="curve" name="UXKZNPTW"/>
      <point x="255.57716446627535" y="-5.0" name="EITZVDGD"/>
      <point x="283.1543289325507" y="-16.0" name="CAFBURXB"/>
      <point x="310.73149339882605" y="-16.0" type="curve" smooth="yes" name="ZWLGHYUX"/>
      <point x="339.01576464628795" y="-16.0" name="FUTCCSGJ"/>
      <point x="363.0573952066306" y="-5.0" name="SUYXNYKD"/>
      <point x="380.73506473629425" y="17.0" type="curve" name="JHTVQOTW"/>
      <point x="415.38329701443513" y="-32.0" name="ZJBYJXGR"/>
      <point x="453.56706319850866" y="-86.0" name="SMLEJMQY"/>
      <point x="494.5792565073284" y="-144.0" type="curve" name="MYSLDHHJ"/>
      <point x="503.06453788156705" y="-84.0" name="KUPEJGSI"/>
      <point x="516.4995667241114" y="-27.0" name="ROUIBDYM"/>
      <point x="534.1772362537752" y="20.0" type="curve" name="AFTYYXUH"/>
      <point x="498.1147904132612" y="71.0" name="NXJFVSUT"/>
      <point x="464.17366491630685" y="119.0" name="VQPBFJTA"/>
      <point x="434.47518010647195" y="161.0" type="curve" name="VQCLNPVX"/>
      <point x="440.13203435596427" y="200.0" name="XOPTOAFJ"/>
      <point x="442.2533546995239" y="242.0" name="RUFIRFHZ"/>
      <point x="442.2533546995239" y="282.0" type="curve" smooth="yes" name="WQPTHJQH"/>
      <point x="442.2533546995239" y="321.0" name="JORJEBNQ"/>
      <point x="440.13203435596427" y="352.0" name="LGFSPRII"/>
      <point x="435.1822868876584" y="377.0" type="curve" name="BLDUWWBH"/>
      <point x="464.8807716974934" y="394.0" name="KMJDVEBI"/>
      <point x="498.1147904132612" y="408.0" name="DBQGOTRW"/>
      <point x="534.1772362537752" y="416.0" type="curve" name="FOUEFYOI"/>
      <point x="516.4995667241114" y="441.0" name="MFYXAJXT"/>
      <point x="503.06453788156705" y="460.0" name="MRAAOVGM"/>
      <point x="494.5792565073284" y="472.0" type="curve" name="BZINUECE"/>
      <point x="453.56706319850866" y="470.0" name="GRCCGYGG"/>
      <point x="415.38329701443513" y="464.0" name="ASZDYWFE"/>
      <point x="380.73506473629425" y="453.0" type="curve" name="JNUHGVHV"/>
      <point x="363.0573952066306" y="461.0" name="LENNYIKJ"/>
      <point x="339.01576464628795" y="466.0" name="ZAFOKZYL"/>
      <point x="310.73149339882605" y="466.0" type="curve" smooth="yes" name="EHPIRXMS"/>
      <point x="283.1543289325507" y="466.0" name="VASKXOBM"/>
      <point x="255.57716446627535" y="461.0" name="QPKVNPMK"/>
      <point x="228.70710678118655" y="453.0" type="curve" name="LFFWHIFG"/>
      <point x="220.92893218813452" y="463.0" name="JEAALLAV"/>
      <point x="216.68629150101526" y="470.0" name="JYNLPQSU"/>
      <point x="214.5649711574556" y="472.0" type="curve" name="XBLLFOLA"/>
      <point x="172.13856428626275" y="460.0" name="MZXLYFDH"/>
      <point x="131.83347775862953" y="441.0" name="VCAYRERG"/>
      <point x="98.59945904286178" y="416.0" type="curve" name="RUVNBQZV"/>
      <point x="104.25631329235418" y="407.0" name="ZSALAJAU"/>
      <point x="113.44870144777929" y="395.0" name="OOCUNYVZ"/>
      <point x="125.4695167279506" y="377.0" type="curve" name="QDEADDTN"/>
      <point x="110.6202743230331" y="352.0" name="OPWRETQJ"/>
      <point x="101.427886167608" y="321.0" name="TZKTUJNG"/>
      <point x="101.427886167608" y="282.0" type="curve" smooth="yes" name="HWHTFVZV"/>
      <point x="101.427886167608" y="242.0" name="ZRUDXLIL"/>
      <point x="110.6202743230331" y="200.0" name="JROKQLRA"/>
      <point x="126.17662350913713" y="161.0" type="curve" name="GUFSYVIP"/>
      <point x="114.15580822896584" y="118.0" name="BJOWYGIY"/>
      <point x="104.25631329235418" y="72.0" name="OQNSFLOZ"/>
      <point x="98.59945904286178" y="20.0" type="curve" name="AVSULHDI"/>
      <point x="131.83347775862953" y="-27.0" name="SPVLWUNV"/>
      <point x="172.13856428626275" y="-84.0" name="EHQCIHPM"/>
    </contour>
    <contour>
      <point x="266.1837661840736" y="192.0" type="curve" name="ASCDSGPM"/>
      <point x="226.5857864376269" y="192.0" name="SMOSCZIG"/>
      <point x="196.18019484660533" y="239.0" name="KZEPNHQF"/>
      <point x="196.18019484660533" y="298.0" type="curve" smooth="yes" name="AFXAGTVG"/>
      <point x="196.18019484660533" y="357.0" name="UMZTYKCW"/>
      <point x="227.29289321881345" y="385.0" name="KKRKKNFM"/>
      <point x="266.8908729652601" y="385.0" type="curve" smooth="yes" name="TIWSWDSR"/>
      <point x="306.4888527117068" y="385.0" name="NVFXGSVM"/>
      <point x="325.58073580374355" y="357.0" name="VJEKMZEQ"/>
      <point x="325.58073580374355" y="298.0" type="curve" smooth="yes" name="SMAUGPZZ"/>
      <point x="325.58073580374355" y="239.0" name="HLTUGMCB"/>
      <point x="305.78174593052023" y="192.0" name="IYKBHCPC"/>
      <point x="266.1837661840736" y="192.0" type="curve" name="XVQPANOP"/>
      <point x="266.1837661840736" y="192.0" name="HYIZIKQA"/>
      <point x="266.1837661840736" y="192.0" name="BHNTLNQD"/>
    </contour>
  </outline>
</glyph>
<glyph name="brokenbar" format="2">
  <advance width="223"/>
  <unicode hex="00A6"/>
  <outline>
    <contour>
      <point x="192.4637264458597" y="308.0" type="curve" name="EWFGDKSM"/>
      <point x="198.82768747653864" y="441.0" name="LCBKDMBM"/>
      <point x="242.66830791010455" y="525.0" name="FNIICKZG"/>
      <point x="323.278480965371" y="553.0" type="curve" name="UFFOYUHQ"/>
      <point x="277.3165401882454" y="564.0" name="EHOWHLWW"/>
      <point x="237.01145366061218" y="564.0" name="MPAXPIGB"/>
      <point x="206.60586206959064" y="553.0" type="curve" name="CZTBWKPP"/>
      <point x="125.99568901432423" y="525.0" name="NAUDJJXB"/>
      <point x="82.15506858075827" y="441.0" name="QRMUKBNP"/>
      <point x="75.79110755007935" y="308.0" type="curve" name="SUNKWOZQ"/>
      <point x="106.19669914110091" y="319.0" name="UTEDLEAP"/>
      <point x="146.5017856687341" y="319.0" name="EVBNXBMX"/>
    </contour>
    <contour>
      <point x="323.278480965371" y="-377.0" type="curve" name="NUXWBENM"/>
      <point x="242.66830791010455" y="-121.0" name="SGGZQEBH"/>
      <point x="198.82768747653864" y="87.0" name="GQDLNNTD"/>
      <point x="192.4637264458597" y="238.0" type="curve" name="NKLDLTXV"/>
      <point x="146.5017856687341" y="249.0" name="CPLMANSH"/>
      <point x="106.19669914110091" y="249.0" name="WNCDJNWD"/>
      <point x="75.79110755007935" y="238.0" type="curve" name="GHYBPFHS"/>
      <point x="82.15506858075827" y="87.0" name="OJCHPYLI"/>
      <point x="125.99568901432423" y="-121.0" name="FGWWABLQ"/>
      <point x="206.60586206959064" y="-377.0" type="curve" name="UEEIULBS"/>
      <point x="237.01145366061218" y="-366.0" name="PHYNWFNE"/>
      <point x="277.3165401882454" y="-366.0" name="LLENRPQJ"/>
    </contour>
  </outline>
</glyph>
<glyph name="copyright" format="2">
  <advance width="567"/>
  <unicode hex="00A9"/>
  <outline>
    <contour>
      <point x="409" y="-188" type="curve" name="TLAFCCVR"/>
      <point x="556" y="-189" name="RVRRWFLZ"/>
      <point x="581" y="68" name="KYRJSAGB"/>
      <point x="581" y="273" type="curve" smooth="yes" name="YCLUFVLK"/>
      <point x="581" y="478" name="QMAGFAUV"/>
      <point x="556" y="521" name="FVVWYSHZ"/>
      <point x="409" y="522" type="curve" smooth="yes" name="VJMDWMBN"/>
      <point x="262" y="522" name="JRXKGHVQ"/>
      <point x="81" y="478" name="LJLADGFD"/>
      <point x="81" y="273" type="curve" smooth="yes" name="WSASAHEZ"/>
      <point x="81" y="68" name="QDSVDKDH"/>
      <point x="262" y="-188" name="SWDKTFTH"/>
      <point x="409" y="-188" type="curve" name="GCDOHFDZ"/>
      <point x="409" y="-188" name="FHUKHBCT"/>
      <point x="409" y="-188" name="CFKOCWDK"/>
    </contour>
    <contour>
      <point x="360" y="-18" type="curve" name="COJZMXXB"/>
      <point x="256" y="-17" name="MDCQQNQN"/>
      <point x="145" y="144" name="ZDODWFTC"/>
      <point x="145" y="291" type="curve" smooth="yes" name="NMNXTVEZ"/>
      <point x="145" y="438" name="HSJJRXKE"/>
      <point x="256" y="491" name="NVTTKXHR"/>
      <point x="360" y="490" type="curve" smooth="yes" name="QALLRJCP"/>
      <point x="463" y="490" name="BZUMYPQT"/>
      <point x="492" y="438" name="GMCVYMRM"/>
      <point x="492" y="291" type="curve" smooth="yes" name="YVWIZOSR"/>
      <point x="492" y="144" name="WRYYHHLD"/>
      <point x="463" y="-18" name="FYRLSIUQ"/>
      <point x="360" y="-18" type="curve" name="ZYKLKGWQ"/>
      <point x="360" y="-18" name="MUNQPTCS"/>
      <point x="360" y="-18" name="EEPQUFMB"/>
    </contour>
    <contour>
      <point x="201" y="301" type="curve" name="EPMQENWR"/>
      <point x="201" y="169" name="VQZQGLIN"/>
      <point x="309" y="59" name="XGFIIEKC"/>
      <point x="410" y="111" type="curve" name="KNOEYFZZ"/>
      <point x="401" y="161" name="TUNJVQCR"/>
      <point x="395" y="207" name="YYNAGUFG"/>
      <point x="391" y="249" type="curve" name="CQTYKZTN"/>
      <point x="341" y="217" name="TUZWUWYY"/>
      <point x="287" y="242" name="LNCJBIKP"/>
      <point x="287" y="308" type="curve" smooth="yes" name="MTLBQDQA"/>
      <point x="287" y="374" name="NBYDHQEU"/>
      <point x="341" y="389" name="WEKLOCIN"/>
      <point x="391" y="355" type="curve" name="VICPJLTF"/>
      <point x="395" y="387" name="WWQFIMKS"/>
      <point x="401" y="415" name="EUDZERVO"/>
      <point x="410" y="439" type="curve" name="QJCIVMZL"/>
      <point x="309" y="477" name="BSEGJBKH"/>
      <point x="201" y="433" name="QWHBTLMO"/>
      <point x="201" y="301" type="curve" name="DLCODSXN"/>
      <point x="201" y="301" name="AVOSYLGD"/>
      <point x="201" y="301" name="RXVLHCUC"/>
    </contour>
  </outline>
</glyph>
<glyph name="ordfeminine" format="2">
  <advance width="351"/>
  <unicode hex="00AA"/>
  <outline>
    <contour>
      <point x="269" y="215" type="curve" name="GSFEACLJ"/>
      <point x="304" y="212" name="VQFNQVYB"/>
      <point x="342" y="205" name="EFEGCQBS"/>
      <point x="381" y="196" type="curve" name="UBWMKIGO"/>
      <point x="353" y="366" name="QDRRXFSK"/>
      <point x="375" y="469" name="DAQWPNHD"/>
      <point x="445" y="500" type="curve" name="ZISOZXTT"/>
      <point x="406" y="509" name="NHBBJXXZ"/>
      <point x="369" y="515" name="QMGPIQVN"/>
      <point x="334" y="518" type="curve" name="IQAPJIZW"/>
      <point x="331" y="517" name="ZJJMPTWF"/>
      <point x="328" y="515" name="TUSNWYKB"/>
      <point x="325" y="513" type="curve" name="CACSFYPZ"/>
      <point x="317" y="520" name="OZNURPMG"/>
      <point x="302" y="523" name="RWISGEVA"/>
      <point x="279" y="523" type="curve" smooth="yes" name="BUCYZUQU"/>
      <point x="208" y="521" name="NYSVHSQU"/>
      <point x="104" y="498" name="SIVTPZCF"/>
      <point x="84" y="401" type="curve" smooth="yes" name="KDBZGZAZ"/>
      <point x="63" y="306" name="SWYRRTAZ"/>
      <point x="140" y="200" name="HTRSIKIJ"/>
      <point x="211" y="202" type="curve" smooth="yes" name="LUFGATNF"/>
      <point x="234" y="202" name="SGDCPLNA"/>
      <point x="252" y="216" name="EUPIMQJE"/>
      <point x="266" y="238" type="curve" name="VEBDHIFF"/>
      <point x="267" y="231" name="VSWVQQCL"/>
      <point x="268" y="222" name="OOUTREYW"/>
    </contour>
    <contour>
      <point x="209" y="349" type="curve" name="QOOMEDKX"/>
      <point x="179" y="349" name="LISJHDLE"/>
      <point x="161" y="381" name="GFJARUZB"/>
      <point x="169" y="420" type="curve" smooth="yes" name="UVLBJGLQ"/>
      <point x="177" y="459" name="ISIFSMPQ"/>
      <point x="206" y="476" name="YPMSCQKM"/>
      <point x="236" y="476" type="curve" smooth="yes" name="DCQCAMJV"/>
      <point x="266" y="476" name="RQQXGWHR"/>
      <point x="276" y="458" name="MZYEHZXR"/>
      <point x="267" y="420" type="curve" smooth="yes" name="GXQDHCHR"/>
      <point x="259" y="382" name="QANXNCTT"/>
      <point x="239" y="349" name="OEMEKUSP"/>
      <point x="209" y="349" type="curve" name="NYPDOCFL"/>
      <point x="209" y="349" name="YEIPQNHA"/>
      <point x="209" y="349" name="PFNSBHCC"/>
    </contour>
    <contour>
      <point x="172" y="-83" type="curve" name="QFOIUJWM"/>
      <point x="247" y="-59" name="FDMJLFWN"/>
      <point x="342" y="-61" name="YIVWLODY"/>
      <point x="452" y="-87" type="curve" name="IOBGXHUK"/>
      <point x="428" y="-9" name="GZELHTBD"/>
      <point x="408" y="61" name="IDKFTNHH"/>
      <point x="395" y="123" type="curve" name="KWMOGLPT"/>
      <point x="285" y="149" name="SJBRHSMX"/>
      <point x="190" y="150" name="YORCNSXP"/>
      <point x="114" y="127" type="curve" name="YMHTGTBW"/>
      <point x="128" y="65" name="ARKZLWON"/>
      <point x="147" y="-5" name="OMFMWTDX"/>
    </contour>
  </outline>
</glyph>
<glyph name="guillemetleft" format="2">
  <advance width="549"/>
  <unicode hex="00AB"/>
  <outline>
    <contour>
      <point x="93" y="80" type="curve" name="SYNYCGBI"/>
      <point x="164" y="22" name="LUQTGXVQ"/>
      <point x="256" y="-66" name="MTMMPLFO"/>
      <point x="365" y="-178" type="curve" name="BRTHSQHH"/>
      <point x="330" y="-68" name="JLABQWKF"/>
      <point x="306" y="30" name="SIGENDYB"/>
      <point x="295" y="107" type="curve" name="IOMJNGZD"/>
      <point x="250" y="147" name="NCGOAOVL"/>
      <point x="210" y="180" name="AOSHRXCZ"/>
      <point x="176" y="205" type="curve" name="DOKFFNSR"/>
      <point x="210" y="243" name="XIMEZWQG"/>
      <point x="251" y="273" name="GDYZCSMQ"/>
      <point x="295" y="296" type="curve" name="EOGGKNTE"/>
      <point x="307" y="340" name="ZIEKTKLE"/>
      <point x="331" y="369" name="NJMYLAKD"/>
      <point x="365" y="381" type="curve" name="GWEKYAIT"/>
      <point x="256" y="367" name="DEKYSIYY"/>
      <point x="164" y="325" name="UHUECTMA"/>
      <point x="93" y="257" type="curve" name="NTQUCFQO"/>
      <point x="83" y="213" name="TDZAPFPI"/>
      <point x="83" y="152" name="LOKNOOPX"/>
    </contour>
    <contour>
      <point x="331" y="114" type="curve" name="OSGKAGCI"/>
      <point x="418" y="33" name="QKCFIULO"/>
      <point x="526" y="-78" name="PKFZGIOZ"/>
      <point x="650" y="-212" type="curve" name="TZHBIBZS"/>
      <point x="616" y="-102" name="GWIUEXTH"/>
      <point x="592" y="-4" name="KKLYECGF"/>
      <point x="580" y="73" type="curve" name="AZCVMYLG"/>
      <point x="527" y="125" name="OJPJIOVK"/>
      <point x="479" y="169" name="OGSNJIRO"/>
      <point x="436" y="207" type="curve" name="QFWEFQUB"/>
      <point x="479" y="232" name="GBGOJEHW"/>
      <point x="528" y="251" name="LDFSTZVL"/>
      <point x="581" y="262" type="curve" name="ZWGYSRNO"/>
      <point x="593" y="305" name="XREPDJBR"/>
      <point x="616" y="335" name="SGLVDMNS"/>
      <point x="650" y="347" type="curve" name="MIYWWZJU"/>
      <point x="526" y="355" name="ZSXLODIO"/>
      <point x="418" y="336" name="VXGPKYXN"/>
      <point x="331" y="291" type="curve" name="YTXSZTIV"/>
      <point x="321" y="247" name="ZDFBFSMD"/>
      <point x="321" y="186" name="HPLVCVEN"/>
    </contour>
  </outline>
</glyph>
<glyph name="hyphensoft" format="2">
  <advance width="240"/>
  <unicode hex="00AD"/>
  <outline>
    <contour>
      <point x="124.94974746830584" y="89.0" type="curve" name="OTDZPYVZ"/>
      <point x="175.1543289325507" y="107.0" name="XIVIDLPO"/>
      <point x="240.20815280171308" y="107.0" name="YRRETSQI"/>
      <point x="315.86857838867365" y="89.0" type="curve" name="CGABYFHP"/>
      <point x="286.8772003600252" y="181.0" name="UTRQFUPJ"/>
      <point x="286.8772003600252" y="234.0" name="HGLIKHZV"/>
      <point x="315.86857838867365" y="244.0" type="curve" name="WRQUUTHD"/>
      <point x="240.20815280171308" y="262.0" name="UDSPFGQK"/>
      <point x="175.1543289325507" y="262.0" name="GOAORWXL"/>
      <point x="124.94974746830584" y="244.0" type="curve" name="FYGZGDGW"/>
      <point x="95.95836943965739" y="234.0" name="NKHBVDAL"/>
      <point x="95.95836943965739" y="181.0" name="PNNRVDPR"/>
    </contour>
  </outline>
</glyph>
<glyph name="registered" format="2">
  <advance width="434"/>
  <unicode hex="00AE"/>
  <outline>
    <contour>
      <point x="328.7228714274745" y="28.0" type="curve" name="MFOPRFLF"/>
      <point x="434.08178182427014" y="28.0" name="VHCTUWTG"/>
      <point x="456.7091988222396" y="212.0" name="IJHTACLK"/>
      <point x="456.7091988222396" y="361.0" type="curve" smooth="yes" name="EUBICNFZ"/>
      <point x="456.7091988222396" y="510.0" name="SQKBKIUZ"/>
      <point x="434.08178182427014" y="542.0" name="QODDNSWG"/>
      <point x="328.7228714274745" y="542.0" type="curve" smooth="yes" name="BYCNVTPM"/>
      <point x="223.36396103067892" y="542.0" name="KZRBKRLV"/>
      <point x="93.25631329235418" y="510.0" name="OADGSQJG"/>
      <point x="93.25631329235418" y="361.0" type="curve" smooth="yes" name="BPYVZRWN"/>
      <point x="93.25631329235418" y="212.0" name="WRMCIEOZ"/>
      <point x="223.36396103067892" y="28.0" name="LHZPZOER"/>
      <point x="328.7228714274745" y="28.0" type="curve" name="SBZSZDVQ"/>
      <point x="328.7228714274745" y="28.0" name="TRTQKKJP"/>
      <point x="328.7228714274745" y="28.0" name="XOYKOTHQ"/>
    </contour>
    <contour>
      <point x="302.55992052357226" y="117.0" type="curve" name="DMVKYUSQ"/>
      <point x="219.12132034355966" y="117.0" name="CBRAOAZY"/>
      <point x="125.07611844574882" y="253.0" name="SFOKKNGY"/>
      <point x="125.07611844574882" y="371.0" type="curve" smooth="yes" name="ZSCBLCGX"/>
      <point x="125.07611844574882" y="489.0" name="FGJSEDWQ"/>
      <point x="219.12132034355966" y="527.0" name="PTZTLFND"/>
      <point x="302.55992052357226" y="527.0" type="curve" smooth="yes" name="UEPNHNDR"/>
      <point x="385.2914139223983" y="527.0" name="CFIPIKKA"/>
      <point x="410.747258045114" y="489.0" name="YOOGTDKF"/>
      <point x="410.747258045114" y="371.0" type="curve" smooth="yes" name="WRJXGRGV"/>
      <point x="410.747258045114" y="253.0" name="NOVIHMPY"/>
      <point x="385.2914139223983" y="117.0" name="PZBVTJZZ"/>
      <point x="302.55992052357226" y="117.0" type="curve" name="TFDLRMWP"/>
      <point x="302.55992052357226" y="117.0" name="FLPXFIGK"/>
      <point x="302.55992052357226" y="117.0" name="EEZENHGY"/>
    </contour>
    <contour>
      <point x="205.68629150101526" y="240.0" type="curve" name="KFPWFEJE"/>
      <point x="222.65685424949237" y="242.0" name="IIHHBOEI"/>
      <point x="240.3345237791561" y="243.0" name="SJGDMDLF"/>
      <point x="258.01219330881975" y="244.0" type="curve" name="XAKQAQBQ"/>
      <point x="252.35533905932738" y="273.0" name="CAMXRLZD"/>
      <point x="248.11269837220811" y="301.0" name="WMMDASVJ"/>
      <point x="245.99137802864846" y="325.0" type="curve" name="UUHQRQHL"/>
      <point x="252.35533905932738" y="325.0" name="CPQIWMEQ"/>
      <point x="258.01219330881975" y="325.0" name="DEJODLFN"/>
      <point x="264.37615433949867" y="325.0" type="curve" name="WSDJQYKC"/>
      <point x="264.37615433949867" y="325.0" name="YKREFKBQ"/>
      <point x="265.0832611206852" y="325.0" name="ZZTTQITN"/>
      <point x="265.0832611206852" y="325.0" type="curve" name="WLCXWGGM"/>
      <point x="277.10407640085657" y="300.0" name="YCTWCQIJ"/>
      <point x="291.2462120245875" y="272.0" name="SIKBGDUD"/>
      <point x="306.095454429505" y="243.0" type="curve" name="ESDBWHUW"/>
      <point x="327.3086578651014" y="242.0" name="DTJFTGFH"/>
      <point x="349.936074863071" y="240.0" name="ULLVAPKU"/>
      <point x="372.56349186104046" y="237.0" type="curve" name="KJBFCAWI"/>
      <point x="349.936074863071" y="279.0" name="USLARBTK"/>
      <point x="329.42997820866105" y="318.0" name="YGLBEETK"/>
      <point x="313.873629022557" y="350.0" type="curve" name="GPIUQLZA"/>
      <point x="326.60155108391484" y="367.0" name="WRWSCHKB"/>
      <point x="335.0868324581534" y="391.0" name="YYPIKFVM"/>
      <point x="337.2081528017131" y="417.0" type="curve" smooth="yes" name="VGAPJSPK"/>
      <point x="341.45079348883235" y="467.0" name="PJJWIAIC"/>
      <point x="320.9446968344225" y="492.0" name="YSTVAVRP"/>
      <point x="274.9827560572969" y="492.0" type="curve" smooth="yes" name="RANRHKLB"/>
      <point x="252.35533905932738" y="492.0" name="UZFNGEDV"/>
      <point x="229.72792206135784" y="490.0" name="ASOJOSTN"/>
      <point x="208.51471862576142" y="488.0" type="curve" name="CRSTOUJR"/>
      <point x="184.47308806541884" y="439.0" name="ACZAISRC"/>
      <point x="183.76598128423228" y="354.0" name="DQFTPTBX"/>
    </contour>
    <contour>
      <point x="262.25483399593907" y="443.0" type="curve" smooth="yes" name="ZKMMFPZV"/>
      <point x="274.27564927611036" y="443.0" name="RQIAFUDA"/>
      <point x="279.9325035256027" y="434.0" name="WDXLRMCR"/>
      <point x="279.2253967444162" y="420.0" type="curve" smooth="yes" name="SZHCJLWU"/>
      <point x="277.81118318204307" y="408.0" name="ELFMRPDI"/>
      <point x="270.7401153701776" y="396.0" name="CCEEAJYU"/>
      <point x="260.84062043356596" y="396.0" type="curve" smooth="yes" name="NTPYWRSV"/>
      <point x="254.47665940288704" y="396.0" name="FPWAHTKY"/>
      <point x="248.81980515339467" y="396.0" name="EDKJGJNM"/>
      <point x="242.4558441227157" y="396.0" type="curve" name="IWTUESVM"/>
      <point x="243.16295090390224" y="412.0" name="JFIIUVTZ"/>
      <point x="243.8700576850888" y="430.0" name="WYGZUPFU"/>
      <point x="246.698484809835" y="443.0" type="curve" name="MWIXHQVA"/>
      <point x="250.94112549695427" y="444.0" name="IEUJFIAX"/>
      <point x="256.59797974644664" y="444.0" name="DPWKWAJQ"/>
    </contour>
  </outline>
</glyph>
<glyph name="degree" format="2">
  <advance width="376"/>
  <unicode hex="00B0"/>
  <outline>
    <contour>
      <point x="297" y="77" type="curve" name="MRCBOKEV"/>
      <point x="392" y="77" name="NQTHPNCV"/>
      <point x="411" y="244" name="ESIMGYTM"/>
      <point x="412" y="378" type="curve" smooth="yes" name="GTTHKKRO"/>
      <point x="413" y="511" name="BJHZVNZY"/>
      <point x="392" y="539" name="NIPZGBXS"/>
      <point x="297" y="539" type="curve" smooth="yes" name="FQQKRTER"/>
      <point x="202" y="539" name="XFSHWKYI"/>
      <point x="85" y="512" name="YIGIHRCZ"/>
      <point x="85" y="378" type="curve" smooth="yes" name="TRGSYRRT"/>
      <point x="85" y="244" name="XISFLHNX"/>
      <point x="202" y="77" name="GFBCXRBZ"/>
      <point x="297" y="77" type="curve" name="FFCXXUDV"/>
      <point x="297" y="77" name="ZVPFLSNK"/>
      <point x="297" y="77" name="CAFYHTMN"/>
    </contour>
    <contour>
      <point x="242" y="289" type="curve" name="NNBCWWGL"/>
      <point x="203" y="289" name="NIELVVJX"/>
      <point x="170" y="339" name="ALACEIXH"/>
      <point x="170" y="398" type="curve" smooth="yes" name="BVHSXTXS"/>
      <point x="170" y="457" name="KTGYGSKG"/>
      <point x="204" y="482" name="GXCYZJNM"/>
      <point x="243" y="482" type="curve" smooth="yes" name="MDHOGHJK"/>
      <point x="283" y="482" name="LQEDXJEL"/>
      <point x="300" y="456" name="RHPESPAG"/>
      <point x="300" y="397" type="curve" smooth="yes" name="ZWYNFWNZ"/>
      <point x="300" y="338" name="SJQTSIEY"/>
      <point x="282" y="289" name="LKDXZQTV"/>
      <point x="242" y="289" type="curve" name="YNUSJJSB"/>
      <point x="242" y="289" name="QOIFABSB"/>
      <point x="242" y="289" name="WDWSRXOT"/>
    </contour>
  </outline>
</glyph>
<glyph name="plusminus" format="2">
  <advance width="382"/>
  <unicode hex="00B1"/>
  <outline>
    <contour>
      <point x="79.2771285725255" y="229.0" type="curve" name="CASVRVBT"/>
      <point x="107.5613998199874" y="239.0" name="FVIRMING"/>
      <point x="138.6740981921955" y="246.0" name="UHUZWJKV"/>
      <point x="171.9081169079632" y="249.0" type="curve" name="CFFZWIWC"/>
      <point x="171.20101012677668" y="211.0" name="JZVWTFFV"/>
      <point x="175.44365081389594" y="166.0" name="AOWYIJWH"/>
      <point x="183.92893218813452" y="115.0" type="curve" name="NAMKDDBX"/>
      <point x="217.8700576850888" y="119.0" name="YLMFRLOV"/>
      <point x="256.76093065034894" y="119.0" name="WZWCKQSY"/>
      <point x="296.3589103967956" y="115.0" type="curve" name="AEKFUMHZ"/>
      <point x="287.873629022557" y="166.0" name="DYUZQFEC"/>
      <point x="283.63098833543773" y="211.0" name="MVINJQMI"/>
      <point x="284.3380951166243" y="249.0" type="curve" name="IYDLOPVH"/>
      <point x="321.8147545195113" y="246.0" name="MBEMBGME"/>
      <point x="362.1198410471445" y="239.0" name="VUHTWEEP"/>
      <point x="404.5462479183374" y="229.0" type="curve" name="NIFSOJKY"/>
      <point x="405.2533546995239" y="279.0" name="EUGHCDCD"/>
      <point x="413.0315292925759" y="321.0" name="HTRTZURT"/>
      <point x="428.58787847867995" y="350.0" type="curve" name="FJHIHLAU"/>
      <point x="386.1614716074871" y="360.0" name="ZOGGYKTY"/>
      <point x="345.8563850798539" y="367.0" name="XTHESRFF"/>
      <point x="308.3797256769669" y="370.0" type="curve" name="KEZMZWZY"/>
      <point x="322.5218613006979" y="396.0" name="LLPBJANU"/>
      <point x="342.32085117392114" y="414.0" name="HFCCJMQA"/>
      <point x="367.7766952966369" y="424.0" type="curve" name="TOXDMJMK"/>
      <point x="328.88582233137674" y="427.0" name="ACAKTYNP"/>
      <point x="289.99494936611666" y="427.0" name="CWNZZOKU"/>
      <point x="255.34671708797583" y="424.0" type="curve" name="CYGXHBUL"/>
      <point x="229.8908729652601" y="414.0" name="IAZONOED"/>
      <point x="210.09188309203677" y="396.0" name="EUQENQXX"/>
      <point x="195.94974746830582" y="370.0" type="curve" name="GSGNRZZI"/>
      <point x="162.7157287525381" y="367.0" name="SPQFUKMJ"/>
      <point x="131.60303038033" y="360.0" name="AYXQTAFR"/>
      <point x="103.31875913286808" y="350.0" type="curve" name="AQCLTHSC"/>
      <point x="87.76240994676405" y="321.0" name="JOJXNLPT"/>
      <point x="79.2771285725255" y="280.0" name="HQGJJCZR"/>
    </contour>
    <contour>
      <point x="163.42283553372465" y="-191.0" type="curve" name="PVZZSXKT"/>
      <point x="248.9827560572969" y="-160.0" name="BOWADZRI"/>
      <point x="359.2914139223983" y="-160.0" name="HJCXSXKQ"/>
      <point x="488.6919548795365" y="-191.0" type="curve" name="ACEUZJVT"/>
      <point x="459.70057685088807" y="-99.0" name="KKGNVZAT"/>
      <point x="437.78026663410515" y="-15.0" name="ULNFDAAD"/>
      <point x="423.63813101037414" y="56.0" type="curve" name="VQGQGFGX"/>
      <point x="294.237590053236" y="87.0" name="LVYVOYMZ"/>
      <point x="183.92893218813452" y="87.0" name="MXABPWXL"/>
      <point x="98.36901166456227" y="56.0" type="curve" name="VBKPZMHL"/>
      <point x="111.80404050710666" y="-14.0" name="YYHFRCJW"/>
      <point x="134.4314575050762" y="-99.0" name="ZJAVEAGD"/>
    </contour>
  </outline>
</glyph>
<glyph name="twosuperior" format="2">
  <advance width="305"/>
  <unicode hex="00B2"/>
  <outline>
    <contour>
      <point x="168" y="101" type="curve" name="QRPFFGJR"/>
      <point x="225" y="121" name="TOJBVITG"/>
      <point x="298" y="121" name="FBTGTDJX"/>
      <point x="383" y="102" type="curve" name="DZPJZJQK"/>
      <point x="363" y="166" name="HYADOJLU"/>
      <point x="347" y="227" name="EFFJHJHF"/>
      <point x="337" y="276" type="curve" name="KLWQWWIW"/>
      <point x="301" y="285" name="YGZWEQRS"/>
      <point x="267" y="290" name="TVCHZXEY"/>
      <point x="236" y="291" type="curve" name="BMZTMABG"/>
      <point x="244" y="307" name="GYYHHFQK"/>
      <point x="252" y="321" name="CYLKXZDH"/>
      <point x="262" y="334" type="curve" smooth="yes" name="IJZVMXJN"/>
      <point x="300" y="392" name="MTQALMJH"/>
      <point x="324" y="431" name="XCLLNTUX"/>
      <point x="335" y="466" type="curve" smooth="yes" name="MAKELWWM"/>
      <point x="357" y="535" name="BGLADGTQ"/>
      <point x="294" y="570" name="DBQWGFWG"/>
      <point x="160" y="519" type="curve" name="NEJCYRUF"/>
      <point x="139" y="508" name="AHWSDVUN"/>
      <point x="125" y="487" name="FXBQDDHS"/>
      <point x="117" y="456" type="curve" name="KAULESYI"/>
      <point x="180" y="500" name="JHODYQJH"/>
      <point x="224" y="492" name="HNYLPHPT"/>
      <point x="217" y="460" type="curve" smooth="yes" name="BWWJTDQW"/>
      <point x="214" y="444" name="QLVNBZEA"/>
      <point x="199" y="427" name="BZRDIZRV"/>
      <point x="170" y="385" type="curve" smooth="yes" name="SQZTCGBT"/>
      <point x="150" y="355" name="EBKGIKMQ"/>
      <point x="134" y="317" name="ZXABGTTD"/>
      <point x="122" y="276" type="curve" name="RMOLQQSG"/>
      <point x="132" y="226" name="HROXQZAI"/>
      <point x="147" y="166" name="IXGYKHUK"/>
    </contour>
  </outline>
</glyph>
<glyph name="threesuperior" format="2">
  <advance width="297"/>
  <unicode hex="00B3"/>
  <outline>
    <contour>
      <point x="127.64034995499685" y="427.0" type="curve" name="PXSYAMJH"/>
      <point x="125.51902961143719" y="407.0" name="GVDCAUZI"/>
      <point x="125.51902961143719" y="382.0" name="WRILRVMJ"/>
      <point x="127.64034995499685" y="356.0" type="curve" name="XBVYTGED"/>
      <point x="195.5226009489054" y="380.0" name="AZLABBPX"/>
      <point x="228.0495128834866" y="360.0" name="YUIYKFAH"/>
      <point x="232.99926035179243" y="325.0" type="curve" smooth="yes" name="OLVOBGEM"/>
      <point x="238.6561146012848" y="287.0" name="FFQVFOOK"/>
      <point x="199.7652416360247" y="284.0" name="NIUQEZFV"/>
      <point x="119.15506858075827" y="298.0" type="curve" name="MIYZPCBS"/>
      <point x="126.9332431738103" y="250.0" name="RPWOZKAS"/>
      <point x="141.07537879754125" y="192.0" name="KVZUNZQM"/>
      <point x="160.16726188957804" y="128.0" type="curve" name="XMILDOID"/>
      <point x="267.64749262993325" y="86.0" name="XXMRBHFH"/>
      <point x="359.5713741841845" y="141.0" name="KRNEMTHI"/>
      <point x="334.11553006146875" y="299.0" type="curve" smooth="yes" name="MSFNYQPT"/>
      <point x="320.6805012189243" y="384.0" name="DERKWLLA"/>
      <point x="291.6891231902759" y="427.0" name="TOSRGJYW"/>
      <point x="242.89875528840412" y="443.0" type="curve" name="SUWRZPEF"/>
      <point x="266.9403858487467" y="455.0" name="UUBCQJVR"/>
      <point x="294.51755031502205" y="465.0" name="WJVYYMRO"/>
      <point x="322.80182156248395" y="471.0" type="curve" name="DKPXVLZP"/>
      <point x="332.70131649909564" y="492.0" name="HVSRJOKM"/>
      <point x="347.55055890401314" y="508.0" name="BWLZWOPE"/>
      <point x="367.34954877723646" y="515.0" type="curve" name="YXTTYBSJ"/>
      <point x="290.2749096279028" y="531.0" name="ORZZHGLD"/>
      <point x="223.09976541518074" y="530.0" name="MWQEEICF"/>
      <point x="170.77386360737626" y="511.0" type="curve" name="MHJBITQN"/>
      <point x="150.9748737341529" y="504.0" name="CQQFXOTN"/>
      <point x="135.41852454804888" y="489.0" name="HACPKUKO"/>
      <point x="126.22613639262374" y="467.0" type="curve" name="MWUTXSIQ"/>
      <point x="148.85355339059328" y="475.0" name="NMFXSPDF"/>
      <point x="174.309397513309" y="480.0" name="LETYXQEV"/>
      <point x="201.17945519839782" y="482.0" type="curve" name="VKVCHSNK"/>
      <point x="174.309397513309" y="468.0" name="YFTUUHMC"/>
      <point x="148.85355339059328" y="449.0" name="CXEALDSL"/>
    </contour>
  </outline>
</glyph>
<glyph name="acute" format="2">
  <advance width="288"/>
  <unicode hex="00B4"/>
  <anchor x="-60.0" y="517" name="top"/>
  <anchor x="94.0" y="517" name="center"/>
  <outline>
    <contour>
      <point x="153.89949493661166" y="436.0" type="curve" name="LPVYLBSU"/>
      <point x="182.89087296526012" y="446.0" name="CKAKGXYY"/>
      <point x="216.12489168102786" y="451.0" name="QOYEGQCS"/>
      <point x="252.89444430272835" y="450.0" type="curve" name="CIESFRXN"/>
      <point x="245.82337649086287" y="572.0" name="WUMWNYRL"/>
      <point x="281.88582233137674" y="637.0" name="FYQQTBKD"/>
      <point x="357.5462479183374" y="642.0" type="curve" name="QGNNLZBF"/>
      <point x="307.3416664540925" y="654.0" name="ZAGGNYNY"/>
      <point x="261.3797256769669" y="658.0" name="TYUGREKO"/>
      <point x="221.07463914933368" y="656.0" type="curve" name="EGINJTMI"/>
      <point x="158.8492424049175" y="640.0" name="QZJTTBWN"/>
      <point x="135.51471862576142" y="566.0" name="YLEBUXUF"/>
    </contour>
  </outline>
</glyph>
<glyph name="mu.math" format="2">
  <advance width="419"/>
  <unicode hex="00B5"/>
  <outline>
    <contour>
      <point x="521.6876438938607" y="317.0" type="curve" name="BTGZXQPX"/>
      <point x="475.7257031167351" y="328.0" name="JHCFTICL"/>
      <point x="430.4708691207961" y="335.0" name="EOSHJJVV"/>
      <point x="389.4586758119764" y="339.0" type="curve" name="KWLHEDUT"/>
      <point x="335.0114536606122" y="320.0" name="IXJYDEPZ"/>
      <point x="303.19164850721756" y="265.0" name="IWUYOAKF"/>
      <point x="295.41347391416554" y="180.0" type="curve" smooth="yes" name="JWOKALGY"/>
      <point x="291.1708332270463" y="129.0" name="FZVQZFMQ"/>
      <point x="271.3718433538229" y="94.0" name="WFPYYUKA"/>
      <point x="233.89518395093592" y="94.0" type="curve" smooth="yes" name="LNOTRSST"/>
      <point x="196.41852454804888" y="94.0" name="IINNJOCP"/>
      <point x="178.0337482371986" y="132.0" name="AAAMFMNT"/>
      <point x="181.56928214313137" y="180.0" type="curve" smooth="yes" name="TQGTBPSH"/>
      <point x="189.3474567361834" y="265.0" name="FJYOWOSV"/>
      <point x="221.16726188957801" y="320.0" name="PEOKLOBR"/>
      <point x="275.6144840409422" y="339.0" type="curve" name="ZGEVMKWV"/>
      <point x="240.25914498161484" y="335.0" name="XWUGSSEW"/>
      <point x="204.90380592228746" y="328.0" name="DQQFKKIY"/>
      <point x="174.4982143312659" y="317.0" type="curve" name="TLWGIVII"/>
      <point x="48.63320728006042" y="272.0" name="SWZXUWNH"/>
      <point x="48.63320728006042" y="41.0" name="KACMDOYZ"/>
      <point x="174.4982143312659" y="-360.0" type="curve" name="PPQQOFWE"/>
      <point x="204.90380592228746" y="-349.0" name="ZPGNWZEI"/>
      <point x="240.25914498161484" y="-342.0" name="SERDEZQK"/>
      <point x="275.6144840409422" y="-338.0" type="curve" name="XJLEDNNO"/>
      <point x="245.9159992311072" y="-243.0" name="VFZZFSUP"/>
      <point x="221.87436867076457" y="-154.0" name="ESHLUMSL"/>
      <point x="206.3180194846605" y="-79.0" type="curve" name="RDILUQXP"/>
      <point x="219.75304832720497" y="-92.0" name="QAQAXDLM"/>
      <point x="234.6022907321224" y="-98.0" name="KPCZTFQO"/>
      <point x="251.57285348059958" y="-98.0" type="curve" smooth="yes" name="KYRJHKHN"/>
      <point x="277.0286976033153" y="-97.0" name="ZUTIZBTZ"/>
      <point x="298.94900782009825" y="-81.0" name="NETKGTXO"/>
      <point x="315.21246378738886" y="-55.0" type="curve" name="QQJWNDUK"/>
      <point x="317.3337841309485" y="-64.0" name="GABVDEDT"/>
      <point x="318.7479976933216" y="-72.0" name="XLOQBBFY"/>
      <point x="320.8693180368812" y="-81.0" type="curve" name="GQEJUCPU"/>
      <point x="361.1744045645145" y="-84.0" name="TAOBETAL"/>
      <point x="407.13634534164004" y="-92.0" name="BCSNNPZV"/>
      <point x="453.0982861187656" y="-103.0" type="curve" name="UFCILDGQ"/>
      <point x="402.1865978733342" y="140.0" name="ESTBKSGG"/>
      <point x="424.8140148713037" y="283.0" name="FEPDSLXI"/>
    </contour>
  </outline>
</glyph>
<glyph name="paragraph" format="2">
  <advance width="550"/>
  <unicode hex="00B6"/>
  <outline>
    <contour>
      <point x="461.6761902332486" y="-175.0" type="curve" name="MZLEQTQB"/>
      <point x="363.3883476483185" y="137.0" name="DSCSICLO"/>
      <point x="340.0538238691624" y="347.0" name="YSCMFANE"/>
      <point x="393.0868324581534" y="445.0" type="curve" name="TDTESAMX"/>
      <point x="408.64318164425754" y="444.0" name="YPWCNJJC"/>
      <point x="426.32085117392114" y="442.0" name="QBDEZHOR"/>
      <point x="442.58430714121175" y="440.0" type="curve" name="TEUHKQEY"/>
      <point x="390.25840533340727" y="341.0" name="WBLPTKDG"/>
      <point x="412.88582233137674" y="132.0" name="RHDZPIQO"/>
      <point x="511.17366491630685" y="-180.0" type="curve" name="PRRDGYOX"/>
      <point x="552.8929650063133" y="-185.0" name="KKWUSFVU"/>
      <point x="599.5620125646253" y="-194.0" name="ILGLTHQP"/>
      <point x="645.5239533417509" y="-205.0" type="curve" name="YFHGMPHA"/>
      <point x="518.9518395093589" y="198.0" name="PJKJBVZZ"/>
      <point x="518.9518395093589" y="430.0" name="ANZNCNZV"/>
      <point x="645.5239533417509" y="475.0" type="curve" name="XXHYMCHK"/>
      <point x="528.144227664784" y="503.0" name="CBQMXOCE"/>
      <point x="419.9568901432423" y="514.0" name="DAZPHISB"/>
      <point x="327.32590180780454" y="507.0" type="curve" smooth="yes" name="CZUNTTHB"/>
      <point x="224.79541853575512" y="499.0" name="EONITPBL"/>
      <point x="109.53701320234788" y="469.0" name="AFTMJHKT"/>
      <point x="84.08116907963216" y="370.0" type="curve" smooth="yes" name="FLGQFDLP"/>
      <point x="58.625324956916444" y="271.0" name="CIUOKCDT"/>
      <point x="139.9426047933694" y="170.0" name="ALSXWIRE"/>
      <point x="231.8664863476206" y="178.0" type="curve" smooth="yes" name="CYPMWFDB"/>
      <point x="240.35176772185918" y="178.0" name="RCBMOAPQ"/>
      <point x="248.83704909609776" y="179.0" name="KCWLFUNW"/>
      <point x="257.3223304703363" y="179.0" type="curve" name="AUMFNCNM"/>
      <point x="271.46446609406723" y="83.0" name="WQJWJZTL"/>
      <point x="299.74873734152914" y="-35.0" name="BDLICLPU"/>
      <point x="342.88225099390854" y="-172.0" type="curve" name="DPYCEIAD"/>
      <point x="379.651803615609" y="-170.0" name="NCTHRZNY"/>
      <point x="420.66399692442883" y="-171.0" name="DCJEZEGG"/>
    </contour>
    <contour>
      <point x="226.20963209812822" y="342.0" type="curve" smooth="yes" name="AWSHWSOJ"/>
      <point x="198.63246763185288" y="340.0" name="ZKQQGHAF"/>
      <point x="181.6619048833757" y="365.0" name="HYNFRSRP"/>
      <point x="188.7329726952412" y="395.0" type="curve" smooth="yes" name="SOLFVFJS"/>
      <point x="196.51114728829322" y="424.0" name="JISBOODZ"/>
      <point x="225.50252531694167" y="444.0" name="XOKDPOET"/>
      <point x="258.7365440327094" y="447.0" type="curve" smooth="yes" name="DYWNDWMK"/>
      <point x="264.3933982822018" y="447.0" name="KMGXJFSJ"/>
      <point x="269.34314575050763" y="447.0" name="JAEEXALU"/>
      <point x="274.29289321881345" y="448.0" type="curve" name="GYPQCZGA"/>
      <point x="260.1507575950825" y="421.0" name="YLFFADLX"/>
      <point x="251.6654762208439" y="386.0" name="WZSKVFHR"/>
      <point x="248.83704909609776" y="343.0" type="curve" name="GXVXEZBS"/>
      <point x="241.05887450304573" y="343.0" name="KIAEGUCB"/>
      <point x="233.2806999099937" y="343.0" name="RRGMPYLC"/>
    </contour>
  </outline>
</glyph>
<glyph name="periodcentered" format="2">
  <advance width="205"/>
  <unicode hex="00B7"/>
  <outline>
    <contour>
      <point x="198.3129688507772" y="70.0" type="curve" name="IIYJKFFO"/>
      <point x="238.61805537841042" y="70.0" name="PIZLQZJV"/>
      <point x="250.6388706585817" y="148.0" name="CSJMOJWP"/>
      <point x="250.6388706585817" y="205.0" type="curve" smooth="yes" name="FFTFUSUJ"/>
      <point x="250.6388706585817" y="261.0" name="CMUDQURN"/>
      <point x="239.32516215959697" y="276.0" name="KSCOADMY"/>
      <point x="198.3129688507772" y="277.0" type="curve" smooth="yes" name="GCOCEVZP"/>
      <point x="156.5936687607709" y="277.0" name="COFAOBXV"/>
      <point x="102.14644660940672" y="260.0" name="KGYNLASF"/>
      <point x="101.43933982822017" y="205.0" type="curve" smooth="yes" name="IYPZZTGZ"/>
      <point x="101.43933982822017" y="148.0" name="MVUERZVW"/>
      <point x="156.5936687607709" y="70.0" name="MMYHTUVM"/>
      <point x="198.3129688507772" y="70.0" type="curve" name="RIJYICPU"/>
      <point x="198.3129688507772" y="70.0" name="XJIDBORQ"/>
      <point x="198.3129688507772" y="70.0" name="ZFAUINCK"/>
    </contour>
  </outline>
</glyph>
<glyph name="cedilla" format="2">
  <advance width="294"/>
  <unicode hex="00B8"/>
  <anchor x="-61.0" y="0" name="bottom"/>
  <anchor x="147.0" y="0" name="center"/>
  <outline>
    <contour>
      <point x="242.4594154601839" y="-137.0" type="curve" name="XZWAFHSZ"/>
      <point x="249.53048327204942" y="-127.0" name="QYJYLSHA"/>
      <point x="258.7228714274745" y="-120.0" name="BPGMIGDN"/>
      <point x="270.0365799264593" y="-116.0" type="curve" name="IIRTLVAL"/>
      <point x="243.873629022557" y="-114.0" name="DUAIZKDE"/>
      <point x="218.4177848998413" y="-115.0" name="TUHBZXZQ"/>
      <point x="196.49747468305833" y="-119.0" type="curve" name="VDJYGZGC"/>
      <point x="169.62741699796953" y="-128.0" name="ZFYKBHMF"/>
      <point x="154.77817459305203" y="-155.0" name="QCMDMTKD"/>
      <point x="151.94974746830584" y="-198.0" type="curve" name="SKPZCMPS"/>
      <point x="201.44722215136414" y="-185.0" name="IJTLMMZV"/>
      <point x="224.78174593052023" y="-197.0" name="NEIFPMQF"/>
      <point x="226.19595949289334" y="-221.0" type="curve" smooth="yes" name="ACFWBIHL"/>
      <point x="226.9030662740799" y="-250.0" name="ZIAZOWPO"/>
      <point x="175.99137802864846" y="-256.0" name="UZAZDEFC"/>
      <point x="111.64466094067262" y="-240.0" type="curve" name="WVNTPGMJ"/>
      <point x="114.4730880654188" y="-281.0" name="MORFDEFM"/>
      <point x="125.07968978321702" y="-335.0" name="EQDFAKPC"/>
      <point x="143.46446609406726" y="-398.0" type="curve" name="VCPYGVIX"/>
      <point x="267.2081528017131" y="-449.0" name="JFJTSUTQ"/>
      <point x="332.969083452062" y="-370.0" name="BKGFOCSB"/>
      <point x="321.6553749530773" y="-250.0" type="curve" smooth="yes" name="UMUDSLPO"/>
      <point x="315.2914139223983" y="-177.0" name="PTNZMFFG"/>
      <point x="286.30003589374985" y="-150.0" name="YVNNNYJH"/>
      <point x="242.4594154601839" y="-137.0" type="curve" name="UMZYAEUE"/>
      <point x="242.4594154601839" y="-137.0" name="NQCILBKX"/>
      <point x="242.4594154601839" y="-137.0" name="OZHCNUTE"/>
    </contour>
  </outline>
</glyph>
<glyph name="onesuperior" format="2">
  <advance width="240"/>
  <unicode hex="00B9"/>
  <outline>
    <contour>
      <point x="301.01933598375615" y="525.0" type="curve" name="TYSYHEIB"/>
      <point x="232.42997820866105" y="537.0" name="UXYHZEGT"/>
      <point x="174.44722215136417" y="534.0" name="YCNOUHXJ"/>
      <point x="127.77817459305203" y="515.0" type="curve" name="WZARIRJB"/>
      <point x="110.8076118445749" y="502.0" name="MLZZHFNS"/>
      <point x="98.78679656440357" y="481.0" name="QEMEJOXC"/>
      <point x="92.42283553372465" y="453.0" type="curve" name="YYCVLWOA"/>
      <point x="108.68629150101523" y="462.0" name="NWWBTSOF"/>
      <point x="127.07106781186548" y="468.0" name="GMRLXXFM"/>
      <point x="146.16295090390227" y="473.0" type="curve" name="VEMIALKI"/>
      <point x="127.77817459305203" y="405.0" name="BEBICDTP"/>
      <point x="144.74873734152916" y="283.0" name="ZNNKDSUS"/>
      <point x="198.48885271170678" y="113.0" type="curve" name="GKENHQYN"/>
      <point x="228.1873375215418" y="116.0" name="KDSGOMAV"/>
      <point x="262.8355697996826" y="112.0" name="EBPEYWJB"/>
      <point x="301.01933598375615" y="103.0" type="curve" name="CMCSBJWR"/>
      <point x="222.53048327204942" y="353.0" name="JZRJAEFT"/>
      <point x="222.53048327204942" y="497.0" name="LNNCONIA"/>
    </contour>
  </outline>
</glyph>
<glyph name="ordmasculine" format="2">
  <advance width="348"/>
  <unicode hex="00BA"/>
  <outline>
    <contour>
      <point x="224.91168824543144" y="200.0" type="curve" name="VXYVSZBE"/>
      <point x="309.76450198781714" y="200.0" name="RBLHHRZW"/>
      <point x="360.6761902332486" y="308.0" name="MXJHRTWK"/>
      <point x="379.76807332528534" y="402.0" type="curve" smooth="yes" name="DBINVEHH"/>
      <point x="399.56706319850866" y="495.0" name="DWDXSTDX"/>
      <point x="378.35385976291224" y="525.0" name="OSKTBSPK"/>
      <point x="293.50104602052653" y="525.0" type="curve" smooth="yes" name="ZVKFYFAA"/>
      <point x="207.94112549695427" y="525.0" name="BKVXIGHR"/>
      <point x="102.58221510015869" y="495.0" name="BAPXOQNA"/>
      <point x="82.78322522693537" y="402.0" type="curve" smooth="yes" name="KBWAAFGQ"/>
      <point x="62.98423535371205" y="309.0" name="VRXMQZZU"/>
      <point x="139.35176772185918" y="200.0" name="QQJQIIDZ"/>
      <point x="224.91168824543144" y="200.0" type="curve" name="LKIRHSKF"/>
      <point x="224.91168824543144" y="200.0" name="UIXUELWF"/>
      <point x="224.91168824543144" y="200.0" name="QIPXIHOA"/>
    </contour>
    <contour>
      <point x="209.35533905932738" y="351.0" type="curve" name="XFFSKSJR"/>
      <point x="178.94974746830584" y="351.0" name="UUOIENWI"/>
      <point x="160.5649711574556" y="383.0" name="ERNPKZMY"/>
      <point x="167.63603896932108" y="421.0" type="curve" smooth="yes" name="GQTNROBN"/>
      <point x="175.4142135623731" y="459.0" name="DJXLHWGV"/>
      <point x="205.81980515339467" y="477.0" name="KNHCNCLG"/>
      <point x="236.22539674441617" y="477.0" type="curve" smooth="yes" name="ADAHEYXP"/>
      <point x="266.63098833543773" y="477.0" name="MZOALHPN"/>
      <point x="275.82337649086287" y="459.0" name="MVFQMGLC"/>
      <point x="268.04520189781084" y="421.0" type="curve" smooth="yes" name="LPWXSPHK"/>
      <point x="260.2670273047588" y="384.0" name="RFWCLSNC"/>
      <point x="239.76093065034894" y="351.0" name="CJXMBCXJ"/>
      <point x="209.35533905932738" y="351.0" type="curve" name="FBBXODMY"/>
      <point x="209.35533905932738" y="351.0" name="ZLDYDJKK"/>
      <point x="209.35533905932738" y="351.0" name="EKKLDCAH"/>
    </contour>
    <contour>
      <point x="171.17157287525382" y="-83.0" type="curve" name="JZLYVTYM"/>
      <point x="243.29646455628165" y="-60.0" name="GVXFTMQN"/>
      <point x="335.2203461105329" y="-60.0" name="ZYNAUXAC"/>
      <point x="439.8721497261419" y="-83.0" type="curve" name="KTBSLLJE"/>
      <point x="415.1234123846127" y="-5.0" name="MRBPDMIO"/>
      <point x="396.0315292925759" y="65.0" name="XONTKVIM"/>
      <point x="382.5965004500315" y="127.0" type="curve" name="NAZJHDYX"/>
      <point x="277.9446968344225" y="150.0" name="ULHEHHUK"/>
      <point x="186.0208152801713" y="150.0" name="KGPRIFVO"/>
      <point x="113.89592359914346" y="127.0" type="curve" name="UGCJZIHH"/>
      <point x="127.33095244168786" y="65.0" name="EPNZZKVC"/>
      <point x="146.42283553372465" y="-5.0" name="JLDZUQLL"/>
    </contour>
  </outline>
</glyph>
<glyph name="guillemetright" format="2">
  <advance width="549"/>
  <unicode hex="00BB"/>
  <outline>
    <contour>
      <point x="585.9805371126743" y="80.0" type="curve" name="WQFXADKK"/>
      <point x="576.0810421760625" y="152.0" name="XOINJGSG"/>
      <point x="576.0810421760625" y="213.0" name="IEOMIDXQ"/>
      <point x="585.9805371126743" y="257.0" type="curve" name="HHJCMPTQ"/>
      <point x="508.19879118215397" y="325.0" name="AODTRTPW"/>
      <point x="448.80182156248395" y="367.0" name="HIDUFINL"/>
      <point x="409.2038418160373" y="381.0" type="curve" name="LAFJJIFQ"/>
      <point x="374.5556095378965" y="369.0" name="LESEFICJ"/>
      <point x="350.51397897755385" y="339.0" name="EDIXPERN"/>
      <point x="339.2002704785691" y="294.0" type="curve" name="UIGOJLOQ"/>
      <point x="372.4342891943368" y="270.0" name="NVEXRHJF"/>
      <point x="411.32516215959697" y="239.0" name="VXTCXOVS"/>
      <point x="455.16578259316293" y="200.0" type="curve" name="QVHPZMGC"/>
      <point x="411.32516215959697" y="176.0" name="TRAEQMMA"/>
      <point x="373.1413959755234" y="142.0" name="USKNIWWS"/>
      <point x="339.90737725975566" y="103.0" type="curve" name="UKEJKPOO"/>
      <point x="351.2210857587404" y="27.0" name="FZVKIFOQ"/>
      <point x="375.26271631908304" y="-70.0" name="KPYOHEMT"/>
      <point x="409.2038418160373" y="-178.0" type="curve" name="HPAVQPSB"/>
      <point x="448.80182156248395" y="-66.0" name="BNZUTDAL"/>
      <point x="508.19879118215397" y="22.0" name="ORDYMUAI"/>
    </contour>
    <contour>
      <point x="300.30939751330897" y="114.0" type="curve" name="ANUSSJHS"/>
      <point x="290.40990257669733" y="186.0" name="RLLAITXI"/>
      <point x="290.40990257669733" y="247.0" name="PQAXLFDQ"/>
      <point x="300.30939751330897" y="291.0" type="curve" name="BVGUOITF"/>
      <point x="238.79110755007935" y="336.0" name="CQLQFDEW"/>
      <point x="195.65759389769994" y="355.0" name="ABGYYHRH"/>
      <point x="171.61596333735736" y="347.0" type="curve" name="WNSANKEG"/>
      <point x="136.9677310592165" y="335.0" name="YJZXWRAI"/>
      <point x="112.9261004988739" y="305.0" name="XYHVBBUI"/>
      <point x="101.61239199988913" y="260.0" type="curve" name="GBUCFAGS"/>
      <point x="126.36112934141829" y="248.0" name="XJFHYMFX"/>
      <point x="157.4738277136264" y="228.0" name="OJMCCOML"/>
      <point x="192.12205999176717" y="202.0" type="curve" name="BHDCGRKJ"/>
      <point x="157.4738277136264" y="165.0" name="JEPTHKAM"/>
      <point x="127.06823612260484" y="120.0" name="QSTBGNAN"/>
      <point x="102.31949878107568" y="69.0" type="curve" name="OYSDKCYD"/>
      <point x="114.34031406124697" y="-8.0" name="WTCGAWCC"/>
      <point x="137.67483784040306" y="-104.0" name="UPKDKCWJ"/>
      <point x="171.61596333735736" y="-212.0" type="curve" name="ETPPRPGO"/>
      <point x="195.65759389769994" y="-78.0" name="IRRNHIHB"/>
      <point x="238.79110755007935" y="33.0" name="NVYTADEE"/>
    </contour>
  </outline>
</glyph>
<glyph name="onehalf" format="2">
  <advance width="664"/>
  <unicode hex="00BD"/>
  <outline>
    <contour>
      <point x="307.95836943965736" y="514.0" type="curve" name="RUTZEJJP"/>
      <point x="254.21825406947977" y="505.0" name="WUEZGHOO"/>
      <point x="204.0136726052349" y="491.0" name="HPDSTLGB"/>
      <point x="156.63751826573616" y="473.0" type="curve" name="VPAIOZJS"/>
      <point x="138.252741954886" y="462.0" name="DGDTTEKT"/>
      <point x="121.9892859875954" y="447.0" name="NVXKCATZ"/>
      <point x="109.96847070742407" y="427.0" type="curve" name="HCDRSQQP"/>
      <point x="126.93903345590121" y="435.0" name="FPCXZAAM"/>
      <point x="145.32380976675142" y="441.0" name="DQNDACNY"/>
      <point x="163.00147929641514" y="448.0" type="curve" name="GJSZJDDO"/>
      <point x="130.47456736183392" y="400.0" name="XMLWOISH"/>
      <point x="119.86796564403573" y="317.0" name="PCYKBOZF"/>
      <point x="131.18167414302047" y="207.0" type="curve" name="NWZJSPOI"/>
      <point x="158.05173182810927" y="214.0" name="HRWRUFGL"/>
      <point x="185.62889629438462" y="220.0" name="GMZFZBUD"/>
      <point x="214.62027432303307" y="224.0" type="curve" name="VBJAVNOV"/>
      <point x="197.64971157455597" y="387.0" name="YJKAQZUL"/>
      <point x="228.76240994676402" y="487.0" name="QZKVWVAB"/>
    </contour>
    <contour>
      <point x="245.7329726952412" y="-191.0" type="curve" name="PJOORYDM"/>
      <point x="273.31013716151654" y="-184.0" name="PFVCSALZ"/>
      <point x="302.301515190165" y="-179.0" name="YGDBRUJX"/>
      <point x="332.0" y="-175.0" type="curve" name="PMEQWVDX"/>
      <point x="290.98780669118025" y="238.0" name="EDVIJPLT"/>
      <point x="384.3259018078045" y="472.0" name="NGHRKTBA"/>
      <point x="609.1858582251266" y="509.0" type="curve" name="ZMFKNJNY"/>
      <point x="573.1234123846127" y="514.0" name="JEDILBYN"/>
      <point x="537.7680733252853" y="518.0" name="EJXNCGBL"/>
      <point x="503.8269478283311" y="520.0" type="curve" name="YAZNDQGU"/>
      <point x="285.3309524416879" y="474.0" name="XMHPAVAS"/>
      <point x="197.64971157455597" y="232.0" name="OPMTTYHL"/>
    </contour>
    <contour>
      <point x="529.2827919510468" y="-172.0" type="curve" name="CIDMPPEV"/>
      <point x="604.2361107568208" y="-177.0" name="DMYPCBYK"/>
      <point x="686.2604973744603" y="-190.0" name="FVOVKNYV"/>
      <point x="771.8204178980326" y="-210.0" type="curve" name="CIXJJKPI"/>
      <point x="751.3143212436228" y="-145.0" name="IRNJDKKA"/>
      <point x="733.636651713959" y="-82.0" name="WNXWUHMK"/>
      <point x="719.494516090228" y="-26.0" type="curve" name="DQOTAUVA"/>
      <point x="683.4320702497141" y="-17.0" name="QKASWYAN"/>
      <point x="647.3696244092002" y="-10.0" name="GKTRFTIE"/>
      <point x="613.4284989122459" y="-4.0" type="curve" name="AIVASQNH"/>
      <point x="621.2066735052979" y="12.0" name="AXDUHDYE"/>
      <point x="628.2777413171634" y="27.0" name="PNYEIQCU"/>
      <point x="636.763022691402" y="42.0" type="curve" smooth="yes" name="XERXJWNI"/>
      <point x="671.4112549695428" y="105.0" name="UINJPVTO"/>
      <point x="682.7249634685277" y="162.0" name="OPGEQIMV"/>
      <point x="679.1894295625948" y="218.0" type="curve" smooth="yes" name="XVSQLDZN"/>
      <point x="670.7041481883563" y="330.0" name="NGQQQUGR"/>
      <point x="581.6086937588514" y="401.0" name="YYHJPEXG"/>
      <point x="438.0660171779821" y="364.0" type="curve" name="QCABFAYO"/>
      <point x="434.5304832720494" y="328.0" name="SJDALRVM"/>
      <point x="434.5304832720494" y="287.0" name="VEUMMKRU"/>
      <point x="439.4802307403552" y="239.0" type="curve" name="TBFRANCJ"/>
      <point x="509.4838020778234" y="273.0" name="VXIMRFWV"/>
      <point x="558.9812767608818" y="256.0" name="UUXXWDJE"/>
      <point x="564.6381310103741" y="207.0" type="curve" smooth="yes" name="DOPPYMAL"/>
      <point x="567.4665581351203" y="183.0" name="FADOEKSB"/>
      <point x="555.445742854949" y="161.0" name="ZRVLANZE"/>
      <point x="527.8685783886737" y="117.0" type="curve" smooth="yes" name="HNFXDCCQ"/>
      <point x="508.77669529663694" y="86.0" name="OCJQRKMY"/>
      <point x="491.0990257669732" y="50.0" name="QIJVWYXK"/>
      <point x="476.2497833620557" y="13.0" type="curve" name="NACEDHDM"/>
      <point x="490.3919189857867" y="-43.0" name="XNWZDAGA"/>
      <point x="508.77669529663694" y="-107.0" name="UOUPBTER"/>
    </contour>
  </outline>
</glyph>
<glyph name="threequarters" format="2">
  <advance width="678"/>
  <unicode hex="00BE"/>
  <outline>
    <contour>
      <point x="284.55277784863586" y="-185.0" type="curve" name="ITSQTXFS"/>
      <point x="312.83704909609776" y="-179.0" name="DZSRYTNK"/>
      <point x="341.8284271247462" y="-174.0" name="YSUMDOMF"/>
      <point x="372.2340187157678" y="-171.0" type="curve" name="NXMYRXBV"/>
      <point x="331.9289321881345" y="241.0" name="LCKMKBUW"/>
      <point x="429.50966799187813" y="469.0" name="BZJPQACK"/>
      <point x="660.0264786586927" y="498.0" type="curve" name="DIGUTWEV"/>
      <point x="623.9640328181787" y="503.0" name="ULAJGXOG"/>
      <point x="588.6086937588514" y="507.0" name="RTSULTPL"/>
      <point x="553.9604614807105" y="510.0" type="curve" name="CBRXFAIU"/>
      <point x="329.1005050633883" y="473.0" name="ZAJWQPQE"/>
      <point x="237.88373029032368" y="236.0" name="OXOJBIMC"/>
    </contour>
    <contour>
      <point x="140.30299448658013" y="408.0" type="curve" name="KKWBFPBR"/>
      <point x="133.23192667471466" y="395.0" name="OXSHYDZJ"/>
      <point x="127.57507242522229" y="378.0" name="YGJGZKRL"/>
      <point x="124.03953851928952" y="360.0" type="curve" name="JJVFOYDS"/>
      <point x="191.21468273201157" y="385.0" name="SKQJWWYT"/>
      <point x="213.8420997299811" y="379.0" name="GRQREFFY"/>
      <point x="210.30656582404833" y="356.0" type="curve" smooth="yes" name="LXXUTYSP"/>
      <point x="206.77103191811557" y="331.0" name="FTKBDXWY"/>
      <point x="174.95122676472096" y="318.0" name="UOVVNKQT"/>
      <point x="103.53344186487965" y="319.0" type="curve" name="WBEQLXSG"/>
      <point x="99.99790795894691" y="287.0" name="YNKBLDAY"/>
      <point x="99.99790795894691" y="249.0" name="DQOOYZZB"/>
      <point x="103.53344186487965" y="207.0" type="curve" name="SIFOYMVP"/>
      <point x="193.33600307557117" y="190.0" name="DANLEKQA"/>
      <point x="278.89592359914343" y="254.0" name="LVHLYTUW"/>
      <point x="290.9167388793148" y="359.0" type="curve" smooth="yes" name="QUAPCAQH"/>
      <point x="297.2806999099937" y="416.0" name="UJDSOLVH"/>
      <point x="283.8456710674493" y="437.0" name="VPTPVUXT"/>
      <point x="244.95479810218916" y="439.0" type="curve" name="IBHPRSTN"/>
      <point x="268.28932188134524" y="452.0" name="JGALYPSR"/>
      <point x="294.4522727852475" y="464.0" name="SSBIIWPE"/>
      <point x="319.90811690796323" y="474.0" type="curve" name="SLACBNVL"/>
      <point x="334.0502525316942" y="489.0" name="DMBPHLKS"/>
      <point x="351.0208152801713" y="502.0" name="PRLTSNQY"/>
      <point x="370.81980515339467" y="509.0" type="curve" name="STTODGBW"/>
      <point x="310.00862197135154" y="502.0" name="DKSHBGZR"/>
      <point x="250.61165235168153" y="490.0" name="DLWRYLWM"/>
      <point x="198.28575054387704" y="471.0" type="curve" name="HWSPJWDQ"/>
      <point x="178.48676067065367" y="464.0" name="EAQQUUPO"/>
      <point x="160.80909114099" y="452.0" name="BXMZGPKP"/>
      <point x="147.3740622984456" y="436.0" type="curve" name="FOWHMWYI"/>
      <point x="170.00147929641514" y="444.0" name="ICZPJGWA"/>
      <point x="194.04310985675772" y="451.0" name="WRHGBTGP"/>
      <point x="218.08474041710036" y="457.0" type="curve" name="NJXCLPSO"/>
      <point x="191.21468273201157" y="443.0" name="RTKXKSLG"/>
      <point x="164.34462504692272" y="426.0" name="AFOBFQCU"/>
    </contour>
    <contour>
      <point x="650.1269837220809" y="-181.0" type="curve" name="PEMFCLNQ"/>
      <point x="683.3610024378486" y="-186.0" name="MIMJPUQF"/>
      <point x="717.3021279348029" y="-192.0" name="TLAYDJIT"/>
      <point x="751.9503602129438" y="-199.0" type="curve" name="NEEXXYDP"/>
      <point x="737.1011178080263" y="-152.0" name="OZDALPZS"/>
      <point x="723.6660889654819" y="-106.0" name="BJZUETNW"/>
      <point x="712.3523804664972" y="-64.0" type="curve" name="SGVXLOZG"/>
      <point x="727.2016228714147" y="-67.0" name="LLXRWKBK"/>
      <point x="743.4650788387053" y="-71.0" name="SEMEAYQD"/>
      <point x="758.3143212436228" y="-74.0" type="curve" name="MTSVDVTD"/>
      <point x="743.4650788387053" y="-18.0" name="AVWLNQPQ"/>
      <point x="730.7371567773473" y="37.0" name="BDGCSFRN"/>
      <point x="721.5447686219222" y="85.0" type="curve" name="QEOANEEJ"/>
      <point x="706.6955262170047" y="88.0" name="XENOYOTV"/>
      <point x="690.4320702497141" y="92.0" name="FNSZJFMR"/>
      <point x="675.5828278447966" y="95.0" type="curve" name="XVDMRISJ"/>
      <point x="656.4909447527598" y="196.0" name="CXBLSYQI"/>
      <point x="651.541197284454" y="278.0" name="LGRFTFSS"/>
      <point x="660.0264786586927" y="340.0" type="curve" name="OXOOZQTT"/>
      <point x="609.8218971944477" y="351.0" name="TJEPTVEY"/>
      <point x="559.6173157302028" y="359.0" name="VJDFGRWJ"/>
      <point x="513.6553749530773" y="364.0" type="curve" name="QCDXDUHU"/>
      <point x="471.936074863071" y="306.0" name="WDSCKMLY"/>
      <point x="442.94469683442253" y="227.0" name="OZRUOMTL"/>
      <point x="430.92388155425124" y="127.0" type="curve" name="WGAUZUGY"/>
      <point x="440.1162697096763" y="79.0" name="MIXYEITA"/>
      <point x="452.84419177103416" y="24.0" name="HLIAFNTF"/>
      <point x="467.69343417595167" y="-32.0" type="curve" name="XNTKSYCS"/>
      <point x="512.9482681718907" y="-34.0" name="CIGNQCIM"/>
      <point x="561.7386360737624" y="-39.0" name="OTUCURTO"/>
      <point x="610.5290039756343" y="-46.0" type="curve" name="BWVYEBWS"/>
      <point x="621.842712474619" y="-88.0" name="AOTKAJKR"/>
      <point x="635.2777413171634" y="-134.0" name="HZJAEEAV"/>
    </contour>
    <contour>
      <point x="529.2117241391813" y="119.0" type="curve" name="OFEWJPPM"/>
      <point x="534.8685783886737" y="166.0" name="QOESGAXY"/>
      <point x="543.3538597629122" y="209.0" name="TLKSXWRM"/>
      <point x="555.3746750430836" y="247.0" type="curve" name="FEUOBJJM"/>
      <point x="558.2031021678297" y="207.0" name="NXSBFZWE"/>
      <point x="564.5670631985087" y="162.0" name="EVJPZTFU"/>
      <point x="573.7594513539339" y="113.0" type="curve" name="RGEQSROA"/>
      <point x="558.9102089490164" y="115.0" name="ZLMKWGFV"/>
      <point x="544.0609665440988" y="117.0" name="IWRBJIFJ"/>
    </contour>
  </outline>
</glyph>
<glyph name="questiondown" format="2">
  <advance width="361"/>
  <unicode hex="00BF"/>
  <outline>
    <contour>
      <point x="329" y="416" type="curve" name="YECRBNNP"/>
      <point x="287" y="418" name="SRCWJPJX"/>
      <point x="228" y="406" name="OXWXWZBG"/>
      <point x="205" y="382" type="curve" smooth="yes" name="QELHEGYC"/>
      <point x="183" y="357" name="RYMPLQIT"/>
      <point x="204" y="328" name="OCWHMHQN"/>
      <point x="246" y="326" type="curve" smooth="yes" name="SFMLCROW"/>
      <point x="289" y="324" name="AIWLGHOS"/>
      <point x="337" y="350" name="KLIMBOPR"/>
      <point x="359" y="375" type="curve" smooth="yes" name="KBNNMNFQ"/>
      <point x="382" y="400" name="TTPWSCLO"/>
      <point x="372" y="414" name="TFUKXRGR"/>
      <point x="329" y="416" type="curve" name="OIGXKBGA"/>
      <point x="329" y="416" name="LLKQSHHM"/>
      <point x="329" y="416" name="IWLOBWTO"/>
    </contour>
    <contour>
      <point x="172" y="240" type="curve" name="OBEWRWOV"/>
      <point x="99" y="207" name="CYOGBRHQ"/>
      <point x="51" y="142" name="RBLPVHHU"/>
      <point x="78" y="-1" type="curve" smooth="yes" name="XKMFYQFO"/>
      <point x="120" y="-231" name="IHKVSHAU"/>
      <point x="273" y="-330" name="HLPBQAQH"/>
      <point x="465" y="-265" type="curve" name="HDFEXMMK"/>
      <point x="435" y="-167" name="IMJXYUHZ"/>
      <point x="413" y="-79" name="BEZTUAIW"/>
      <point x="399" y="-3" type="curve" name="ZLFVBKQV"/>
      <point x="298" y="-49" name="ZGKYNHXN"/>
      <point x="192" y="-37" name="FWCGHAQY"/>
      <point x="178" y="45" type="curve" smooth="yes" name="TQNWFYQX"/>
      <point x="170" y="92" name="WKIYYHIQ"/>
      <point x="200" y="120" name="EVLYVQAW"/>
      <point x="299" y="119" type="curve" name="RKSHWXGD"/>
      <point x="292" y="182" name="WCKRYZNX"/>
      <point x="291" y="238" name="SEBMTUDG"/>
      <point x="298" y="281" type="curve" name="HNXHPWPC"/>
      <point x="257" y="286" name="CIQELMXV"/>
      <point x="215" y="288" name="OEMXFIZJ"/>
      <point x="178" y="286" type="curve" name="BLVNMSEE"/>
      <point x="175" y="272" name="AWVBJAUW"/>
      <point x="172" y="257" name="FBVPEVCY"/>
    </contour>
  </outline>
</glyph>
